<svg width="156" height="156" viewBox="0 0 156 156" fill="none" xmlns="http://www.w3.org/2000/svg">
<path d="M40.373 97.3674C39.9593 97.3674 39.5625 97.203 39.2699 96.9105C38.9774 96.6179 38.813 96.2211 38.813 95.8074V69.6618C38.813 69.2481 38.9774 68.8513 39.2699 68.5587C39.5625 68.2662 39.9593 68.1018 40.373 68.1018C40.7868 68.1018 41.1836 68.2662 41.4761 68.5587C41.7687 68.8513 41.933 69.2481 41.933 69.6618V95.8074C41.933 96.2211 41.7687 96.6179 41.4761 96.9105C41.1836 97.203 40.7868 97.3674 40.373 97.3674Z" fill="#EE722E"/>
<path d="M63.2504 97.3674C62.8367 97.3674 62.4399 97.203 62.1474 96.9105C61.8548 96.6179 61.6904 96.2211 61.6904 95.8074V59.1474C61.6904 58.7337 61.8548 58.3369 62.1474 58.0443C62.4399 57.7518 62.8367 57.5874 63.2504 57.5874C63.6642 57.5874 64.061 57.7518 64.3535 58.0443C64.6461 58.3369 64.8104 58.7337 64.8104 59.1474V95.8464C64.8003 96.2533 64.6314 96.6402 64.34 96.9244C64.0485 97.2085 63.6575 97.3675 63.2504 97.3674Z" fill="#EE722E"/>
<path d="M68.1566 118.615C67.7429 118.615 67.3461 118.45 67.0536 118.158C66.761 117.865 66.5966 117.468 66.5966 117.055V97.3674H53.4458C53.0321 97.3674 52.6353 97.203 52.3428 96.9105C52.0502 96.6179 51.8858 96.2211 51.8858 95.8074C51.8858 95.3937 52.0502 94.9969 52.3428 94.7043C52.6353 94.4118 53.0321 94.2474 53.4458 94.2474H68.1566C68.5704 94.2474 68.9672 94.4118 69.2597 94.7043C69.5523 94.9969 69.7166 95.3937 69.7166 95.8074V117.055C69.7166 117.468 69.5523 117.865 69.2597 118.158C68.9672 118.45 68.5704 118.615 68.1566 118.615Z" fill="#EE722E"/>
<path d="M35.4668 118.615C35.0531 118.615 34.6563 118.45 34.3637 118.158C34.0712 117.865 33.9068 117.468 33.9068 117.055V95.8074C33.9068 95.3937 34.0712 94.9969 34.3637 94.7043C34.6563 94.4118 35.0531 94.2474 35.4668 94.2474H42.0032C42.417 94.2474 42.8138 94.4118 43.1063 94.7043C43.3989 94.9969 43.5632 95.3937 43.5632 95.8074C43.5632 96.2211 43.3989 96.6179 43.1063 96.9105C42.8138 97.203 42.417 97.3674 42.0032 97.3674H37.0268V117.055C37.0268 117.468 36.8625 117.865 36.5699 118.158C36.2774 118.45 35.8806 118.615 35.4668 118.615Z" fill="#EE722E"/>
<path d="M76.3232 130.049H27.3002C26.8865 130.049 26.4897 129.885 26.1971 129.592C25.9046 129.3 25.7402 128.903 25.7402 128.489V118.685C25.7402 118.271 25.9046 117.874 26.1971 117.582C26.4897 117.289 26.8865 117.125 27.3002 117.125H37.1048C37.5186 117.125 37.9154 117.289 38.2079 117.582C38.5005 117.874 38.6648 118.271 38.6648 118.685C38.6648 119.099 38.5005 119.495 38.2079 119.788C37.9154 120.08 37.5186 120.245 37.1048 120.245H28.8602V126.929H74.7632V120.245H50.1776C49.7639 120.245 49.3671 120.08 49.0745 119.788C48.782 119.495 48.6176 119.099 48.6176 118.685C48.6176 118.271 48.782 117.874 49.0745 117.582C49.3671 117.289 49.7639 117.125 50.1776 117.125H76.3232C76.737 117.125 77.1338 117.289 77.4263 117.582C77.7189 117.874 77.8832 118.271 77.8832 118.685V128.489C77.8832 128.903 77.7189 129.3 77.4263 129.592C77.1338 129.885 76.737 130.049 76.3232 130.049Z" fill="#EE722E"/>
<path d="M30.4904 115.495H27.3704V120.245H30.4904V115.495Z" fill="#EE722E"/>
<path d="M76.253 115.495H73.133V120.245H76.253V115.495Z" fill="#EE722E"/>
<path d="M108.826 82.212C108.213 82.2125 107.613 82.0371 107.098 81.7067C106.582 81.3762 106.172 80.9045 105.916 80.3478L101.868 71.9706C101.702 71.6001 101.686 71.1792 101.825 70.7975C101.964 70.4158 102.247 70.1033 102.612 69.9266C102.978 69.7498 103.398 69.7226 103.784 69.8509C104.169 69.9792 104.489 70.2527 104.676 70.6134L108.74 79.0218C108.74 79.0842 108.81 79.0998 108.849 79.0842L126.68 70.9098C126.69 70.8963 126.696 70.8799 126.696 70.863C126.696 70.8461 126.69 70.8297 126.68 70.8162L117.967 51.9168C117.797 51.5418 117.782 51.1146 117.925 50.7284C118.068 50.3421 118.358 50.0283 118.732 49.8552C119.106 49.6822 119.533 49.6641 119.92 49.8048C120.308 49.9455 120.623 50.2337 120.799 50.6064L129.55 69.5058C129.727 69.8867 129.828 70.2988 129.845 70.7185C129.862 71.1382 129.797 71.5572 129.652 71.9514C129.507 72.3457 129.285 72.7074 129 73.0159C128.715 73.3244 128.372 73.5735 127.99 73.749L110.152 81.9C109.737 82.0978 109.285 82.2042 108.826 82.212Z" fill="#EE722E"/>
<path d="M122.819 90.0744C120.596 90.0744 118.186 88.4676 116.392 86.9544C114.07 85.0011 112.147 82.6174 110.729 79.9344C110.578 79.5625 110.577 79.1469 110.725 78.7738C110.872 78.4008 111.158 78.0991 111.523 77.9314C111.887 77.7637 112.303 77.7429 112.682 77.8733C113.061 78.0038 113.376 78.2754 113.56 78.6318C114.795 80.8922 116.443 82.9005 118.42 84.552C120.76 86.58 122.554 87.1806 123.209 86.892C125.011 86.0652 125.026 78.1248 123.209 74.217C123.124 74.0306 123.076 73.8291 123.068 73.6242C123.06 73.4192 123.093 73.2147 123.164 73.0224C123.236 72.8301 123.344 72.6538 123.484 72.5034C123.623 72.353 123.791 72.2316 123.977 72.1461C124.164 72.0606 124.365 72.0126 124.57 72.0049C124.775 71.9972 124.98 72.03 125.172 72.1014C125.364 72.1727 125.541 72.2812 125.691 72.4207C125.841 72.5602 125.963 72.728 126.048 72.9144C127.803 76.752 129.098 87.6174 124.488 89.7312C123.962 89.9616 123.393 90.0786 122.819 90.0744Z" fill="#EE722E"/>
<path d="M126.36 95.4876C126.058 95.4878 125.762 95.4002 125.509 95.2354C125.255 95.0706 125.055 94.8358 124.933 94.5594L122.46 88.92C122.363 88.7311 122.305 88.5244 122.291 88.3124C122.276 88.1005 122.305 87.8878 122.376 87.6875C122.447 87.4871 122.557 87.3033 122.702 87.1473C122.846 86.9913 123.02 86.8664 123.214 86.7802C123.409 86.694 123.618 86.6484 123.831 86.6461C124.043 86.6439 124.254 86.685 124.45 86.7671C124.646 86.8491 124.823 86.9703 124.97 87.1232C125.118 87.2762 125.232 87.4576 125.307 87.6564L127.811 93.2724C127.98 93.649 127.993 94.0772 127.846 94.4631C127.7 94.8491 127.407 95.1613 127.031 95.3316C126.822 95.4329 126.593 95.4862 126.36 95.4876Z" fill="#EE722E"/>
<path d="M128.747 93.0696C127.906 93.2037 127.097 93.4919 126.36 93.9198C124.722 94.6998 123.318 95.1288 124.075 96.7746C124.38 97.3354 124.831 97.8032 125.38 98.1286C125.929 98.454 126.556 98.6249 127.195 98.6232C127.603 98.6268 128.007 98.5444 128.38 98.3814C129.13 97.9772 129.706 97.3141 130.002 96.516C130.297 95.7178 130.292 94.8393 129.987 94.0446C129.66 93.327 129.207 93.0696 128.724 93.0696H128.747Z" fill="#EE722E"/>
<path d="M122.086 130.049H89.4038C88.9901 130.049 88.5933 129.885 88.3008 129.592C88.0082 129.3 87.8438 128.903 87.8438 128.489V95.8074C87.8438 95.3937 88.0082 94.9969 88.3008 94.7043C88.5933 94.4118 88.9901 94.2474 89.4038 94.2474H97.1258C97.5396 94.2474 97.9364 94.4118 98.2289 94.7043C98.5215 94.9969 98.6858 95.3937 98.6858 95.8074C98.6858 102.013 101.151 107.965 105.54 112.354C109.928 116.742 115.88 119.207 122.086 119.207C122.5 119.207 122.896 119.372 123.189 119.664C123.481 119.957 123.646 120.354 123.646 120.767V128.489C123.646 128.903 123.481 129.3 123.189 129.592C122.896 129.885 122.5 130.049 122.086 130.049ZM90.9638 126.929H120.526V122.249C114.043 121.867 107.926 119.12 103.334 114.528C98.7423 109.936 95.9948 103.819 95.6126 97.3362H90.9326L90.9638 126.929Z" fill="#EE722E"/>
<path d="M102.477 64.6776C97.8793 64.6804 93.4287 63.0588 89.9108 60.099C88.4207 58.8452 86.5387 58.1526 84.5912 58.1412H69.6932C67.7766 58.1418 65.9223 58.8216 64.4594 60.06C61.6233 62.4573 58.1616 63.9949 54.4815 64.492C50.8013 64.9891 47.0557 64.425 43.6852 62.8661C40.3147 61.3071 37.4594 58.8181 35.4551 55.6919C33.4509 52.5656 32.381 48.932 32.3713 45.2184C32.3616 41.5049 33.4125 37.8658 35.4004 34.7291C37.3883 31.5923 40.2305 29.0885 43.5928 27.512C46.9551 25.9354 50.6977 25.3518 54.3804 25.8296C58.0631 26.3075 61.5328 27.827 64.3814 30.2094C65.8689 31.4679 67.7527 32.1612 69.701 32.1672H84.5912C86.5082 32.1784 88.3664 31.5064 89.8328 30.2718C92.2301 28.2575 95.0772 26.8501 98.1333 26.1687C101.189 25.4872 104.365 25.5517 107.391 26.3568C110.417 27.1618 113.204 28.6837 115.518 30.7937C117.831 32.9037 119.602 35.5398 120.682 38.479C121.761 41.4183 122.117 44.5742 121.719 47.68C121.321 50.7858 120.181 53.7501 118.395 56.3221C116.609 58.8942 114.231 60.9984 111.46 62.4569C108.689 63.9153 105.608 64.685 102.477 64.701V64.6776ZM51.8156 28.7274C49.4978 28.7282 47.2064 29.2193 45.0919 30.1683C42.9773 31.1174 41.0874 32.503 39.5462 34.2342C37.9896 35.9674 36.8238 38.015 36.128 40.2383C35.4323 42.4615 35.2227 44.8084 35.5136 47.1198C35.9569 50.6406 37.5211 53.9254 39.9749 56.4888C42.4288 59.0522 45.6422 60.7583 49.1402 61.3548C51.4864 61.743 53.889 61.6132 56.1796 60.9745C58.4703 60.3358 60.5934 59.2037 62.4002 57.6576C64.4292 55.9466 67.0001 55.0122 69.6542 55.0212H84.5522C87.2483 55.0234 89.8566 55.9794 91.9154 57.72C94.3121 59.7368 97.2355 61.0263 100.341 61.4365C103.446 61.8467 106.604 61.3605 109.442 60.0352C112.281 58.7099 114.681 56.6007 116.36 53.9563C118.039 51.312 118.927 48.2427 118.919 45.1104C118.911 41.978 118.008 38.9132 116.316 36.2772C114.624 33.6412 112.213 31.544 109.368 30.2328C106.524 28.9216 103.363 28.4511 100.26 28.8768C97.1566 29.3024 94.2397 30.6065 91.853 32.6352C89.821 34.3462 87.2477 35.2805 84.5912 35.2716H69.701C67.0268 35.2528 64.4437 34.2979 62.4002 32.5728C59.4374 30.0803 55.6874 28.718 51.8156 28.7274Z" fill="#EE722E"/>
<path d="M51.8156 64.6776C51.4019 64.6776 51.0051 64.5132 50.7125 64.2207C50.42 63.9281 50.2556 63.5313 50.2556 63.1176C50.2556 62.7039 50.42 62.3071 50.7125 62.0145C51.0051 61.722 51.4019 61.5576 51.8156 61.5576C54.8427 61.5622 57.8119 60.7278 60.3936 59.1472C62.9752 57.5665 65.0683 55.3014 66.4406 52.6032C66.5301 52.4146 66.6565 52.2459 66.8124 52.107C66.9683 51.9682 67.1504 51.862 67.3481 51.7949C67.5457 51.7277 67.7548 51.7009 67.963 51.716C68.1712 51.7311 68.3743 51.7879 68.5602 51.8829C68.746 51.9779 68.9109 52.1093 69.0451 52.2692C69.1793 52.4291 69.28 52.6143 69.3413 52.8139C69.4026 53.0134 69.4232 53.2232 69.4019 53.4309C69.3806 53.6385 69.3179 53.8398 69.2174 54.0228C67.5837 57.2326 65.093 59.9272 62.0214 61.8079C58.9497 63.6886 55.4173 64.6819 51.8156 64.6776Z" fill="#EE722E"/>
<path d="M102.477 64.6776C98.8737 64.6833 95.3396 63.6908 92.2664 61.81C89.1933 59.9292 86.7013 57.2338 85.067 54.0228C84.8788 53.6535 84.8449 53.2246 84.9729 52.8304C85.1009 52.4362 85.3803 52.109 85.7495 51.9207C86.1188 51.7325 86.5477 51.6986 86.9419 51.8266C87.3362 51.9546 87.6634 52.2339 87.8516 52.6032C89.2239 55.3014 91.3171 57.5665 93.8987 59.1472C96.4804 60.7278 99.4495 61.5622 102.477 61.5576C102.89 61.5576 103.287 61.722 103.58 62.0145C103.872 62.3071 104.037 62.7039 104.037 63.1176C104.037 63.5313 103.872 63.9281 103.58 64.2207C103.287 64.5132 102.89 64.6776 102.477 64.6776Z" fill="#EE722E"/>
<path d="M102.477 53.2428C100.875 53.2428 99.31 52.768 97.9785 51.8783C96.6471 50.9887 95.6093 49.7242 94.9965 48.2448C94.3837 46.7653 94.2234 45.1374 94.5358 43.5669C94.8482 41.9963 95.6193 40.5537 96.7516 39.4214C97.8839 38.2891 99.3266 37.518 100.897 37.2056C102.468 36.8932 104.096 37.0535 105.575 37.6663C107.054 38.2791 108.319 39.3168 109.209 40.6483C110.098 41.9797 110.573 43.5451 110.573 45.1464C110.571 47.2931 109.717 49.3512 108.199 50.8691C106.681 52.3871 104.623 53.2407 102.477 53.2428ZM102.477 40.17C101.492 40.17 100.53 40.4619 99.7119 41.0087C98.8935 41.5555 98.2557 42.3327 97.879 43.242C97.5024 44.1513 97.4038 45.1519 97.5958 46.1173C97.7879 47.0826 98.2618 47.9693 98.9578 48.6653C99.6537 49.3612 100.54 49.8352 101.506 50.0272C102.471 50.2192 103.472 50.1207 104.381 49.744C105.29 49.3673 106.068 48.7295 106.614 47.9111C107.161 47.0928 107.453 46.1306 107.453 45.1464C107.453 43.8266 106.929 42.5608 105.995 41.6276C105.062 40.6943 103.796 40.17 102.477 40.17Z" fill="#EE722E"/>
<path d="M51.8156 53.2428C50.7497 53.2459 49.6936 53.0388 48.7077 52.6335C47.7218 52.2282 46.8255 51.6326 46.07 50.8807C45.3144 50.1287 44.7145 49.2353 44.3044 48.2514C43.8944 47.2674 43.6823 46.2123 43.6802 45.1464C43.6802 44.7327 43.8446 44.3359 44.1371 44.0433C44.4297 43.7508 44.8265 43.5864 45.2402 43.5864C45.654 43.5864 46.0508 43.7508 46.3433 44.0433C46.6359 44.3359 46.8002 44.7327 46.8002 45.1464C46.7987 46.1325 47.0897 47.0969 47.6364 47.9176C48.1832 48.7383 48.961 49.3783 49.8717 49.7568C50.7823 50.1352 51.7847 50.235 52.752 50.0436C53.7194 49.8521 54.6082 49.3781 55.306 48.6813C56.0039 47.9846 56.4793 47.0965 56.6723 46.1294C56.8652 45.1624 56.767 44.1598 56.39 43.2486C56.013 42.3374 55.3741 41.5586 54.5543 41.0105C53.7345 40.4625 52.7705 40.17 51.7844 40.17C51.3707 40.17 50.9739 40.0056 50.6813 39.7131C50.3888 39.4205 50.2244 39.0237 50.2244 38.61C50.2244 38.1963 50.3888 37.7995 50.6813 37.5069C50.9739 37.2144 51.3707 37.05 51.7844 37.05C53.9317 37.05 55.9911 37.903 57.5095 39.4214C59.0278 40.9398 59.8808 42.9991 59.8808 45.1464C59.8808 47.2937 59.0278 49.353 57.5095 50.8714C55.9911 52.3898 53.9317 53.2428 51.7844 53.2428H51.8156Z" fill="#EE722E"/>
<path d="M102.477 64.6776C97.8793 64.6804 93.4287 63.0588 89.9108 60.099C88.4207 58.8452 86.5387 58.1526 84.5912 58.1412H69.6932C67.7766 58.1418 65.9223 58.8216 64.4594 60.06C61.6233 62.4573 58.1616 63.9949 54.4815 64.492C50.8013 64.9891 47.0557 64.425 43.6852 62.8661C40.3147 61.3071 37.4594 58.8181 35.4551 55.6919C33.4509 52.5656 32.381 48.932 32.3713 45.2184C32.3616 41.5049 33.4125 37.8658 35.4004 34.7291C37.3883 31.5923 40.2305 29.0885 43.5928 27.512C46.9551 25.9354 50.6977 25.3518 54.3804 25.8296C58.0631 26.3075 61.5328 27.827 64.3814 30.2094C65.8689 31.4679 67.7527 32.1612 69.701 32.1672H84.5912C86.5082 32.1784 88.3664 31.5064 89.8328 30.2718C92.2301 28.2575 95.0772 26.8501 98.1333 26.1687C101.189 25.4872 104.365 25.5517 107.391 26.3568C110.417 27.1618 113.204 28.6837 115.518 30.7937C117.831 32.9037 119.602 35.5398 120.682 38.479C121.761 41.4183 122.117 44.5742 121.719 47.68C121.321 50.7858 120.181 53.7501 118.395 56.3221C116.609 58.8942 114.231 60.9984 111.46 62.4569C108.689 63.9153 105.608 64.685 102.477 64.701V64.6776ZM102.477 64.6776C98.8737 64.6833 95.3396 63.6908 92.2664 61.81C89.1933 59.9292 86.7013 57.2338 85.067 54.0228C84.8788 53.6535 84.8449 53.2246 84.9729 52.8304C85.1009 52.4362 85.3803 52.109 85.7495 51.9207C86.1188 51.7325 86.5477 51.6986 86.9419 51.8266C87.3362 51.9546 87.6634 52.2339 87.8516 52.6032C89.2239 55.3014 91.3171 57.5665 93.8987 59.1472C96.4804 60.7278 99.4495 61.5622 102.477 61.5576C102.89 61.5576 103.287 61.722 103.58 62.0145C103.872 62.3071 104.037 62.7039 104.037 63.1176C104.037 63.5313 103.872 63.9281 103.58 64.2207C103.287 64.5132 102.89 64.6776 102.477 64.6776ZM40.373 97.3674C39.9593 97.3674 39.5625 97.203 39.2699 96.9105C38.9774 96.6179 38.813 96.2211 38.813 95.8074V69.6618C38.813 69.2481 38.9774 68.8513 39.2699 68.5587C39.5625 68.2662 39.9593 68.1018 40.373 68.1018C40.7868 68.1018 41.1836 68.2662 41.4761 68.5587C41.7687 68.8513 41.933 69.2481 41.933 69.6618V95.8074C41.933 96.2211 41.7687 96.6179 41.4761 96.9105C41.1836 97.203 40.7868 97.3674 40.373 97.3674ZM63.2504 97.3674C62.8367 97.3674 62.4399 97.203 62.1474 96.9105C61.8548 96.6179 61.6904 96.2211 61.6904 95.8074V59.1474C61.6904 58.7337 61.8548 58.3369 62.1474 58.0443C62.4399 57.7518 62.8367 57.5874 63.2504 57.5874C63.6642 57.5874 64.061 57.7518 64.3535 58.0443C64.6461 58.3369 64.8104 58.7337 64.8104 59.1474V95.8464C64.8003 96.2533 64.6314 96.6402 64.34 96.9244C64.0485 97.2085 63.6575 97.3675 63.2504 97.3674ZM68.1566 118.615C67.7429 118.615 67.3461 118.45 67.0536 118.158C66.761 117.865 66.5966 117.468 66.5966 117.055V97.3674H53.4458C53.0321 97.3674 52.6353 97.203 52.3428 96.9105C52.0502 96.6179 51.8858 96.2211 51.8858 95.8074C51.8858 95.3937 52.0502 94.9969 52.3428 94.7043C52.6353 94.4118 53.0321 94.2474 53.4458 94.2474H68.1566C68.5704 94.2474 68.9672 94.4118 69.2597 94.7043C69.5523 94.9969 69.7166 95.3937 69.7166 95.8074V117.055C69.7166 117.468 69.5523 117.865 69.2597 118.158C68.9672 118.45 68.5704 118.615 68.1566 118.615ZM35.4668 118.615C35.0531 118.615 34.6563 118.45 34.3637 118.158C34.0712 117.865 33.9068 117.468 33.9068 117.055V95.8074C33.9068 95.3937 34.0712 94.9969 34.3637 94.7043C34.6563 94.4118 35.0531 94.2474 35.4668 94.2474H42.0032C42.417 94.2474 42.8138 94.4118 43.1063 94.7043C43.3989 94.9969 43.5632 95.3937 43.5632 95.8074C43.5632 96.2211 43.3989 96.6179 43.1063 96.9105C42.8138 97.203 42.417 97.3674 42.0032 97.3674H37.0268V117.055C37.0268 117.468 36.8625 117.865 36.5699 118.158C36.2774 118.45 35.8806 118.615 35.4668 118.615ZM76.3232 130.049H27.3002C26.8865 130.049 26.4897 129.885 26.1971 129.592C25.9046 129.3 25.7402 128.903 25.7402 128.489V118.685C25.7402 118.271 25.9046 117.874 26.1971 117.582C26.4897 117.289 26.8865 117.125 27.3002 117.125H37.1048C37.5186 117.125 37.9154 117.289 38.2079 117.582C38.5005 117.874 38.6648 118.271 38.6648 118.685C38.6648 119.099 38.5005 119.495 38.2079 119.788C37.9154 120.08 37.5186 120.245 37.1048 120.245H28.8602V126.929H74.7632V120.245H50.1776C49.7639 120.245 49.3671 120.08 49.0745 119.788C48.782 119.495 48.6176 119.099 48.6176 118.685C48.6176 118.271 48.782 117.874 49.0745 117.582C49.3671 117.289 49.7639 117.125 50.1776 117.125H76.3232C76.737 117.125 77.1338 117.289 77.4263 117.582C77.7189 117.874 77.8832 118.271 77.8832 118.685V128.489C77.8832 128.903 77.7189 129.3 77.4263 129.592C77.1338 129.885 76.737 130.049 76.3232 130.049ZM27.3704 115.495H30.4904V120.245H27.3704V115.495ZM73.133 115.495H76.253V120.245H73.133V115.495ZM108.826 82.212C108.213 82.2125 107.613 82.0371 107.098 81.7067C106.582 81.3762 106.172 80.9045 105.916 80.3478L101.868 71.9706C101.702 71.6001 101.686 71.1792 101.825 70.7975C101.964 70.4158 102.247 70.1033 102.612 69.9266C102.978 69.7498 103.398 69.7226 103.784 69.8509C104.169 69.9792 104.489 70.2527 104.676 70.6134L108.74 79.0218C108.74 79.0842 108.81 79.0998 108.849 79.0842L126.68 70.9098C126.69 70.8963 126.696 70.8799 126.696 70.863C126.696 70.8461 126.69 70.8297 126.68 70.8162L117.967 51.9168C117.797 51.5418 117.782 51.1146 117.925 50.7284C118.068 50.3421 118.358 50.0283 118.732 49.8552C119.106 49.6822 119.533 49.6641 119.92 49.8048C120.308 49.9455 120.623 50.2337 120.799 50.6064L129.55 69.5058C129.727 69.8867 129.828 70.2988 129.845 70.7185C129.862 71.1382 129.797 71.5572 129.652 71.9514C129.507 72.3457 129.285 72.7074 129 73.0159C128.715 73.3244 128.372 73.5735 127.99 73.749L110.152 81.9C109.737 82.0978 109.285 82.2042 108.826 82.212ZM122.819 90.0744C120.596 90.0744 118.186 88.4676 116.392 86.9544C114.07 85.0011 112.147 82.6174 110.729 79.9344C110.578 79.5625 110.577 79.1469 110.725 78.7738C110.872 78.4008 111.158 78.0991 111.523 77.9314C111.887 77.7637 112.303 77.7429 112.682 77.8733C113.061 78.0038 113.376 78.2754 113.56 78.6318C114.795 80.8922 116.443 82.9005 118.42 84.552C120.76 86.58 122.554 87.1806 123.209 86.892C125.011 86.0652 125.026 78.1248 123.209 74.217C123.124 74.0306 123.076 73.8291 123.068 73.6242C123.06 73.4192 123.093 73.2147 123.164 73.0224C123.236 72.8301 123.344 72.6538 123.484 72.5034C123.623 72.353 123.791 72.2316 123.977 72.1461C124.164 72.0606 124.365 72.0126 124.57 72.0049C124.775 71.9972 124.98 72.03 125.172 72.1014C125.364 72.1727 125.541 72.2812 125.691 72.4207C125.841 72.5602 125.963 72.728 126.048 72.9144C127.803 76.752 129.098 87.6174 124.488 89.7312C123.962 89.9616 123.393 90.0786 122.819 90.0744ZM126.36 95.4876C126.058 95.4878 125.762 95.4002 125.509 95.2354C125.255 95.0706 125.055 94.8358 124.933 94.5594L122.46 88.92C122.363 88.7311 122.305 88.5244 122.291 88.3124C122.276 88.1005 122.305 87.8878 122.376 87.6875C122.447 87.4871 122.557 87.3033 122.702 87.1473C122.846 86.9913 123.02 86.8664 123.214 86.7802C123.409 86.694 123.618 86.6484 123.831 86.6461C124.043 86.6439 124.254 86.685 124.45 86.7671C124.646 86.8491 124.823 86.9703 124.97 87.1232C125.118 87.2762 125.232 87.4576 125.307 87.6564L127.811 93.2724C127.98 93.649 127.993 94.0772 127.846 94.4631C127.7 94.8491 127.407 95.1613 127.031 95.3316C126.822 95.4329 126.593 95.4862 126.36 95.4876ZM128.747 93.0696C127.906 93.2037 127.097 93.4919 126.36 93.9198C124.722 94.6998 123.318 95.1288 124.075 96.7746C124.38 97.3354 124.831 97.8032 125.38 98.1286C125.929 98.454 126.556 98.6249 127.195 98.6232C127.603 98.6268 128.007 98.5444 128.38 98.3814C129.13 97.9772 129.706 97.3141 130.002 96.516C130.297 95.7178 130.292 94.8393 129.987 94.0446C129.66 93.327 129.207 93.0696 128.724 93.0696H128.747ZM122.086 130.049H89.4038C88.9901 130.049 88.5933 129.885 88.3008 129.592C88.0082 129.3 87.8438 128.903 87.8438 128.489V95.8074C87.8438 95.3937 88.0082 94.9969 88.3008 94.7043C88.5933 94.4118 88.9901 94.2474 89.4038 94.2474H97.1258C97.5396 94.2474 97.9364 94.4118 98.2289 94.7043C98.5215 94.9969 98.6858 95.3937 98.6858 95.8074C98.6858 102.013 101.151 107.965 105.54 112.354C109.928 116.742 115.88 119.207 122.086 119.207C122.5 119.207 122.896 119.372 123.189 119.664C123.481 119.957 123.646 120.354 123.646 120.767V128.489C123.646 128.903 123.481 129.3 123.189 129.592C122.896 129.885 122.5 130.049 122.086 130.049ZM90.9638 126.929H120.526V122.249C114.043 121.867 107.926 119.12 103.334 114.528C98.7423 109.936 95.9948 103.819 95.6126 97.3362H90.9326L90.9638 126.929ZM51.8156 28.7274C49.4978 28.7282 47.2064 29.2193 45.0919 30.1683C42.9773 31.1174 41.0874 32.503 39.5462 34.2342C37.9896 35.9674 36.8238 38.015 36.128 40.2383C35.4323 42.4615 35.2227 44.8084 35.5136 47.1198C35.9569 50.6406 37.5211 53.9254 39.9749 56.4888C42.4288 59.0522 45.6422 60.7583 49.1402 61.3548C51.4864 61.743 53.889 61.6132 56.1796 60.9745C58.4703 60.3358 60.5934 59.2037 62.4002 57.6576C64.4292 55.9466 67.0001 55.0122 69.6542 55.0212H84.5522C87.2483 55.0234 89.8566 55.9794 91.9154 57.72C94.3121 59.7368 97.2355 61.0263 100.341 61.4365C103.446 61.8467 106.604 61.3605 109.442 60.0352C112.281 58.7099 114.681 56.6007 116.36 53.9563C118.039 51.312 118.927 48.2427 118.919 45.1104C118.911 41.978 118.008 38.9132 116.316 36.2772C114.624 33.6412 112.213 31.544 109.368 30.2328C106.524 28.9216 103.363 28.4511 100.26 28.8768C97.1566 29.3024 94.2397 30.6065 91.853 32.6352C89.821 34.3462 87.2477 35.2805 84.5912 35.2716H69.701C67.0268 35.2528 64.4437 34.2979 62.4002 32.5728C59.4374 30.0803 55.6874 28.718 51.8156 28.7274ZM51.8156 64.6776C51.4019 64.6776 51.0051 64.5132 50.7125 64.2207C50.42 63.9281 50.2556 63.5313 50.2556 63.1176C50.2556 62.7039 50.42 62.3071 50.7125 62.0145C51.0051 61.722 51.4019 61.5576 51.8156 61.5576C54.8427 61.5622 57.8119 60.7278 60.3936 59.1472C62.9752 57.5665 65.0683 55.3014 66.4406 52.6032C66.5301 52.4146 66.6565 52.2459 66.8124 52.107C66.9683 51.9682 67.1504 51.862 67.3481 51.7949C67.5457 51.7277 67.7548 51.7009 67.963 51.716C68.1712 51.7311 68.3743 51.7879 68.5602 51.8829C68.746 51.9779 68.9109 52.1093 69.0451 52.2692C69.1793 52.4291 69.28 52.6143 69.3413 52.8139C69.4026 53.0134 69.4232 53.2232 69.4019 53.4309C69.3806 53.6385 69.3179 53.8398 69.2174 54.0228C67.5837 57.2326 65.093 59.9272 62.0214 61.8079C58.9497 63.6886 55.4173 64.6819 51.8156 64.6776ZM102.477 53.2428C100.875 53.2428 99.31 52.768 97.9785 51.8783C96.6471 50.9887 95.6093 49.7242 94.9965 48.2448C94.3837 46.7653 94.2234 45.1374 94.5358 43.5669C94.8482 41.9963 95.6193 40.5537 96.7516 39.4214C97.8839 38.2891 99.3266 37.518 100.897 37.2056C102.468 36.8932 104.096 37.0535 105.575 37.6663C107.054 38.2791 108.319 39.3168 109.209 40.6483C110.098 41.9797 110.573 43.5451 110.573 45.1464C110.571 47.2931 109.717 49.3512 108.199 50.8691C106.681 52.3871 104.623 53.2407 102.477 53.2428ZM102.477 40.17C101.492 40.17 100.53 40.4619 99.7119 41.0087C98.8935 41.5555 98.2557 42.3327 97.879 43.242C97.5024 44.1513 97.4038 45.1519 97.5958 46.1173C97.7879 47.0826 98.2618 47.9693 98.9578 48.6653C99.6537 49.3612 100.54 49.8352 101.506 50.0272C102.471 50.2192 103.472 50.1207 104.381 49.744C105.29 49.3673 106.068 48.7295 106.614 47.9111C107.161 47.0928 107.453 46.1306 107.453 45.1464C107.453 43.8266 106.929 42.5608 105.995 41.6276C105.062 40.6943 103.796 40.17 102.477 40.17ZM51.8156 53.2428C50.7497 53.2459 49.6936 53.0388 48.7077 52.6335C47.7218 52.2282 46.8255 51.6326 46.07 50.8807C45.3144 50.1287 44.7145 49.2353 44.3044 48.2514C43.8944 47.2674 43.6823 46.2123 43.6802 45.1464C43.6802 44.7327 43.8446 44.3359 44.1371 44.0433C44.4297 43.7508 44.8265 43.5864 45.2402 43.5864C45.654 43.5864 46.0508 43.7508 46.3433 44.0433C46.6359 44.3359 46.8002 44.7327 46.8002 45.1464C46.7987 46.1325 47.0897 47.0969 47.6364 47.9176C48.1832 48.7383 48.961 49.3783 49.8717 49.7568C50.7823 50.1352 51.7847 50.235 52.752 50.0436C53.7194 49.8521 54.6082 49.3781 55.306 48.6813C56.0039 47.9846 56.4793 47.0965 56.6723 46.1294C56.8652 45.1624 56.767 44.1598 56.39 43.2486C56.013 42.3374 55.3741 41.5586 54.5543 41.0105C53.7345 40.4625 52.7705 40.17 51.7844 40.17C51.3707 40.17 50.9739 40.0056 50.6813 39.7131C50.3888 39.4205 50.2244 39.0237 50.2244 38.61C50.2244 38.1963 50.3888 37.7995 50.6813 37.5069C50.9739 37.2144 51.3707 37.05 51.7844 37.05C53.9317 37.05 55.9911 37.903 57.5095 39.4214C59.0278 40.9398 59.8808 42.9991 59.8808 45.1464C59.8808 47.2937 59.0278 49.353 57.5095 50.8714C55.9911 52.3898 53.9317 53.2428 51.7844 53.2428H51.8156Z" stroke="#EE722E"/>
</svg>
