<svg width="164" height="164" viewBox="0 0 164 164" fill="none" xmlns="http://www.w3.org/2000/svg">
<path d="M47.7734 128.83C42.4215 128.83 37.1897 127.243 32.7397 124.27C28.2897 121.296 24.8214 117.07 22.7733 112.126C20.7252 107.181 20.1893 101.74 21.2334 96.4911C22.2775 91.2419 24.8547 86.4203 28.6391 82.6359C32.4235 78.8515 37.2452 76.2743 42.4943 75.2302C47.7434 74.1861 53.1843 74.7219 58.1289 76.77C63.0734 78.8181 67.2996 82.2865 70.273 86.7365C73.2464 91.1865 74.8334 96.4183 74.8334 101.77C74.8334 108.947 71.9825 115.83 66.9078 120.905C61.833 125.979 54.9502 128.83 47.7734 128.83ZM47.7734 78.1378C43.0922 78.1362 38.5157 79.523 34.6227 82.1227C30.7297 84.7224 27.6952 88.4184 25.903 92.7429C24.1108 97.0675 23.6415 101.826 24.5544 106.418C25.4672 111.009 27.7213 115.227 31.0314 118.537C34.3416 121.847 38.559 124.101 43.1504 125.014C47.7418 125.927 52.5007 125.457 56.8253 123.665C61.1499 121.873 64.8458 118.839 67.4456 114.946C70.0453 111.053 71.4321 106.476 71.4304 101.795C71.4218 95.5233 68.9266 89.511 64.4919 85.0764C60.0572 80.6417 54.045 78.1465 47.7734 78.1378Z" fill="#EE722E"/>
<path d="M47.7734 116.899C44.7857 116.901 41.8646 116.016 39.3797 114.358C36.8947 112.699 34.9574 110.341 33.8129 107.581C32.6685 104.821 32.3682 101.784 32.9501 98.8531C33.5319 95.9226 34.9699 93.2305 37.0819 91.1173C39.194 89.0041 41.8853 87.5647 44.8155 86.9812C47.7457 86.3978 50.7831 86.6964 53.5435 87.8394C56.304 88.9824 58.6635 90.9183 60.3235 93.4024C61.9836 95.8865 62.8696 98.8071 62.8696 101.795C62.8675 105.799 61.2765 109.638 58.4462 112.47C55.6158 115.302 51.7773 116.895 47.7734 116.899ZM47.7734 90.0688C45.4543 90.0688 43.1872 90.7565 41.2588 92.045C39.3305 93.3335 37.8275 95.1648 36.94 97.3075C36.0525 99.4501 35.8203 101.808 36.2728 104.082C36.7252 106.357 37.842 108.446 39.4819 110.086C41.1218 111.726 43.2112 112.843 45.4858 113.295C47.7604 113.748 50.1181 113.516 52.2608 112.628C54.4034 111.741 56.2348 110.238 57.5233 108.309C58.8117 106.381 59.4994 104.114 59.4994 101.795C59.4951 98.6862 58.2583 95.7062 56.0602 93.5081C53.8621 91.31 50.882 90.0731 47.7734 90.0688Z" fill="#EE722E"/>
<path d="M73.5542 81.8196C73.3078 81.8199 73.0642 81.7665 72.8405 81.6631C72.6167 81.5597 72.4182 81.4089 72.2586 81.221C69.2615 77.6423 65.5153 74.7653 61.2844 72.793C57.0536 70.8207 52.4414 69.8012 47.7734 69.8066C44.5877 69.7988 41.4193 70.2743 38.3762 71.217C38.1652 71.2832 37.9431 71.3073 37.7228 71.2877C37.5025 71.2681 37.2881 71.2053 37.0921 71.1029C36.896 71.0005 36.722 70.8604 36.5801 70.6908C36.4381 70.5211 36.331 70.3252 36.2647 70.1141C36.1985 69.9031 36.1745 69.681 36.1941 69.4607C36.2137 69.2403 36.2765 69.026 36.3789 68.8299C36.4813 68.6339 36.6213 68.4599 36.791 68.3179C36.9606 68.176 37.1566 68.0688 37.3676 68.0026C40.7358 66.9501 44.2446 66.4164 47.7734 66.42C52.9318 66.4148 58.0285 67.5415 62.7041 69.7206C67.3796 71.8996 71.5201 75.0781 74.8334 79.0316C75.0422 79.2765 75.1763 79.5762 75.2198 79.895C75.2633 80.2139 75.2144 80.5385 75.0788 80.8304C74.9433 81.1222 74.7268 81.3691 74.455 81.5415C74.1833 81.714 73.8679 81.8048 73.546 81.8032L73.5542 81.8196Z" fill="#EE722E"/>
<path d="M117.039 128.83C113.888 128.83 110.807 127.896 108.187 126.145C105.567 124.394 103.525 121.906 102.319 118.995C101.113 116.083 100.798 112.88 101.412 109.789C102.027 106.699 103.545 103.86 105.773 101.632C108.001 99.4034 110.84 97.8859 113.931 97.2712C117.021 96.6564 120.225 96.9719 123.136 98.1778C126.047 99.3837 128.536 101.426 130.286 104.046C132.037 106.666 132.971 109.746 132.971 112.898C132.965 117.121 131.284 121.17 128.298 124.156C125.311 127.143 121.262 128.824 117.039 128.83ZM117.039 100.335C114.554 100.335 112.125 101.072 110.06 102.452C107.994 103.833 106.384 105.795 105.433 108.09C104.482 110.386 104.233 112.912 104.718 115.348C105.203 117.785 106.399 120.024 108.156 121.781C109.913 123.537 112.151 124.734 114.588 125.219C117.025 125.703 119.551 125.455 121.846 124.504C124.142 123.553 126.104 121.943 127.484 119.877C128.864 117.811 129.601 115.382 129.601 112.898C129.599 109.567 128.275 106.372 125.919 104.017C123.564 101.662 120.37 100.337 117.039 100.335Z" fill="#EE722E"/>
<path d="M95.9402 108.511C95.7823 108.509 95.6252 108.487 95.4728 108.445C95.044 108.321 94.6817 108.032 94.4651 107.642C94.2484 107.252 94.1951 106.792 94.3166 106.362C95.742 101.443 98.7235 97.1175 102.814 94.0351C106.905 90.9528 111.884 89.2792 117.006 89.2652C119.787 89.259 122.547 89.7477 125.157 90.7084C125.552 90.8806 125.866 91.1973 126.035 91.5935C126.204 91.9897 126.216 92.4357 126.067 92.84C125.918 93.2444 125.621 93.5766 125.235 93.7687C124.849 93.9609 124.405 93.9984 123.992 93.8736C121.383 92.9201 118.604 92.5138 115.831 92.68C113.057 92.8462 110.347 93.5813 107.87 94.8396C105.393 96.0979 103.201 97.8524 101.431 99.9941C99.6603 102.136 98.3497 104.619 97.5802 107.289C97.4857 107.648 97.272 107.965 96.974 108.187C96.6761 108.409 96.3116 108.523 95.9402 108.511Z" fill="#EE722E"/>
<path d="M117.039 120.54C115.534 120.54 114.063 120.094 112.811 119.258C111.56 118.421 110.584 117.233 110.008 115.842C109.433 114.452 109.282 112.922 109.575 111.446C109.869 109.97 110.594 108.614 111.658 107.55C112.722 106.485 114.078 105.761 115.554 105.467C117.03 105.173 118.56 105.324 119.951 105.9C121.341 106.476 122.53 107.451 123.366 108.703C124.202 109.954 124.648 111.425 124.648 112.93C124.644 114.947 123.841 116.88 122.415 118.306C120.989 119.733 119.056 120.536 117.039 120.54ZM117.039 108.699C116.202 108.699 115.384 108.947 114.688 109.412C113.992 109.877 113.45 110.538 113.13 111.311C112.809 112.084 112.726 112.935 112.889 113.756C113.052 114.577 113.455 115.331 114.047 115.922C114.639 116.514 115.393 116.917 116.213 117.08C117.034 117.244 117.885 117.16 118.658 116.84C119.431 116.519 120.092 115.977 120.557 115.281C121.022 114.585 121.27 113.767 121.27 112.93C121.274 112.372 121.168 111.818 120.957 111.301C120.747 110.784 120.436 110.314 120.042 109.917C119.649 109.521 119.181 109.206 118.666 108.992C118.15 108.777 117.597 108.666 117.039 108.666V108.699Z" fill="#EE722E"/>
<path d="M101.795 110.88C101.579 110.883 101.365 110.844 101.164 110.766L95.9402 108.666H74.1938C73.7458 108.666 73.3162 108.488 72.9994 108.172C72.6826 107.855 72.5046 107.425 72.5046 106.977C72.5046 106.529 72.6826 106.1 72.9994 105.783C73.3162 105.466 73.7458 105.288 74.1938 105.288H96.2436C96.46 105.288 96.6743 105.33 96.875 105.411L102.418 107.633C102.811 107.757 103.144 108.021 103.355 108.374C103.567 108.727 103.641 109.146 103.564 109.55C103.487 109.954 103.265 110.317 102.939 110.568C102.613 110.819 102.206 110.942 101.795 110.913V110.88Z" fill="#EE722E"/>
<path d="M132.069 112.201C131.672 112.198 131.289 112.056 130.986 111.799C130.683 111.542 130.481 111.186 130.415 110.795C130.348 110.403 130.422 110.001 130.622 109.658C130.823 109.315 131.138 109.054 131.512 108.921L132.619 108.535C135.792 107.419 138.402 105.106 139.892 102.09V79.581L88.3716 72.3814C88.0186 72.3395 87.6879 72.1868 87.4271 71.9452C87.1663 71.7035 86.9889 71.3855 86.9202 71.0366L80.6308 38.54H44.2064L37.302 79.8188C37.2125 80.2456 36.9614 80.6211 36.6012 80.867C36.2411 81.1128 35.7999 81.2099 35.3698 81.1379C34.9398 81.0658 34.5542 80.8303 34.2939 80.4805C34.0335 80.1308 33.9185 79.6939 33.9728 79.2612L41.115 36.6212C41.1802 36.2314 41.38 35.8768 41.6797 35.6191C41.9793 35.3614 42.3599 35.2169 42.755 35.2108H82.0002C82.3884 35.2147 82.7633 35.3522 83.062 35.6001C83.3607 35.848 83.5649 36.1912 83.6402 36.572L89.9952 69.249L141.778 76.4896C142.176 76.546 142.54 76.7421 142.806 77.0426C143.072 77.3431 143.222 77.7284 143.23 78.1296V102.5C143.228 102.743 143.175 102.984 143.074 103.205C142.164 105.185 140.866 106.962 139.256 108.43C137.646 109.898 135.757 111.027 133.701 111.75L132.594 112.135C132.424 112.185 132.247 112.207 132.069 112.201Z" fill="#EE722E"/>
<path d="M141.573 86.6494H133.062C132.635 86.6196 132.236 86.4292 131.944 86.1164C131.652 85.8037 131.49 85.392 131.49 84.9643C131.49 84.5367 131.652 84.125 131.944 83.8122C132.236 83.4995 132.635 83.309 133.062 83.2792H141.573C141.804 83.2631 142.036 83.2947 142.255 83.3721C142.473 83.4494 142.674 83.5709 142.843 83.729C143.012 83.887 143.148 84.0783 143.24 84.2908C143.332 84.5033 143.38 84.7326 143.38 84.9643C143.38 85.1961 143.332 85.4253 143.24 85.6378C143.148 85.8504 143.012 86.0416 142.843 86.1996C142.674 86.3577 142.473 86.4792 142.255 86.5566C142.036 86.634 141.804 86.6656 141.573 86.6494Z" fill="#EE722E"/>
<path d="M141.573 95.12H133.062C132.635 95.0902 132.236 94.8998 131.944 94.587C131.652 94.2743 131.49 93.8626 131.49 93.4349C131.49 93.0073 131.652 92.5956 131.944 92.2828C132.236 91.9701 132.635 91.7796 133.062 91.7498H141.573C141.804 91.7337 142.036 91.7653 142.255 91.8427C142.473 91.92 142.674 92.0415 142.843 92.1996C143.012 92.3576 143.148 92.5489 143.24 92.7614C143.332 92.9739 143.38 93.2032 143.38 93.4349C143.38 93.6667 143.332 93.8959 143.24 94.1084C143.148 94.321 143.012 94.5122 142.843 94.6702C142.674 94.8283 142.473 94.9498 142.255 95.0272C142.036 95.1046 141.804 95.1362 141.573 95.12Z" fill="#EE722E"/>
<path d="M78.671 119.392C78.2308 119.394 77.8073 119.224 77.4914 118.917C77.1755 118.61 76.9926 118.192 76.9818 117.752V90.9462C76.9926 90.5061 77.1755 90.0878 77.4914 89.7811C77.8073 89.4745 78.2308 89.3039 78.671 89.3062H88.1994C88.4306 89.2901 88.6626 89.3217 88.8811 89.3991C89.0995 89.4764 89.2997 89.5979 89.4692 89.756C89.6386 89.914 89.7738 90.1053 89.8662 90.3178C89.9586 90.5303 90.0063 90.7596 90.0063 90.9913C90.0063 91.2231 89.9586 91.4523 89.8662 91.6648C89.7738 91.8774 89.6386 92.0686 89.4692 92.2267C89.2997 92.3847 89.0995 92.5062 88.8811 92.5836C88.6626 92.661 88.4306 92.6926 88.1994 92.6764H80.3602V117.752C80.3495 118.192 80.1666 118.61 79.8507 118.917C79.5348 119.224 79.1113 119.394 78.671 119.392Z" fill="#EE722E"/>
<path d="M88.6094 119.392C88.1692 119.394 87.7457 119.224 87.4298 118.917C87.1139 118.61 86.931 118.192 86.9202 117.752V70.7168C86.9041 70.4856 86.9357 70.2536 87.0131 70.0352C87.0905 69.8167 87.212 69.6166 87.37 69.4471C87.5281 69.2776 87.7193 69.1425 87.9318 69.0501C88.1443 68.9577 88.3736 68.91 88.6053 68.91C88.8371 68.91 89.0663 68.9577 89.2789 69.0501C89.4914 69.1425 89.6826 69.2776 89.8407 69.4471C89.9987 69.6166 90.1202 69.8167 90.1976 70.0352C90.275 70.2536 90.3066 70.4856 90.2904 70.7168V117.711C90.2904 118.157 90.1133 118.584 89.7981 118.9C89.4828 119.215 89.0553 119.392 88.6094 119.392Z" fill="#EE722E"/>
<path d="M87.9944 115.882H79.5976C79.1496 115.882 78.72 115.704 78.4032 115.388C78.0864 115.071 77.9084 114.641 77.9084 114.193C77.9084 113.745 78.0864 113.316 78.4032 112.999C78.72 112.682 79.1496 112.504 79.5976 112.504H87.9944C88.4424 112.504 88.8721 112.682 89.1889 112.999C89.5057 113.316 89.6836 113.745 89.6836 114.193C89.6836 114.641 89.5057 115.071 89.1889 115.388C88.8721 115.704 88.4424 115.882 87.9944 115.882Z" fill="#EE722E"/>
<path d="M87.9944 100.86H79.5976C79.3665 100.876 79.1344 100.845 78.916 100.767C78.6976 100.69 78.4974 100.568 78.3279 100.41C78.1584 100.252 78.0233 100.061 77.9309 99.8484C77.8385 99.6359 77.7908 99.4067 77.7908 99.1749C77.7908 98.9432 77.8385 98.7139 77.9309 98.5014C78.0233 98.2889 78.1584 98.0976 78.3279 97.9396C78.4974 97.7815 78.6976 97.66 78.916 97.5827C79.1344 97.5053 79.3665 97.4737 79.5976 97.4898H87.9944C88.2256 97.4737 88.4576 97.5053 88.6761 97.5827C88.8945 97.66 89.0947 97.7815 89.2642 97.9396C89.4336 98.0976 89.5688 98.2889 89.6612 98.5014C89.7536 98.7139 89.8013 98.9432 89.8013 99.1749C89.8013 99.4067 89.7536 99.6359 89.6612 99.8484C89.5688 100.061 89.4336 100.252 89.2642 100.41C89.0947 100.568 88.8945 100.69 88.6761 100.767C88.4576 100.845 88.2256 100.876 87.9944 100.86Z" fill="#EE722E"/>
<path d="M82.0002 44.4194H42.919C42.471 44.4194 42.0414 44.2414 41.7246 43.9247C41.4078 43.6079 41.2298 43.1782 41.2298 42.7302C41.2298 42.2822 41.4078 41.8526 41.7246 41.5358C42.0414 41.219 42.471 41.041 42.919 41.041H82.0002C82.4482 41.041 82.8779 41.219 83.1947 41.5358C83.5115 41.8526 83.6894 42.2822 83.6894 42.7302C83.6894 43.1782 83.5115 43.6079 83.1947 43.9247C82.8779 44.2414 82.4482 44.4194 82.0002 44.4194Z" fill="#EE722E"/>
<path d="M28.0606 103.484H22.4518C22.2207 103.5 21.9886 103.469 21.7702 103.391C21.5518 103.314 21.3516 103.192 21.1821 103.034C21.0126 102.876 20.8775 102.685 20.7851 102.472C20.6927 102.26 20.645 102.031 20.645 101.799C20.645 101.567 20.6927 101.338 20.7851 101.125C20.8775 100.913 21.0126 100.722 21.1821 100.564C21.3516 100.406 21.5518 100.284 21.7702 100.207C21.9886 100.129 22.2207 100.098 22.4518 100.114H28.0606C28.2918 100.098 28.5238 100.129 28.7423 100.207C28.9607 100.284 29.1609 100.406 29.3304 100.564C29.4998 100.722 29.635 100.913 29.7274 101.125C29.8198 101.338 29.8675 101.567 29.8675 101.799C29.8675 102.031 29.8198 102.26 29.7274 102.472C29.635 102.685 29.4998 102.876 29.3304 103.034C29.1609 103.192 28.9607 103.314 28.7423 103.391C28.5238 103.469 28.2918 103.5 28.0606 103.484Z" fill="#EE722E"/>
<path d="M47.7488 83.7548C47.527 83.7548 47.3074 83.7111 47.1024 83.6262C46.8975 83.5413 46.7113 83.4169 46.5544 83.2601C46.3975 83.1032 46.2731 82.917 46.1882 82.712C46.1033 82.5071 46.0596 82.2874 46.0596 82.0656V76.4486C46.0894 76.022 46.2799 75.6226 46.5926 75.3309C46.9054 75.0392 47.3171 74.877 47.7447 74.877C48.1724 74.877 48.5841 75.0392 48.8969 75.3309C49.2096 75.6226 49.4001 76.022 49.4298 76.4486V82.0656C49.4309 82.2871 49.3882 82.5065 49.3042 82.7114C49.2202 82.9163 49.0966 83.1026 48.9404 83.2596C48.7842 83.4165 48.5985 83.5411 48.394 83.6261C48.1895 83.7111 47.9703 83.7548 47.7488 83.7548Z" fill="#EE722E"/>
<path d="M37.8842 86.3952C37.5905 86.398 37.3012 86.3237 37.0451 86.1799C36.789 86.036 36.5751 85.8275 36.4246 85.5752L33.6202 80.688C33.4936 80.4959 33.4076 80.2799 33.3675 80.0534C33.3273 79.8268 33.3338 79.5944 33.3867 79.3705C33.4396 79.1466 33.5376 78.9358 33.6748 78.7511C33.812 78.5664 33.9856 78.4117 34.1847 78.2965C34.3839 78.1812 34.6044 78.1079 34.8329 78.081C35.0615 78.054 35.293 78.074 35.5135 78.1398C35.734 78.2056 35.9388 78.3157 36.1152 78.4634C36.2916 78.6111 36.436 78.7933 36.5394 78.9988L39.3602 83.8696C39.5063 84.1259 39.5827 84.4161 39.5818 84.7111C39.581 85.0062 39.5028 85.2958 39.3552 85.5513C39.2076 85.8067 38.9956 86.019 38.7404 86.1671C38.4852 86.3152 38.1957 86.3938 37.9006 86.3952H37.8842Z" fill="#EE722E"/>
<path d="M30.66 93.6194C30.3713 93.6164 30.0884 93.5372 29.84 93.3898L24.9774 90.5854C24.6175 90.3483 24.3619 89.9825 24.2629 89.563C24.1639 89.1435 24.229 88.702 24.4448 88.3289C24.6607 87.9558 25.0111 87.6794 25.4241 87.5562C25.8371 87.433 26.2817 87.4724 26.6666 87.6662L31.5292 90.4706C31.848 90.6562 32.0972 90.9409 32.2389 91.2813C32.3806 91.6218 32.407 91.9993 32.3141 92.3562C32.2212 92.7131 32.014 93.0297 31.7242 93.2578C31.4344 93.4859 31.078 93.6129 30.7092 93.6194H30.66Z" fill="#EE722E"/>
<path d="M25.7974 116.153C25.4279 116.15 25.0697 116.025 24.7782 115.798C24.4867 115.571 24.2781 115.254 24.1847 114.897C24.0914 114.539 24.1184 114.161 24.2617 113.82C24.405 113.48 24.6566 113.196 24.9774 113.012L29.84 110.2C30.0344 110.091 30.2484 110.021 30.4698 109.994C30.6912 109.967 30.9157 109.985 31.1304 110.045C31.3451 110.105 31.5459 110.207 31.7213 110.345C31.8966 110.482 32.0431 110.653 32.1524 110.848C32.2617 111.042 32.3317 111.256 32.3583 111.477C32.3849 111.699 32.3676 111.923 32.3075 112.138C32.2473 112.353 32.1454 112.553 32.0077 112.729C31.8699 112.904 31.699 113.051 31.5046 113.16L26.642 115.973C26.3817 116.107 26.09 116.169 25.7974 116.153Z" fill="#EE722E"/>
<path d="M35.0716 125.46C34.7725 125.461 34.4785 125.382 34.2198 125.231C33.9611 125.081 33.747 124.865 33.5994 124.604C33.4518 124.344 33.3759 124.049 33.3796 123.75C33.3832 123.451 33.4663 123.158 33.6202 122.902L36.4246 118.08C36.5192 117.864 36.6578 117.671 36.8315 117.512C37.0053 117.353 37.2105 117.232 37.4338 117.157C37.657 117.082 37.8936 117.054 38.1281 117.076C38.3627 117.098 38.5901 117.168 38.7958 117.283C39.0014 117.398 39.1808 117.555 39.3223 117.743C39.4638 117.931 39.5644 118.147 39.6176 118.377C39.6707 118.606 39.6753 118.844 39.631 119.076C39.5867 119.307 39.4944 119.526 39.3602 119.72L36.5476 124.583C36.4032 124.848 36.1899 125.07 35.9301 125.224C35.6704 125.378 35.3738 125.46 35.0716 125.46Z" fill="#EE722E"/>
<path d="M47.7488 128.83C47.527 128.83 47.3074 128.787 47.1024 128.702C46.8975 128.617 46.7113 128.492 46.5544 128.335C46.3975 128.179 46.2731 127.992 46.1882 127.787C46.1033 127.583 46.0596 127.363 46.0596 127.141V121.524C46.0894 121.097 46.2799 120.698 46.5926 120.406C46.9054 120.115 47.3171 119.952 47.7447 119.952C48.1724 119.952 48.5841 120.115 48.8969 120.406C49.2096 120.698 49.4001 121.097 49.4298 121.524V127.141C49.4309 127.362 49.3882 127.582 49.3042 127.787C49.2202 127.992 49.0966 128.178 48.9404 128.335C48.7842 128.492 48.5985 128.616 48.394 128.701C48.1895 128.786 47.9703 128.83 47.7488 128.83Z" fill="#EE722E"/>
<path d="M60.426 125.46C60.1312 125.463 59.8409 125.388 59.5835 125.245C59.3261 125.101 59.1106 124.892 58.9582 124.64L56.1538 119.72C55.9932 119.531 55.8763 119.308 55.8115 119.068C55.7467 118.828 55.7356 118.577 55.779 118.333C55.8223 118.088 55.9191 117.856 56.0623 117.653C56.2056 117.45 56.3918 117.282 56.6078 117.159C56.8237 117.036 57.0641 116.963 57.3117 116.943C57.5593 116.924 57.8082 116.96 58.0405 117.048C58.2727 117.136 58.4828 117.274 58.6556 117.452C58.8284 117.631 58.9597 117.845 59.0402 118.08L61.8446 122.943C61.962 123.133 62.0393 123.345 62.0718 123.565C62.1043 123.786 62.0914 124.012 62.0338 124.227C61.9762 124.443 61.8752 124.645 61.7369 124.82C61.5987 124.995 61.426 125.141 61.2296 125.247C60.9845 125.386 60.7078 125.459 60.426 125.46Z" fill="#EE722E"/>
<path d="M69.7002 116.153C69.4122 116.153 69.1294 116.076 68.8802 115.932L63.9602 113.16C63.6144 112.922 63.37 112.564 63.2749 112.155C63.1799 111.747 63.2412 111.317 63.4467 110.951C63.6522 110.585 63.9871 110.31 64.3856 110.178C64.7841 110.047 65.2174 110.069 65.6002 110.241L70.5202 113.012C70.9051 113.238 71.1855 113.607 71.3006 114.038C71.4157 114.47 71.3563 114.929 71.1352 115.317C70.9922 115.571 70.7837 115.783 70.5315 115.93C70.2792 116.077 69.9922 116.154 69.7002 116.153Z" fill="#EE722E"/>
<path d="M73.095 103.484H67.478C67.2469 103.5 67.0148 103.469 66.7964 103.391C66.578 103.314 66.3778 103.192 66.2083 103.034C66.0388 102.876 65.9037 102.685 65.8113 102.472C65.7189 102.26 65.6712 102.031 65.6712 101.799C65.6712 101.567 65.7189 101.338 65.8113 101.125C65.9037 100.913 66.0388 100.722 66.2083 100.564C66.3778 100.406 66.578 100.284 66.7964 100.207C67.0148 100.129 67.2469 100.098 67.478 100.114H73.095C73.3262 100.098 73.5582 100.129 73.7767 100.207C73.9951 100.284 74.1953 100.406 74.3648 100.564C74.5342 100.722 74.6694 100.913 74.7618 101.125C74.8542 101.338 74.9019 101.567 74.9019 101.799C74.9019 102.031 74.8542 102.26 74.7618 102.472C74.6694 102.685 74.5342 102.876 74.3648 103.034C74.1953 103.192 73.9951 103.314 73.7767 103.391C73.5582 103.469 73.3262 103.5 73.095 103.484Z" fill="#EE722E"/>
<path d="M64.8376 93.6194C64.4689 93.6129 64.1125 93.4859 63.8227 93.2578C63.5329 93.0297 63.3257 92.7131 63.2328 92.3562C63.1398 91.9993 63.1662 91.6218 63.308 91.2813C63.4497 90.9409 63.6989 90.6561 64.0176 90.4706L68.8802 87.6662C69.0726 87.5214 69.2938 87.4193 69.5288 87.3669C69.7639 87.3145 70.0074 87.313 70.2431 87.3625C70.4788 87.4119 70.7012 87.5112 70.8954 87.6536C71.0896 87.796 71.251 87.9784 71.369 88.1883C71.4869 88.3983 71.5586 88.631 71.5793 88.871C71.5999 89.1109 71.569 89.3525 71.4886 89.5795C71.4082 89.8065 71.2802 90.0137 71.1132 90.1872C70.9462 90.3607 70.744 90.4965 70.5202 90.5854L65.6494 93.3898C65.4035 93.5358 65.1236 93.615 64.8376 93.6194Z" fill="#EE722E"/>
<path d="M57.6134 86.3952C57.3247 86.3922 57.0418 86.313 56.7934 86.1656C56.5982 86.0593 56.4266 85.9144 56.289 85.7398C56.1515 85.5651 56.0509 85.3643 55.9934 85.1495C55.9359 84.9348 55.9226 84.7106 55.9544 84.4906C55.9862 84.2705 56.0625 84.0593 56.1784 83.8696L58.9828 78.9988C59.22 78.6389 59.5858 78.3833 60.0053 78.2843C60.4248 78.1852 60.8663 78.2503 61.2394 78.4662C61.6124 78.6821 61.8889 79.0324 62.0121 79.4455C62.1353 79.8585 62.0959 80.303 61.902 80.688L59.0402 85.5506C58.8957 85.8027 58.6883 86.013 58.4382 86.1611C58.1882 86.3091 57.904 86.3898 57.6134 86.3952Z" fill="#EE722E"/>
<path d="M47.7734 128.83C42.4215 128.83 37.1897 127.243 32.7397 124.27C28.2897 121.296 24.8214 117.07 22.7733 112.126C20.7252 107.181 20.1893 101.74 21.2334 96.4911C22.2775 91.2419 24.8547 86.4203 28.6391 82.6359C32.4235 78.8515 37.2452 76.2743 42.4943 75.2302C47.7434 74.1861 53.1843 74.7219 58.1289 76.77C63.0734 78.8181 67.2996 82.2865 70.273 86.7365C73.2464 91.1865 74.8334 96.4183 74.8334 101.77C74.8334 108.947 71.9825 115.83 66.9078 120.905C61.833 125.979 54.9502 128.83 47.7734 128.83ZM47.7734 78.1378C43.0922 78.1362 38.5157 79.523 34.6227 82.1227C30.7297 84.7224 27.6952 88.4184 25.903 92.7429C24.1108 97.0675 23.6415 101.826 24.5544 106.418C25.4672 111.009 27.7213 115.227 31.0314 118.537C34.3416 121.847 38.559 124.101 43.1504 125.014C47.7418 125.927 52.5007 125.457 56.8253 123.665C61.1499 121.873 64.8458 118.839 67.4456 114.946C70.0453 111.053 71.4321 106.476 71.4304 101.795C71.4218 95.5233 68.9266 89.511 64.4919 85.0764C60.0572 80.6417 54.045 78.1465 47.7734 78.1378Z" stroke="#EE722E" stroke-width="0.6"/>
<path d="M47.7734 116.899C44.7857 116.901 41.8646 116.016 39.3797 114.358C36.8947 112.699 34.9574 110.341 33.8129 107.581C32.6685 104.821 32.3682 101.784 32.9501 98.8531C33.5319 95.9226 34.9699 93.2305 37.0819 91.1173C39.194 89.0041 41.8853 87.5647 44.8155 86.9812C47.7457 86.3978 50.7831 86.6964 53.5435 87.8394C56.304 88.9824 58.6635 90.9183 60.3235 93.4024C61.9836 95.8865 62.8696 98.8071 62.8696 101.795C62.8675 105.799 61.2765 109.638 58.4462 112.47C55.6158 115.302 51.7773 116.895 47.7734 116.899ZM47.7734 90.0688C45.4543 90.0688 43.1872 90.7565 41.2588 92.045C39.3305 93.3335 37.8275 95.1648 36.94 97.3075C36.0525 99.4501 35.8203 101.808 36.2728 104.082C36.7252 106.357 37.842 108.446 39.4819 110.086C41.1218 111.726 43.2112 112.843 45.4858 113.295C47.7604 113.748 50.1181 113.516 52.2608 112.628C54.4034 111.741 56.2348 110.238 57.5233 108.309C58.8117 106.381 59.4994 104.114 59.4994 101.795C59.4951 98.6862 58.2583 95.7062 56.0602 93.5081C53.8621 91.31 50.882 90.0731 47.7734 90.0688Z" stroke="#EE722E" stroke-width="0.6"/>
<path d="M73.5542 81.8196C73.3078 81.8199 73.0642 81.7665 72.8405 81.6631C72.6167 81.5597 72.4182 81.4089 72.2586 81.221C69.2615 77.6423 65.5153 74.7653 61.2844 72.793C57.0536 70.8207 52.4414 69.8012 47.7734 69.8066C44.5877 69.7988 41.4193 70.2743 38.3762 71.217C38.1652 71.2832 37.9431 71.3073 37.7228 71.2877C37.5025 71.2681 37.2881 71.2053 37.0921 71.1029C36.896 71.0005 36.722 70.8604 36.5801 70.6908C36.4381 70.5211 36.331 70.3252 36.2647 70.1141C36.1985 69.9031 36.1745 69.681 36.1941 69.4607C36.2137 69.2403 36.2765 69.026 36.3789 68.8299C36.4813 68.6339 36.6213 68.4599 36.791 68.3179C36.9606 68.176 37.1566 68.0688 37.3676 68.0026C40.7358 66.9501 44.2446 66.4164 47.7734 66.42C52.9318 66.4148 58.0285 67.5415 62.7041 69.7206C67.3796 71.8996 71.5201 75.0781 74.8334 79.0316C75.0422 79.2765 75.1763 79.5762 75.2198 79.895C75.2633 80.2139 75.2144 80.5385 75.0788 80.8304C74.9433 81.1222 74.7268 81.3691 74.455 81.5415C74.1833 81.714 73.8679 81.8048 73.546 81.8032L73.5542 81.8196Z" stroke="#EE722E" stroke-width="0.6"/>
<path d="M117.039 128.83C113.888 128.83 110.807 127.896 108.187 126.145C105.567 124.394 103.525 121.906 102.319 118.995C101.113 116.083 100.798 112.88 101.412 109.789C102.027 106.699 103.545 103.86 105.773 101.632C108.001 99.4034 110.84 97.8859 113.931 97.2712C117.021 96.6564 120.225 96.9719 123.136 98.1778C126.047 99.3837 128.536 101.426 130.286 104.046C132.037 106.666 132.971 109.746 132.971 112.898C132.965 117.121 131.284 121.17 128.298 124.156C125.311 127.143 121.262 128.824 117.039 128.83ZM117.039 100.335C114.554 100.335 112.125 101.072 110.06 102.452C107.994 103.833 106.384 105.795 105.433 108.09C104.482 110.386 104.233 112.912 104.718 115.348C105.203 117.785 106.399 120.024 108.156 121.781C109.913 123.537 112.151 124.734 114.588 125.219C117.025 125.703 119.551 125.455 121.846 124.504C124.142 123.553 126.104 121.943 127.484 119.877C128.864 117.811 129.601 115.382 129.601 112.898C129.599 109.567 128.275 106.372 125.919 104.017C123.564 101.662 120.37 100.337 117.039 100.335Z" stroke="#EE722E" stroke-width="0.6"/>
<path d="M95.9402 108.511C95.7823 108.509 95.6252 108.487 95.4728 108.445C95.044 108.321 94.6817 108.032 94.4651 107.642C94.2484 107.252 94.1951 106.792 94.3166 106.362C95.742 101.443 98.7235 97.1175 102.814 94.0351C106.905 90.9528 111.884 89.2792 117.006 89.2652C119.787 89.259 122.547 89.7477 125.157 90.7084C125.552 90.8806 125.866 91.1973 126.035 91.5935C126.204 91.9897 126.216 92.4357 126.067 92.84C125.918 93.2444 125.621 93.5766 125.235 93.7687C124.849 93.9609 124.405 93.9984 123.992 93.8736C121.383 92.9201 118.604 92.5138 115.831 92.68C113.057 92.8462 110.347 93.5813 107.87 94.8396C105.393 96.0979 103.201 97.8524 101.431 99.9941C99.6603 102.136 98.3497 104.619 97.5802 107.289C97.4857 107.648 97.272 107.965 96.974 108.187C96.6761 108.409 96.3116 108.523 95.9402 108.511Z" stroke="#EE722E" stroke-width="0.6"/>
<path d="M117.039 120.54C115.534 120.54 114.063 120.094 112.811 119.258C111.56 118.421 110.584 117.233 110.008 115.842C109.433 114.452 109.282 112.922 109.575 111.446C109.869 109.97 110.594 108.614 111.658 107.55C112.722 106.485 114.078 105.761 115.554 105.467C117.03 105.173 118.56 105.324 119.951 105.9C121.341 106.476 122.53 107.451 123.366 108.703C124.202 109.954 124.648 111.425 124.648 112.93C124.644 114.947 123.841 116.88 122.415 118.306C120.989 119.733 119.056 120.536 117.039 120.54ZM117.039 108.699C116.202 108.699 115.384 108.947 114.688 109.412C113.992 109.877 113.45 110.538 113.13 111.311C112.809 112.084 112.726 112.935 112.889 113.756C113.052 114.577 113.455 115.331 114.047 115.922C114.639 116.514 115.393 116.917 116.213 117.08C117.034 117.244 117.885 117.16 118.658 116.84C119.431 116.519 120.092 115.977 120.557 115.281C121.022 114.585 121.27 113.767 121.27 112.93C121.274 112.372 121.168 111.818 120.957 111.301C120.747 110.784 120.436 110.314 120.042 109.917C119.649 109.521 119.181 109.206 118.666 108.992C118.15 108.777 117.597 108.666 117.039 108.666V108.699Z" stroke="#EE722E" stroke-width="0.6"/>
<path d="M101.795 110.88C101.579 110.883 101.365 110.844 101.164 110.766L95.9402 108.666H74.1938C73.7458 108.666 73.3162 108.488 72.9994 108.172C72.6826 107.855 72.5046 107.425 72.5046 106.977C72.5046 106.529 72.6826 106.1 72.9994 105.783C73.3162 105.466 73.7458 105.288 74.1938 105.288H96.2436C96.46 105.288 96.6743 105.33 96.875 105.411L102.418 107.633C102.811 107.757 103.144 108.021 103.355 108.374C103.567 108.727 103.641 109.146 103.564 109.55C103.487 109.954 103.265 110.317 102.939 110.568C102.613 110.819 102.206 110.942 101.795 110.913V110.88Z" stroke="#EE722E" stroke-width="0.6"/>
<path d="M132.069 112.201C131.672 112.198 131.289 112.056 130.986 111.799C130.683 111.542 130.481 111.186 130.415 110.795C130.348 110.403 130.422 110.001 130.622 109.658C130.823 109.315 131.138 109.054 131.512 108.921L132.619 108.535C135.792 107.419 138.402 105.106 139.892 102.09V79.581L88.3716 72.3814C88.0186 72.3395 87.6879 72.1868 87.4271 71.9452C87.1663 71.7035 86.9889 71.3855 86.9202 71.0366L80.6308 38.54H44.2064L37.302 79.8188C37.2125 80.2456 36.9614 80.6211 36.6012 80.867C36.2411 81.1128 35.7999 81.2099 35.3698 81.1379C34.9398 81.0658 34.5542 80.8303 34.2939 80.4805C34.0335 80.1308 33.9185 79.6939 33.9728 79.2612L41.115 36.6212C41.1802 36.2314 41.38 35.8768 41.6797 35.6191C41.9793 35.3614 42.3599 35.2169 42.755 35.2108H82.0002C82.3884 35.2147 82.7633 35.3522 83.062 35.6001C83.3607 35.848 83.5649 36.1912 83.6402 36.572L89.9952 69.249L141.778 76.4896C142.176 76.546 142.54 76.7421 142.806 77.0426C143.072 77.3431 143.222 77.7284 143.23 78.1296V102.5C143.228 102.743 143.175 102.984 143.074 103.205C142.164 105.185 140.866 106.962 139.256 108.43C137.646 109.898 135.757 111.027 133.701 111.75L132.594 112.135C132.424 112.185 132.247 112.207 132.069 112.201Z" stroke="#EE722E" stroke-width="0.6"/>
<path d="M141.573 86.6494H133.062C132.635 86.6196 132.236 86.4292 131.944 86.1164C131.652 85.8037 131.49 85.392 131.49 84.9643C131.49 84.5367 131.652 84.125 131.944 83.8122C132.236 83.4995 132.635 83.309 133.062 83.2792H141.573C141.804 83.2631 142.036 83.2947 142.255 83.3721C142.473 83.4494 142.674 83.5709 142.843 83.729C143.012 83.887 143.148 84.0783 143.24 84.2908C143.332 84.5033 143.38 84.7326 143.38 84.9643C143.38 85.1961 143.332 85.4253 143.24 85.6378C143.148 85.8504 143.012 86.0416 142.843 86.1996C142.674 86.3577 142.473 86.4792 142.255 86.5566C142.036 86.634 141.804 86.6656 141.573 86.6494Z" stroke="#EE722E" stroke-width="0.6"/>
<path d="M141.573 95.12H133.062C132.635 95.0902 132.236 94.8998 131.944 94.587C131.652 94.2743 131.49 93.8626 131.49 93.4349C131.49 93.0073 131.652 92.5956 131.944 92.2828C132.236 91.9701 132.635 91.7796 133.062 91.7498H141.573C141.804 91.7337 142.036 91.7653 142.255 91.8427C142.473 91.92 142.674 92.0415 142.843 92.1996C143.012 92.3576 143.148 92.5489 143.24 92.7614C143.332 92.9739 143.38 93.2032 143.38 93.4349C143.38 93.6667 143.332 93.8959 143.24 94.1084C143.148 94.321 143.012 94.5122 142.843 94.6702C142.674 94.8283 142.473 94.9498 142.255 95.0272C142.036 95.1046 141.804 95.1362 141.573 95.12Z" stroke="#EE722E" stroke-width="0.6"/>
<path d="M78.671 119.392C78.2308 119.394 77.8073 119.224 77.4914 118.917C77.1755 118.61 76.9926 118.192 76.9818 117.752V90.9462C76.9926 90.5061 77.1755 90.0878 77.4914 89.7811C77.8073 89.4745 78.2308 89.3039 78.671 89.3062H88.1994C88.4306 89.2901 88.6626 89.3217 88.8811 89.3991C89.0995 89.4764 89.2997 89.5979 89.4692 89.756C89.6386 89.914 89.7738 90.1053 89.8662 90.3178C89.9586 90.5303 90.0063 90.7596 90.0063 90.9913C90.0063 91.2231 89.9586 91.4523 89.8662 91.6648C89.7738 91.8774 89.6386 92.0686 89.4692 92.2267C89.2997 92.3847 89.0995 92.5062 88.8811 92.5836C88.6626 92.661 88.4306 92.6926 88.1994 92.6764H80.3602V117.752C80.3495 118.192 80.1666 118.61 79.8507 118.917C79.5348 119.224 79.1113 119.394 78.671 119.392Z" stroke="#EE722E" stroke-width="0.6"/>
<path d="M88.6094 119.392C88.1692 119.394 87.7457 119.224 87.4298 118.917C87.1139 118.61 86.931 118.192 86.9202 117.752V70.7168C86.9041 70.4856 86.9357 70.2536 87.0131 70.0352C87.0905 69.8167 87.212 69.6166 87.37 69.4471C87.5281 69.2776 87.7193 69.1425 87.9318 69.0501C88.1443 68.9577 88.3736 68.91 88.6053 68.91C88.8371 68.91 89.0663 68.9577 89.2789 69.0501C89.4914 69.1425 89.6826 69.2776 89.8407 69.4471C89.9987 69.6166 90.1202 69.8167 90.1976 70.0352C90.275 70.2536 90.3066 70.4856 90.2904 70.7168V117.711C90.2904 118.157 90.1133 118.584 89.7981 118.9C89.4828 119.215 89.0553 119.392 88.6094 119.392Z" stroke="#EE722E" stroke-width="0.6"/>
<path d="M87.9944 115.882H79.5976C79.1496 115.882 78.72 115.704 78.4032 115.388C78.0864 115.071 77.9084 114.641 77.9084 114.193C77.9084 113.745 78.0864 113.316 78.4032 112.999C78.72 112.682 79.1496 112.504 79.5976 112.504H87.9944C88.4424 112.504 88.8721 112.682 89.1889 112.999C89.5057 113.316 89.6836 113.745 89.6836 114.193C89.6836 114.641 89.5057 115.071 89.1889 115.388C88.8721 115.704 88.4424 115.882 87.9944 115.882Z" stroke="#EE722E" stroke-width="0.6"/>
<path d="M87.9944 100.86H79.5976C79.3665 100.876 79.1344 100.845 78.916 100.767C78.6976 100.69 78.4974 100.568 78.3279 100.41C78.1584 100.252 78.0233 100.061 77.9309 99.8484C77.8385 99.6359 77.7908 99.4067 77.7908 99.1749C77.7908 98.9432 77.8385 98.7139 77.9309 98.5014C78.0233 98.2889 78.1584 98.0976 78.3279 97.9396C78.4974 97.7815 78.6976 97.66 78.916 97.5827C79.1344 97.5053 79.3665 97.4737 79.5976 97.4898H87.9944C88.2256 97.4737 88.4576 97.5053 88.6761 97.5827C88.8945 97.66 89.0947 97.7815 89.2642 97.9396C89.4336 98.0976 89.5688 98.2889 89.6612 98.5014C89.7536 98.7139 89.8013 98.9432 89.8013 99.1749C89.8013 99.4067 89.7536 99.6359 89.6612 99.8484C89.5688 100.061 89.4336 100.252 89.2642 100.41C89.0947 100.568 88.8945 100.69 88.6761 100.767C88.4576 100.845 88.2256 100.876 87.9944 100.86Z" stroke="#EE722E" stroke-width="0.6"/>
<path d="M82.0002 44.4194H42.919C42.471 44.4194 42.0414 44.2414 41.7246 43.9247C41.4078 43.6079 41.2298 43.1782 41.2298 42.7302C41.2298 42.2822 41.4078 41.8526 41.7246 41.5358C42.0414 41.219 42.471 41.041 42.919 41.041H82.0002C82.4482 41.041 82.8779 41.219 83.1947 41.5358C83.5115 41.8526 83.6894 42.2822 83.6894 42.7302C83.6894 43.1782 83.5115 43.6079 83.1947 43.9247C82.8779 44.2414 82.4482 44.4194 82.0002 44.4194Z" stroke="#EE722E" stroke-width="0.6"/>
<path d="M28.0606 103.484H22.4518C22.2207 103.5 21.9886 103.469 21.7702 103.391C21.5518 103.314 21.3516 103.192 21.1821 103.034C21.0126 102.876 20.8775 102.685 20.7851 102.472C20.6927 102.26 20.645 102.031 20.645 101.799C20.645 101.567 20.6927 101.338 20.7851 101.125C20.8775 100.913 21.0126 100.722 21.1821 100.564C21.3516 100.406 21.5518 100.284 21.7702 100.207C21.9886 100.129 22.2207 100.098 22.4518 100.114H28.0606C28.2918 100.098 28.5238 100.129 28.7423 100.207C28.9607 100.284 29.1609 100.406 29.3304 100.564C29.4998 100.722 29.635 100.913 29.7274 101.125C29.8198 101.338 29.8675 101.567 29.8675 101.799C29.8675 102.031 29.8198 102.26 29.7274 102.472C29.635 102.685 29.4998 102.876 29.3304 103.034C29.1609 103.192 28.9607 103.314 28.7423 103.391C28.5238 103.469 28.2918 103.5 28.0606 103.484Z" stroke="#EE722E" stroke-width="0.6"/>
<path d="M47.7488 83.7548C47.527 83.7548 47.3074 83.7111 47.1024 83.6262C46.8975 83.5413 46.7113 83.4169 46.5544 83.2601C46.3975 83.1032 46.2731 82.917 46.1882 82.712C46.1033 82.5071 46.0596 82.2874 46.0596 82.0656V76.4486C46.0894 76.022 46.2799 75.6226 46.5926 75.3309C46.9054 75.0392 47.3171 74.877 47.7447 74.877C48.1724 74.877 48.5841 75.0392 48.8969 75.3309C49.2096 75.6226 49.4001 76.022 49.4298 76.4486V82.0656C49.4309 82.2871 49.3882 82.5065 49.3042 82.7114C49.2202 82.9163 49.0966 83.1026 48.9404 83.2596C48.7842 83.4165 48.5985 83.5411 48.394 83.6261C48.1895 83.7111 47.9703 83.7548 47.7488 83.7548Z" stroke="#EE722E" stroke-width="0.6"/>
<path d="M37.8842 86.3952C37.5905 86.398 37.3012 86.3237 37.0451 86.1799C36.789 86.036 36.5751 85.8275 36.4246 85.5752L33.6202 80.688C33.4936 80.4959 33.4076 80.2799 33.3675 80.0534C33.3273 79.8268 33.3338 79.5944 33.3867 79.3705C33.4396 79.1466 33.5376 78.9358 33.6748 78.7511C33.812 78.5664 33.9856 78.4117 34.1847 78.2965C34.3839 78.1812 34.6044 78.1079 34.8329 78.081C35.0615 78.054 35.293 78.074 35.5135 78.1398C35.734 78.2056 35.9388 78.3157 36.1152 78.4634C36.2916 78.6111 36.436 78.7933 36.5394 78.9988L39.3602 83.8696C39.5063 84.1259 39.5827 84.4161 39.5818 84.7111C39.581 85.0062 39.5028 85.2958 39.3552 85.5513C39.2076 85.8067 38.9956 86.019 38.7404 86.1671C38.4852 86.3152 38.1957 86.3938 37.9006 86.3952H37.8842Z" stroke="#EE722E" stroke-width="0.6"/>
<path d="M30.66 93.6194C30.3713 93.6164 30.0884 93.5372 29.84 93.3898L24.9774 90.5854C24.6175 90.3483 24.3619 89.9825 24.2629 89.563C24.1639 89.1435 24.229 88.702 24.4448 88.3289C24.6607 87.9558 25.0111 87.6794 25.4241 87.5562C25.8371 87.433 26.2817 87.4724 26.6666 87.6662L31.5292 90.4706C31.848 90.6562 32.0972 90.9409 32.2389 91.2813C32.3806 91.6218 32.407 91.9993 32.3141 92.3562C32.2212 92.7131 32.014 93.0297 31.7242 93.2578C31.4344 93.4859 31.078 93.6129 30.7092 93.6194H30.66Z" stroke="#EE722E" stroke-width="0.6"/>
<path d="M25.7974 116.153C25.4279 116.15 25.0697 116.025 24.7782 115.798C24.4867 115.571 24.2781 115.254 24.1847 114.897C24.0914 114.539 24.1184 114.161 24.2617 113.82C24.405 113.48 24.6566 113.196 24.9774 113.012L29.84 110.2C30.0344 110.091 30.2484 110.021 30.4698 109.994C30.6912 109.967 30.9157 109.985 31.1304 110.045C31.3451 110.105 31.5459 110.207 31.7213 110.345C31.8966 110.482 32.0431 110.653 32.1524 110.848C32.2617 111.042 32.3317 111.256 32.3583 111.477C32.3849 111.699 32.3676 111.923 32.3075 112.138C32.2473 112.353 32.1454 112.553 32.0077 112.729C31.8699 112.904 31.699 113.051 31.5046 113.16L26.642 115.973C26.3817 116.107 26.09 116.169 25.7974 116.153Z" stroke="#EE722E" stroke-width="0.6"/>
<path d="M35.0716 125.46C34.7725 125.461 34.4785 125.382 34.2198 125.231C33.9611 125.081 33.747 124.865 33.5994 124.604C33.4518 124.344 33.3759 124.049 33.3796 123.75C33.3832 123.451 33.4663 123.158 33.6202 122.902L36.4246 118.08C36.5192 117.864 36.6578 117.671 36.8315 117.512C37.0053 117.353 37.2105 117.232 37.4338 117.157C37.657 117.082 37.8936 117.054 38.1281 117.076C38.3627 117.098 38.5901 117.168 38.7958 117.283C39.0014 117.398 39.1808 117.555 39.3223 117.743C39.4638 117.931 39.5644 118.147 39.6176 118.377C39.6707 118.606 39.6753 118.844 39.631 119.076C39.5867 119.307 39.4944 119.526 39.3602 119.72L36.5476 124.583C36.4032 124.848 36.1899 125.07 35.9301 125.224C35.6704 125.378 35.3738 125.46 35.0716 125.46Z" stroke="#EE722E" stroke-width="0.6"/>
<path d="M47.7488 128.83C47.527 128.83 47.3074 128.787 47.1024 128.702C46.8975 128.617 46.7113 128.492 46.5544 128.335C46.3975 128.179 46.2731 127.992 46.1882 127.787C46.1033 127.583 46.0596 127.363 46.0596 127.141V121.524C46.0894 121.097 46.2799 120.698 46.5926 120.406C46.9054 120.115 47.3171 119.952 47.7447 119.952C48.1724 119.952 48.5841 120.115 48.8969 120.406C49.2096 120.698 49.4001 121.097 49.4298 121.524V127.141C49.4309 127.362 49.3882 127.582 49.3042 127.787C49.2202 127.992 49.0966 128.178 48.9404 128.335C48.7842 128.492 48.5985 128.616 48.394 128.701C48.1895 128.786 47.9703 128.83 47.7488 128.83Z" stroke="#EE722E" stroke-width="0.6"/>
<path d="M60.426 125.46C60.1312 125.463 59.8409 125.388 59.5835 125.245C59.3261 125.101 59.1106 124.892 58.9582 124.64L56.1538 119.72C55.9932 119.531 55.8763 119.308 55.8115 119.068C55.7467 118.828 55.7356 118.577 55.779 118.333C55.8223 118.088 55.9191 117.856 56.0623 117.653C56.2056 117.45 56.3918 117.282 56.6078 117.159C56.8237 117.036 57.0641 116.963 57.3117 116.943C57.5593 116.924 57.8082 116.96 58.0405 117.048C58.2727 117.136 58.4828 117.274 58.6556 117.452C58.8284 117.631 58.9597 117.845 59.0402 118.08L61.8446 122.943C61.962 123.133 62.0393 123.345 62.0718 123.565C62.1043 123.786 62.0914 124.012 62.0338 124.227C61.9762 124.443 61.8752 124.645 61.7369 124.82C61.5987 124.995 61.426 125.141 61.2296 125.247C60.9845 125.386 60.7078 125.459 60.426 125.46Z" stroke="#EE722E" stroke-width="0.6"/>
<path d="M69.7002 116.153C69.4122 116.153 69.1294 116.076 68.8802 115.932L63.9602 113.16C63.6144 112.922 63.37 112.564 63.2749 112.155C63.1799 111.747 63.2412 111.317 63.4467 110.951C63.6522 110.585 63.9871 110.31 64.3856 110.178C64.7841 110.047 65.2174 110.069 65.6002 110.241L70.5202 113.012C70.9051 113.238 71.1855 113.607 71.3006 114.038C71.4157 114.47 71.3563 114.929 71.1352 115.317C70.9922 115.571 70.7837 115.783 70.5315 115.93C70.2792 116.077 69.9922 116.154 69.7002 116.153Z" stroke="#EE722E" stroke-width="0.6"/>
<path d="M73.095 103.484H67.478C67.2469 103.5 67.0148 103.469 66.7964 103.391C66.578 103.314 66.3778 103.192 66.2083 103.034C66.0388 102.876 65.9037 102.685 65.8113 102.472C65.7189 102.26 65.6712 102.031 65.6712 101.799C65.6712 101.567 65.7189 101.338 65.8113 101.125C65.9037 100.913 66.0388 100.722 66.2083 100.564C66.3778 100.406 66.578 100.284 66.7964 100.207C67.0148 100.129 67.2469 100.098 67.478 100.114H73.095C73.3262 100.098 73.5582 100.129 73.7767 100.207C73.9951 100.284 74.1953 100.406 74.3648 100.564C74.5342 100.722 74.6694 100.913 74.7618 101.125C74.8542 101.338 74.9019 101.567 74.9019 101.799C74.9019 102.031 74.8542 102.26 74.7618 102.472C74.6694 102.685 74.5342 102.876 74.3648 103.034C74.1953 103.192 73.9951 103.314 73.7767 103.391C73.5582 103.469 73.3262 103.5 73.095 103.484Z" stroke="#EE722E" stroke-width="0.6"/>
<path d="M64.8376 93.6194C64.4689 93.6129 64.1125 93.4859 63.8227 93.2578C63.5329 93.0297 63.3257 92.7131 63.2328 92.3562C63.1398 91.9993 63.1662 91.6218 63.308 91.2813C63.4497 90.9409 63.6989 90.6561 64.0176 90.4706L68.8802 87.6662C69.0726 87.5214 69.2938 87.4193 69.5288 87.3669C69.7639 87.3145 70.0074 87.313 70.2431 87.3625C70.4788 87.4119 70.7012 87.5112 70.8954 87.6536C71.0896 87.796 71.251 87.9784 71.369 88.1883C71.4869 88.3983 71.5586 88.631 71.5793 88.871C71.5999 89.1109 71.569 89.3525 71.4886 89.5795C71.4082 89.8065 71.2802 90.0137 71.1132 90.1872C70.9462 90.3607 70.744 90.4965 70.5202 90.5854L65.6494 93.3898C65.4035 93.5358 65.1236 93.615 64.8376 93.6194Z" stroke="#EE722E" stroke-width="0.6"/>
<path d="M57.6134 86.3952C57.3247 86.3922 57.0418 86.313 56.7934 86.1656C56.5982 86.0593 56.4266 85.9144 56.289 85.7398C56.1515 85.5651 56.0509 85.3643 55.9934 85.1495C55.9359 84.9348 55.9226 84.7106 55.9544 84.4906C55.9862 84.2705 56.0625 84.0593 56.1784 83.8696L58.9828 78.9988C59.22 78.6389 59.5858 78.3833 60.0053 78.2843C60.4248 78.1852 60.8663 78.2503 61.2394 78.4662C61.6124 78.6821 61.8889 79.0324 62.0121 79.4455C62.1353 79.8585 62.0959 80.303 61.902 80.688L59.0402 85.5506C58.8957 85.8027 58.6883 86.013 58.4382 86.1611C58.1882 86.3091 57.904 86.3898 57.6134 86.3952Z" stroke="#EE722E" stroke-width="0.6"/>
</svg>
