<svg width="164" height="164" viewBox="0 0 164 164" fill="none" xmlns="http://www.w3.org/2000/svg">
<path d="M109.109 76.26C108.674 76.26 108.257 76.0872 107.95 75.7796C107.642 75.4721 107.469 75.0549 107.469 74.62V59.04H99.22C98.785 59.04 98.3679 58.8672 98.0603 58.5596C97.7527 58.2521 97.58 57.8349 97.58 57.4V49.2H66.42V57.4C66.42 57.8349 66.2472 58.2521 65.9396 58.5596C65.6321 58.8672 65.2149 59.04 64.78 59.04H56.58V74.62C56.58 75.0549 56.4072 75.4721 56.0996 75.7796C55.7921 76.0872 55.3749 76.26 54.94 76.26C54.505 76.26 54.0879 76.0872 53.7803 75.7796C53.4727 75.4721 53.3 75.0549 53.3 74.62V57.4C53.3 56.965 53.4727 56.5479 53.7803 56.2403C54.0879 55.9328 54.505 55.76 54.94 55.76H63.14V47.56C63.14 47.125 63.3127 46.7079 63.6203 46.4003C63.9279 46.0928 64.345 45.92 64.78 45.92H99.22C99.6549 45.92 100.072 46.0928 100.38 46.4003C100.687 46.7079 100.86 47.125 100.86 47.56V55.76H109.06C109.495 55.76 109.912 55.9328 110.22 56.2403C110.527 56.5479 110.7 56.965 110.7 57.4V74.62C110.7 75.0465 110.534 75.4564 110.237 75.7626C109.94 76.0688 109.536 76.2472 109.109 76.26Z" fill="#EE722E"/>
<path d="M91.84 49.1344C91.405 49.1344 90.9879 48.9616 90.6803 48.654C90.3727 48.3465 90.2 47.9293 90.2 47.4944V36.8344H73.8V47.4944C73.8 47.9293 73.6272 48.3465 73.3196 48.654C73.0121 48.9616 72.5949 49.1344 72.16 49.1344C71.725 49.1344 71.3079 48.9616 71.0003 48.654C70.6927 48.3465 70.52 47.9293 70.52 47.4944V35.1944C70.52 34.7594 70.6927 34.3423 71.0003 34.0347C71.3079 33.7272 71.725 33.5544 72.16 33.5544H91.84C92.2749 33.5544 92.6921 33.7272 92.9996 34.0347C93.3072 34.3423 93.48 34.7594 93.48 35.1944V47.4944C93.48 47.9293 93.3072 48.3465 92.9996 48.654C92.6921 48.9616 92.2749 49.1344 91.84 49.1344Z" fill="#EE722E"/>
<path d="M52.4226 113.217C52.1236 113.217 51.8304 113.136 51.5746 112.981C51.3188 112.826 51.1102 112.605 50.9712 112.34C50.5448 111.52 40.4834 92.2746 38.5072 83.9844C38.4256 83.6458 38.454 83.29 38.5881 82.9686C38.7223 82.6473 38.9553 82.3769 39.2534 82.1968C40.3276 81.549 65.805 66.1822 81.6966 63.1974C81.8967 63.1563 82.1032 63.1563 82.3034 63.1974C98.195 66.1822 123.672 81.549 124.747 82.1968C125.045 82.3769 125.278 82.6473 125.412 82.9686C125.546 83.29 125.574 83.6458 125.493 83.9844C123.517 92.2746 113.455 111.52 113.029 112.34C112.821 112.714 112.474 112.992 112.064 113.115C111.654 113.237 111.212 113.194 110.832 112.995C110.453 112.796 110.167 112.456 110.035 112.049C109.903 111.641 109.936 111.199 110.126 110.815C110.224 110.626 119.507 92.865 121.991 84.378C117.014 81.4506 95.5628 69.1506 82 66.4774C68.4372 69.1506 46.986 81.4506 42.0086 84.378C44.4686 92.865 53.7756 110.618 53.874 110.815C54.0761 111.2 54.1171 111.649 53.9879 112.064C53.8588 112.48 53.57 112.826 53.1852 113.029C52.9507 113.154 52.6885 113.219 52.4226 113.217Z" fill="#EE722E"/>
<path d="M25.3134 117.26C24.9583 117.263 24.612 117.15 24.3264 116.939C24.0409 116.728 23.8315 116.43 23.7298 116.09C23.6281 115.75 23.6396 115.385 23.7625 115.052C23.8854 114.719 24.1131 114.435 24.4114 114.242L33.6692 108.191C34.9722 107.332 36.5185 106.918 38.0765 107.011C39.6345 107.104 41.1205 107.699 42.312 108.707L45.7642 111.61C46.4311 112.169 47.2621 112.494 48.1309 112.537C48.9998 112.58 49.8588 112.338 50.5776 111.848L55.76 108.24C57.0373 107.356 58.5655 106.908 60.1179 106.961C61.6704 107.014 63.1643 107.566 64.3782 108.535L68.3306 111.659C69.0101 112.196 69.8457 112.496 70.7112 112.516C71.5767 112.535 72.4249 112.272 73.1276 111.766L77.9 108.338C79.1522 107.427 80.6643 106.942 82.213 106.955C83.7618 106.969 85.2653 107.479 86.5018 108.412L90.9462 111.692C91.6384 112.211 92.4799 112.491 93.3447 112.491C94.2094 112.491 95.0509 112.211 95.7432 111.692L99.9908 108.412C101.221 107.469 102.721 106.945 104.27 106.917C105.82 106.889 107.338 107.359 108.601 108.256L113.521 111.741C114.23 112.24 115.083 112.494 115.949 112.466C116.816 112.437 117.65 112.129 118.326 111.586L122.082 108.543C123.287 107.56 124.778 106.992 126.332 106.924C127.886 106.856 129.421 107.292 130.708 108.166L139.638 114.185C139.826 114.301 139.988 114.454 140.115 114.635C140.243 114.816 140.332 115.02 140.378 115.236C140.424 115.452 140.426 115.676 140.384 115.892C140.342 116.109 140.256 116.316 140.133 116.499C140.009 116.682 139.849 116.838 139.664 116.957C139.478 117.077 139.27 117.158 139.052 117.196C138.834 117.233 138.611 117.226 138.396 117.175C138.181 117.124 137.979 117.03 137.801 116.899L128.879 110.889C128.174 110.408 127.332 110.169 126.48 110.206C125.627 110.243 124.809 110.554 124.148 111.094L120.392 114.136C119.161 115.13 117.638 115.695 116.056 115.745C114.474 115.795 112.919 115.328 111.627 114.415L106.707 110.938C106.016 110.443 105.185 110.184 104.335 110.199C103.486 110.213 102.664 110.501 101.992 111.02L97.744 114.3C96.4855 115.253 94.9521 115.773 93.3734 115.782C91.7946 115.791 90.2555 115.288 88.9864 114.349L84.5502 111.028C83.868 110.523 83.0416 110.25 82.1927 110.25C81.3438 110.25 80.5173 110.523 79.8352 111.028L75.1038 114.456C73.8189 115.377 72.27 115.856 70.6894 115.822C69.1089 115.788 67.582 115.243 66.338 114.267L62.3938 111.143C61.7286 110.611 60.9101 110.309 60.0593 110.279C59.2086 110.25 58.3709 110.495 57.6706 110.979L52.48 114.513C51.1697 115.409 49.6026 115.852 48.0172 115.775C46.4319 115.698 44.9151 115.105 43.6978 114.087L40.18 111.192C39.5271 110.638 38.7124 110.311 37.8579 110.259C37.0035 110.208 36.1553 110.434 35.4404 110.905L26.24 116.957C25.969 117.149 25.6458 117.255 25.3134 117.26Z" fill="#EE722E"/>
<path d="M25.3134 130.47C24.9607 130.47 24.6174 130.356 24.3345 130.146C24.0516 129.935 23.8441 129.639 23.7428 129.301C23.6416 128.963 23.6519 128.602 23.7723 128.27C23.8928 127.939 24.1169 127.655 24.4114 127.461L33.6692 121.401C34.9731 120.543 36.5199 120.13 38.0779 120.225C39.6359 120.32 41.1214 120.916 42.312 121.926L45.7642 124.82C46.4311 125.379 47.2621 125.704 48.1309 125.747C48.9998 125.79 49.8588 125.548 50.5776 125.058L55.76 121.491C57.0364 120.606 58.5642 120.156 60.1166 120.208C61.669 120.26 63.1634 120.81 64.3782 121.778L68.3306 124.902C69.0101 125.439 69.8457 125.739 70.7112 125.759C71.5767 125.778 72.4249 125.515 73.1276 125.009L77.9 121.59C79.1514 120.677 80.6629 120.191 82.2117 120.203C83.7605 120.214 85.2644 120.724 86.5018 121.655L90.9462 124.935C91.6384 125.454 92.4799 125.734 93.3447 125.734C94.2094 125.734 95.051 125.454 95.7432 124.935L99.9908 121.655C101.22 120.71 102.72 120.184 104.27 120.156C105.82 120.128 107.338 120.599 108.601 121.499L113.521 124.976C114.229 125.478 115.081 125.735 115.948 125.709C116.815 125.682 117.65 125.373 118.326 124.829L122.082 121.786C123.287 120.803 124.777 120.234 126.331 120.165C127.885 120.096 129.42 120.529 130.708 121.401L139.638 127.42C139.999 127.663 140.248 128.04 140.331 128.468C140.414 128.895 140.324 129.338 140.081 129.699C139.837 130.06 139.46 130.31 139.032 130.393C138.605 130.476 138.162 130.386 137.801 130.142L128.879 124.123C128.173 123.646 127.331 123.408 126.478 123.447C125.626 123.485 124.809 123.797 124.148 124.337L120.392 127.379C119.159 128.369 117.637 128.931 116.056 128.982C114.475 129.032 112.921 128.567 111.627 127.658L106.707 124.173C106.015 123.68 105.183 123.423 104.334 123.439C103.485 123.456 102.664 123.744 101.992 124.263L97.744 127.543C96.4871 128.5 94.9531 129.022 93.3734 129.031C91.7937 129.04 90.2539 128.535 88.9864 127.592L84.5502 124.271C83.867 123.768 83.0409 123.497 82.1927 123.497C81.3444 123.497 80.5183 123.768 79.8352 124.271L75.1038 127.69C73.8195 128.613 72.2703 129.093 70.6894 129.059C69.1085 129.025 67.5814 128.479 66.338 127.502L62.3938 124.378C61.7286 123.846 60.9101 123.543 60.0593 123.514C59.2086 123.484 58.3709 123.73 57.6706 124.214L52.48 127.764C51.1692 128.659 49.6024 129.101 48.0173 129.024C46.4323 128.947 44.9157 128.355 43.6978 127.338L40.18 124.435C39.5277 123.88 38.7128 123.552 37.8581 123.5C37.0033 123.449 36.1548 123.676 35.4404 124.148L26.24 130.2C25.9652 130.381 25.6424 130.475 25.3134 130.47Z" fill="#EE722E"/>
<path d="M82 103.361C81.565 103.361 81.1479 103.188 80.8403 102.881C80.5327 102.573 80.36 102.156 80.36 101.721V64.78C80.36 64.345 80.5327 63.9279 80.8403 63.6203C81.1479 63.3128 81.565 63.14 82 63.14C82.4349 63.14 82.8521 63.3128 83.1596 63.6203C83.4672 63.9279 83.64 64.345 83.64 64.78V101.754C83.6314 102.183 83.4548 102.592 83.1482 102.892C82.8415 103.193 82.4293 103.361 82 103.361Z" fill="#EE722E"/>
<path d="M69.7 86.1C69.265 86.1 68.8479 85.9272 68.5403 85.6196C68.2327 85.3121 68.06 84.8949 68.06 84.46V79.54C68.06 79.105 68.2327 78.6879 68.5403 78.3803C68.8479 78.0728 69.265 77.9 69.7 77.9C70.1349 77.9 70.5521 78.0728 70.8596 78.3803C71.1672 78.6879 71.34 79.105 71.34 79.54V84.46C71.34 84.8949 71.1672 85.3121 70.8596 85.6196C70.5521 85.9272 70.1349 86.1 69.7 86.1Z" fill="#EE722E"/>
<path d="M109.109 76.26C108.674 76.26 108.257 76.0872 107.95 75.7796C107.642 75.4721 107.469 75.0549 107.469 74.62V59.04H99.22C98.785 59.04 98.3679 58.8672 98.0603 58.5596C97.7527 58.2521 97.58 57.8349 97.58 57.4V49.2H66.42V57.4C66.42 57.8349 66.2472 58.2521 65.9396 58.5596C65.6321 58.8672 65.2149 59.04 64.78 59.04H56.58V74.62C56.58 75.0549 56.4072 75.4721 56.0996 75.7796C55.7921 76.0872 55.3749 76.26 54.94 76.26C54.505 76.26 54.0879 76.0872 53.7803 75.7796C53.4727 75.4721 53.3 75.0549 53.3 74.62V57.4C53.3 56.965 53.4727 56.5479 53.7803 56.2403C54.0879 55.9328 54.505 55.76 54.94 55.76H63.14V47.56C63.14 47.125 63.3127 46.7079 63.6203 46.4003C63.9279 46.0928 64.345 45.92 64.78 45.92H99.22C99.6549 45.92 100.072 46.0928 100.38 46.4003C100.687 46.7079 100.86 47.125 100.86 47.56V55.76H109.06C109.495 55.76 109.912 55.9328 110.22 56.2403C110.527 56.5479 110.7 56.965 110.7 57.4V74.62C110.7 75.0465 110.534 75.4564 110.237 75.7626C109.94 76.0688 109.536 76.2472 109.109 76.26Z" stroke="#EE722E"/>
<path d="M91.84 49.1344C91.405 49.1344 90.9879 48.9616 90.6803 48.654C90.3727 48.3465 90.2 47.9293 90.2 47.4944V36.8344H73.8V47.4944C73.8 47.9293 73.6272 48.3465 73.3196 48.654C73.0121 48.9616 72.5949 49.1344 72.16 49.1344C71.725 49.1344 71.3079 48.9616 71.0003 48.654C70.6927 48.3465 70.52 47.9293 70.52 47.4944V35.1944C70.52 34.7594 70.6927 34.3423 71.0003 34.0347C71.3079 33.7272 71.725 33.5544 72.16 33.5544H91.84C92.2749 33.5544 92.6921 33.7272 92.9996 34.0347C93.3072 34.3423 93.48 34.7594 93.48 35.1944V47.4944C93.48 47.9293 93.3072 48.3465 92.9996 48.654C92.6921 48.9616 92.2749 49.1344 91.84 49.1344Z" stroke="#EE722E"/>
<path d="M52.4226 113.217C52.1236 113.217 51.8304 113.136 51.5746 112.981C51.3188 112.826 51.1102 112.605 50.9712 112.34C50.5448 111.52 40.4834 92.2746 38.5072 83.9844C38.4256 83.6458 38.454 83.29 38.5881 82.9686C38.7223 82.6473 38.9553 82.3769 39.2534 82.1968C40.3276 81.549 65.805 66.1822 81.6966 63.1974C81.8967 63.1563 82.1032 63.1563 82.3034 63.1974C98.195 66.1822 123.672 81.549 124.747 82.1968C125.045 82.3769 125.278 82.6473 125.412 82.9686C125.546 83.29 125.574 83.6458 125.493 83.9844C123.517 92.2746 113.455 111.52 113.029 112.34C112.821 112.714 112.474 112.992 112.064 113.115C111.654 113.237 111.212 113.194 110.832 112.995C110.453 112.796 110.167 112.456 110.035 112.049C109.903 111.641 109.936 111.199 110.126 110.815C110.224 110.626 119.507 92.865 121.991 84.378C117.014 81.4506 95.5628 69.1506 82 66.4774C68.4372 69.1506 46.986 81.4506 42.0086 84.378C44.4686 92.865 53.7756 110.618 53.874 110.815C54.0761 111.2 54.1171 111.649 53.9879 112.064C53.8588 112.48 53.57 112.826 53.1852 113.029C52.9507 113.154 52.6885 113.219 52.4226 113.217Z" stroke="#EE722E"/>
<path d="M25.3134 117.26C24.9583 117.263 24.612 117.15 24.3264 116.939C24.0409 116.728 23.8315 116.43 23.7298 116.09C23.6281 115.75 23.6396 115.385 23.7625 115.052C23.8854 114.719 24.1131 114.435 24.4114 114.242L33.6692 108.191C34.9722 107.332 36.5185 106.918 38.0765 107.011C39.6345 107.104 41.1205 107.699 42.312 108.707L45.7642 111.61C46.4311 112.169 47.2621 112.494 48.1309 112.537C48.9998 112.58 49.8588 112.338 50.5776 111.848L55.76 108.24C57.0373 107.356 58.5655 106.908 60.1179 106.961C61.6704 107.014 63.1643 107.566 64.3782 108.535L68.3306 111.659C69.0101 112.196 69.8457 112.496 70.7112 112.516C71.5767 112.535 72.4249 112.272 73.1276 111.766L77.9 108.338C79.1522 107.427 80.6643 106.942 82.213 106.955C83.7618 106.969 85.2653 107.479 86.5018 108.412L90.9462 111.692C91.6384 112.211 92.4799 112.491 93.3447 112.491C94.2094 112.491 95.0509 112.211 95.7432 111.692L99.9908 108.412C101.221 107.469 102.721 106.945 104.27 106.917C105.82 106.889 107.338 107.359 108.601 108.256L113.521 111.741C114.23 112.24 115.083 112.494 115.949 112.466C116.816 112.437 117.65 112.129 118.326 111.586L122.082 108.543C123.287 107.56 124.778 106.992 126.332 106.924C127.886 106.856 129.421 107.292 130.708 108.166L139.638 114.185C139.826 114.301 139.988 114.454 140.115 114.635C140.243 114.816 140.332 115.02 140.378 115.236C140.424 115.452 140.426 115.676 140.384 115.892C140.342 116.109 140.256 116.316 140.133 116.499C140.009 116.682 139.849 116.838 139.664 116.957C139.478 117.077 139.27 117.158 139.052 117.196C138.834 117.233 138.611 117.226 138.396 117.175C138.181 117.124 137.979 117.03 137.801 116.899L128.879 110.889C128.174 110.408 127.332 110.169 126.48 110.206C125.627 110.243 124.809 110.554 124.148 111.094L120.392 114.136C119.161 115.13 117.638 115.695 116.056 115.745C114.474 115.795 112.919 115.328 111.627 114.415L106.707 110.938C106.016 110.443 105.185 110.184 104.335 110.199C103.486 110.213 102.664 110.501 101.992 111.02L97.744 114.3C96.4855 115.253 94.9521 115.773 93.3734 115.782C91.7946 115.791 90.2555 115.288 88.9864 114.349L84.5502 111.028C83.868 110.523 83.0416 110.25 82.1927 110.25C81.3438 110.25 80.5173 110.523 79.8352 111.028L75.1038 114.456C73.8189 115.377 72.27 115.856 70.6894 115.822C69.1089 115.788 67.582 115.243 66.338 114.267L62.3938 111.143C61.7286 110.611 60.9101 110.309 60.0593 110.279C59.2086 110.25 58.3709 110.495 57.6706 110.979L52.48 114.513C51.1697 115.409 49.6026 115.852 48.0172 115.775C46.4319 115.698 44.9151 115.105 43.6978 114.087L40.18 111.192C39.5271 110.638 38.7124 110.311 37.8579 110.259C37.0035 110.208 36.1553 110.434 35.4404 110.905L26.24 116.957C25.969 117.149 25.6458 117.255 25.3134 117.26Z" stroke="#EE722E"/>
<path d="M25.3134 130.47C24.9607 130.47 24.6174 130.356 24.3345 130.146C24.0516 129.935 23.8441 129.639 23.7428 129.301C23.6416 128.963 23.6519 128.602 23.7723 128.27C23.8928 127.939 24.1169 127.655 24.4114 127.461L33.6692 121.401C34.9731 120.543 36.5199 120.13 38.0779 120.225C39.6359 120.32 41.1214 120.916 42.312 121.926L45.7642 124.82C46.4311 125.379 47.2621 125.704 48.1309 125.747C48.9998 125.79 49.8588 125.548 50.5776 125.058L55.76 121.491C57.0364 120.606 58.5642 120.156 60.1166 120.208C61.669 120.26 63.1634 120.81 64.3782 121.778L68.3306 124.902C69.0101 125.439 69.8457 125.739 70.7112 125.759C71.5767 125.778 72.4249 125.515 73.1276 125.009L77.9 121.59C79.1514 120.677 80.6629 120.191 82.2117 120.203C83.7605 120.214 85.2644 120.724 86.5018 121.655L90.9462 124.935C91.6384 125.454 92.4799 125.734 93.3447 125.734C94.2094 125.734 95.051 125.454 95.7432 124.935L99.9908 121.655C101.22 120.71 102.72 120.184 104.27 120.156C105.82 120.128 107.338 120.599 108.601 121.499L113.521 124.976C114.229 125.478 115.081 125.735 115.948 125.709C116.815 125.682 117.65 125.373 118.326 124.829L122.082 121.786C123.287 120.803 124.777 120.234 126.331 120.165C127.885 120.096 129.42 120.529 130.708 121.401L139.638 127.42C139.999 127.663 140.248 128.04 140.331 128.468C140.414 128.895 140.324 129.338 140.081 129.699C139.837 130.06 139.46 130.31 139.032 130.393C138.605 130.476 138.162 130.386 137.801 130.142L128.879 124.123C128.173 123.646 127.331 123.408 126.478 123.447C125.626 123.485 124.809 123.797 124.148 124.337L120.392 127.379C119.159 128.369 117.637 128.931 116.056 128.982C114.475 129.032 112.921 128.567 111.627 127.658L106.707 124.173C106.015 123.68 105.183 123.423 104.334 123.439C103.485 123.456 102.664 123.744 101.992 124.263L97.744 127.543C96.4871 128.5 94.9531 129.022 93.3734 129.031C91.7937 129.04 90.2539 128.535 88.9864 127.592L84.5502 124.271C83.867 123.768 83.0409 123.497 82.1927 123.497C81.3444 123.497 80.5183 123.768 79.8352 124.271L75.1038 127.69C73.8195 128.613 72.2703 129.093 70.6894 129.059C69.1085 129.025 67.5814 128.479 66.338 127.502L62.3938 124.378C61.7286 123.846 60.9101 123.543 60.0593 123.514C59.2086 123.484 58.3709 123.73 57.6706 124.214L52.48 127.764C51.1692 128.659 49.6024 129.101 48.0173 129.024C46.4323 128.947 44.9157 128.355 43.6978 127.338L40.18 124.435C39.5277 123.88 38.7128 123.552 37.8581 123.5C37.0033 123.449 36.1548 123.676 35.4404 124.148L26.24 130.2C25.9652 130.381 25.6424 130.475 25.3134 130.47Z" stroke="#EE722E"/>
<path d="M82 103.361C81.565 103.361 81.1479 103.188 80.8403 102.881C80.5327 102.573 80.36 102.156 80.36 101.721V64.78C80.36 64.345 80.5327 63.9279 80.8403 63.6203C81.1479 63.3128 81.565 63.14 82 63.14C82.4349 63.14 82.8521 63.3128 83.1596 63.6203C83.4672 63.9279 83.64 64.345 83.64 64.78V101.754C83.6314 102.183 83.4548 102.592 83.1482 102.892C82.8415 103.193 82.4293 103.361 82 103.361Z" stroke="#EE722E"/>
<path d="M69.7 86.1C69.265 86.1 68.8479 85.9272 68.5403 85.6196C68.2327 85.3121 68.06 84.8949 68.06 84.46V79.54C68.06 79.105 68.2327 78.6879 68.5403 78.3803C68.8479 78.0728 69.265 77.9 69.7 77.9C70.1349 77.9 70.5521 78.0728 70.8596 78.3803C71.1672 78.6879 71.34 79.105 71.34 79.54V84.46C71.34 84.8949 71.1672 85.3121 70.8596 85.6196C70.5521 85.9272 70.1349 86.1 69.7 86.1Z" stroke="#EE722E"/>
</svg>
