<svg width="176" height="176" viewBox="0 0 176 176" fill="none" xmlns="http://www.w3.org/2000/svg">
<path d="M105.899 108.768H24.279C23.9289 108.768 23.5932 108.629 23.3456 108.381C23.0981 108.134 22.959 107.798 22.959 107.448V50.9696C22.959 50.6195 23.0981 50.2838 23.3456 50.0362C23.5932 49.7887 23.9289 49.6496 24.279 49.6496H105.899C106.249 49.6496 106.585 49.7887 106.832 50.0362C107.08 50.2838 107.219 50.6195 107.219 50.9696V107.448C107.219 107.798 107.08 108.134 106.832 108.381C106.585 108.629 106.249 108.768 105.899 108.768ZM26.9454 104.782H103.233V53.68H26.9454V104.782Z" fill="#EE722E"/>
<path d="M146.96 117.691H143.088C142.909 117.691 142.731 117.654 142.566 117.583C142.401 117.512 142.252 117.408 142.129 117.278C142.007 117.147 141.912 116.994 141.85 116.826C141.788 116.658 141.76 116.479 141.768 116.301C141.768 115.896 141.768 115.491 141.768 115.095C141.757 114.916 141.783 114.736 141.845 114.567C141.907 114.398 142.002 114.244 142.126 114.113C142.25 113.983 142.399 113.879 142.565 113.809C142.73 113.739 142.908 113.703 143.088 113.705H146.96C147.41 113.684 147.855 113.598 148.28 113.45C149.028 113.168 149.028 112.834 149.028 112.614V103.84C149.028 101.684 146.494 99.9416 146.203 99.7568L139.85 95.3568C139.671 95.2327 139.526 95.0664 139.427 94.8728L131.287 79.2C131.262 79.1524 131.241 79.1023 131.226 79.0504C131.155 78.8744 129.756 75.3632 124.951 75.3632H107.219V113.678H123.623C123.833 113.679 124.041 113.73 124.228 113.827C124.415 113.925 124.576 114.065 124.698 114.238C124.819 114.41 124.898 114.609 124.926 114.818C124.955 115.027 124.934 115.24 124.863 115.438C124.732 115.771 124.646 116.121 124.608 116.477C124.571 116.799 124.417 117.096 124.176 117.312C123.934 117.528 123.621 117.647 123.297 117.647H104.553C104.203 117.647 103.867 117.508 103.62 117.261C103.372 117.013 103.233 116.677 103.233 116.327V72.7232C103.233 72.3731 103.372 72.0374 103.62 71.7898C103.867 71.5423 104.203 71.4032 104.553 71.4032H124.96C127.031 71.3186 129.081 71.8515 130.848 72.9342C132.615 74.0169 134.021 75.6006 134.887 77.484V77.5456L142.657 92.4616L148.315 96.36C149.063 96.8352 153.015 99.5544 153.015 103.831V112.631C153.041 115.949 149.996 117.691 146.96 117.691Z" fill="#EE722E"/>
<path d="M141.143 95.8144H119.002C118.497 95.7808 118.023 95.5562 117.676 95.1861C117.33 94.816 117.137 94.3281 117.137 93.8212C117.137 93.3143 117.33 92.8264 117.676 92.4563C118.023 92.0862 118.497 91.8616 119.002 91.828H141.143C141.649 91.8616 142.123 92.0862 142.469 92.4563C142.816 92.8264 143.008 93.3143 143.008 93.8212C143.008 94.3281 142.816 94.816 142.469 95.1861C142.123 95.5562 141.649 95.7808 141.143 95.8144Z" fill="#EE722E"/>
<path d="M133.76 126.35C131.652 126.35 129.592 125.725 127.839 124.554C126.087 123.383 124.721 121.719 123.914 119.772C123.108 117.824 122.897 115.682 123.308 113.615C123.719 111.547 124.734 109.648 126.224 108.158C127.715 106.668 129.614 105.653 131.681 105.242C133.748 104.83 135.891 105.041 137.838 105.848C139.785 106.655 141.45 108.02 142.621 109.773C143.792 111.525 144.417 113.586 144.417 115.694C144.414 118.519 143.291 121.228 141.293 123.227C139.295 125.225 136.585 126.348 133.76 126.35ZM133.76 109.023C132.441 109.023 131.151 109.414 130.054 110.147C128.957 110.88 128.102 111.922 127.597 113.141C127.092 114.36 126.96 115.701 127.218 116.995C127.475 118.289 128.11 119.477 129.043 120.41C129.976 121.343 131.165 121.978 132.458 122.236C133.752 122.493 135.094 122.361 136.312 121.856C137.531 121.351 138.573 120.496 139.306 119.399C140.039 118.303 140.43 117.013 140.43 115.694C140.428 113.925 139.724 112.23 138.474 110.979C137.224 109.729 135.528 109.026 133.76 109.023Z" fill="#EE722E"/>
<path d="M149.01 102.379H146.045C145.316 102.379 144.725 102.97 144.725 103.699V105.046C144.725 105.775 145.316 106.366 146.045 106.366H149.01C149.739 106.366 150.33 105.775 150.33 105.046V103.699C150.33 102.97 149.739 102.379 149.01 102.379Z" fill="#EE722E"/>
<path d="M107.466 117.691H54.4986C54.3084 117.688 54.121 117.645 53.9489 117.563C53.7769 117.482 53.6241 117.365 53.5008 117.22C53.3776 117.075 53.2866 116.906 53.2341 116.723C53.1816 116.54 53.1687 116.348 53.1962 116.16C53.2616 115.758 53.3057 115.352 53.3282 114.946C53.3463 114.608 53.4933 114.29 53.7389 114.057C53.9845 113.825 54.31 113.696 54.6482 113.696H107.448C107.798 113.696 108.134 113.835 108.382 114.083C108.629 114.33 108.768 114.666 108.768 115.016V116.362C108.771 116.711 108.635 117.046 108.391 117.295C108.147 117.544 107.814 117.687 107.466 117.691Z" fill="#EE722E"/>
<path d="M34.9802 117.691H26.717C26.3669 117.691 26.0311 117.552 25.7836 117.305C25.536 117.057 25.397 116.721 25.397 116.371V115.025C25.397 114.675 25.536 114.339 25.7836 114.091C26.0311 113.844 26.3669 113.705 26.717 113.705H35.0594C35.2455 113.704 35.4296 113.743 35.5995 113.819C35.7695 113.895 35.9213 114.006 36.045 114.145C36.17 114.281 36.2639 114.443 36.3201 114.619C36.3763 114.796 36.3936 114.982 36.3706 115.166C36.3252 115.569 36.3017 115.974 36.3002 116.38C36.2978 116.729 36.1578 117.062 35.9105 117.308C35.6632 117.553 35.3287 117.691 34.9802 117.691Z" fill="#EE722E"/>
<path d="M44.607 126.35C42.4993 126.35 40.4389 125.725 38.6864 124.554C36.9339 123.383 35.568 121.719 34.7614 119.772C33.9548 117.824 33.7438 115.682 34.155 113.615C34.5662 111.547 35.5811 109.648 37.0715 108.158C38.5619 106.668 40.4607 105.653 42.528 105.242C44.5952 104.83 46.7379 105.041 48.6852 105.848C50.6325 106.655 52.2968 108.02 53.4678 109.773C54.6388 111.525 55.2638 113.586 55.2638 115.694C55.2591 118.519 54.1349 121.226 52.1374 123.224C50.1398 125.221 47.4319 126.346 44.607 126.35ZM44.607 109.023C43.2877 109.023 41.9981 109.414 40.9011 110.147C39.8042 110.88 38.9492 111.922 38.4444 113.141C37.9395 114.36 37.8074 115.701 38.0648 116.995C38.3221 118.289 38.9574 119.477 39.8903 120.41C40.8232 121.343 42.0117 121.978 43.3057 122.236C44.5996 122.493 45.9408 122.361 47.1597 121.856C48.3785 121.351 49.4203 120.496 50.1532 119.399C50.8862 118.303 51.2774 117.013 51.2774 115.694C51.2751 113.925 50.5716 112.23 49.3211 110.979C48.0707 109.729 46.3754 109.026 44.607 109.023Z" fill="#EE722E"/>
</svg>
