<svg width="156" height="156" viewBox="0 0 156 156" fill="none" xmlns="http://www.w3.org/2000/svg">
<path d="M85.106 100.62H69.506C68.8666 100.623 68.2344 100.484 67.6546 100.215C67.0749 99.9451 66.5618 99.5508 66.152 99.06L59.9744 91.65C59.739 91.3704 59.6092 91.0171 59.6078 90.6516V72.384C59.6078 71.9703 59.7721 71.5735 60.0647 71.2809C60.3572 70.9884 60.754 70.824 61.1678 70.824H93.4598C93.8735 70.824 94.2703 70.9884 94.5628 71.2809C94.8554 71.5735 95.0198 71.9703 95.0198 72.384V90.636C95.0183 91.0015 94.8885 91.3548 94.6532 91.6344L88.4756 99.0444C88.0656 99.5401 87.5506 99.9386 86.9679 100.211C86.3852 100.484 85.7492 100.623 85.106 100.62ZM62.7122 90.0666L68.531 97.0866C68.6471 97.2287 68.7935 97.343 68.9595 97.4213C69.1255 97.4996 69.3068 97.5398 69.4904 97.539H85.0904C85.2739 97.5398 85.4552 97.4996 85.6212 97.4213C85.7872 97.343 85.9336 97.2287 86.0498 97.0866L91.8686 90.0666V73.944H62.7122V90.0666Z" fill="#EE722E"/>
<path d="M75.2078 123.084C73.3811 123.073 71.5789 122.663 69.9272 121.883C68.0464 120.937 66.4727 119.477 65.3888 117.673C64.305 115.868 63.7555 113.793 63.8042 111.688C63.6882 111.247 63.5422 110.815 63.3674 110.393C62.7668 108.787 62.0804 106.977 63.0242 105.612C63.2894 105.246 63.6433 104.954 64.0527 104.763C64.4622 104.572 64.9135 104.488 65.3642 104.52C66.1276 104.497 66.8877 104.631 67.5977 104.913C68.3077 105.194 68.9527 105.618 69.4931 106.157C70.0336 106.697 70.4581 107.342 70.7406 108.051C71.0231 108.761 71.1577 109.521 71.1362 110.284C71.1371 110.672 71.2228 111.055 71.3873 111.406C71.5518 111.757 71.791 112.068 72.0882 112.317C72.3854 112.566 72.7334 112.747 73.1079 112.847C73.4824 112.947 73.8743 112.964 74.2562 112.897C74.7859 112.797 75.2731 112.539 75.6543 112.158C76.0355 111.777 76.2931 111.29 76.3934 110.76C76.4868 110.28 76.4444 109.783 76.2707 109.325C76.0971 108.868 75.7992 108.468 75.4106 108.17C74.4096 107.374 73.603 106.361 73.0516 105.207C72.5003 104.053 72.2187 102.788 72.2282 101.509V99.06C72.2282 98.6463 72.3925 98.2495 72.6851 97.9569C72.9776 97.6644 73.3744 97.5 73.7882 97.5C74.2019 97.5 74.5987 97.6644 74.8912 97.9569C75.1838 98.2495 75.3482 98.6463 75.3482 99.06V101.533C75.3367 102.335 75.5085 103.129 75.8505 103.855C76.1925 104.581 76.6956 105.219 77.3216 105.721C78.0966 106.321 78.7061 107.109 79.0926 108.01C79.479 108.91 79.6297 109.895 79.5305 110.87C79.4312 111.845 79.0853 112.779 78.5252 113.583C77.9652 114.388 77.2095 115.036 76.3294 115.468C75.4494 115.899 74.4739 116.1 73.495 116.05C72.516 116 71.5659 115.702 70.7342 115.183C69.9024 114.665 69.2165 113.943 68.7409 113.086C68.2654 112.228 68.016 111.264 68.0162 110.284C68.0593 109.633 67.8447 108.99 67.4187 108.496C66.9926 108.001 66.3892 107.694 65.7386 107.64C65.89 108.196 66.0723 108.743 66.2846 109.278C66.633 110.034 66.8493 110.844 66.9242 111.673C66.8752 113.182 67.2543 114.674 68.0175 115.977C68.7808 117.28 69.8971 118.34 71.2376 119.036C72.5546 119.694 74.0181 120.003 75.4887 119.935C76.9592 119.867 78.3878 119.423 79.6382 118.646C80.6804 117.982 81.5605 117.093 82.2135 116.044C82.8665 114.995 83.2758 113.812 83.4113 112.584C83.5468 111.356 83.405 110.113 82.9963 108.947C82.5876 107.781 81.9225 106.721 81.05 105.846C80.4888 105.304 80.0407 104.656 79.7314 103.94C79.4222 103.224 79.2579 102.453 79.2482 101.673V99.06C79.2482 98.6463 79.4125 98.2495 79.7051 97.9569C79.9976 97.6644 80.3944 97.5 80.8082 97.5C81.2219 97.5 81.6187 97.6644 81.9112 97.9569C82.2038 98.2495 82.3682 98.6463 82.3682 99.06V101.689C82.3793 102.06 82.4636 102.425 82.6162 102.764C82.7687 103.103 82.9866 103.408 83.2574 103.662C84.8435 105.255 85.9225 107.283 86.3583 109.488C86.7942 111.694 86.5674 113.979 85.7066 116.056C84.8458 118.133 83.3894 119.909 81.5211 121.16C79.6528 122.41 77.456 123.08 75.2078 123.084Z" fill="#EE722E"/>
<path d="M107.476 65.52H48.524C48.3187 65.5212 48.1151 65.4818 47.9251 65.4042C47.735 65.3266 47.5621 65.2122 47.4164 65.0676L43.2044 60.84C43.0598 60.6942 42.9454 60.5214 42.8678 60.3313C42.7901 60.1412 42.7508 59.9377 42.752 59.7324V55.536C42.752 55.1223 42.9163 54.7255 43.2089 54.4329C43.5014 54.1404 43.8982 53.976 44.312 53.976C44.7257 53.976 45.1225 54.1404 45.415 54.4329C45.7076 54.7255 45.872 55.1223 45.872 55.536V59.1006L49.1402 62.4H106.86L110.152 59.1006V55.536C110.152 55.1223 110.316 54.7255 110.609 54.4329C110.901 54.1404 111.298 53.976 111.712 53.976C112.125 53.976 112.522 54.1404 112.815 54.4329C113.107 54.7255 113.272 55.1223 113.272 55.536V59.748C113.273 59.9533 113.234 60.1568 113.156 60.3469C113.078 60.537 112.964 60.7098 112.819 60.8556L108.607 65.0676C108.459 65.215 108.282 65.331 108.088 65.4087C107.894 65.4865 107.686 65.5243 107.476 65.52Z" fill="#EE722E"/>
<path d="M61.1522 87.984C60.8468 87.9797 60.5495 87.8859 60.2969 87.7142C60.0444 87.5425 59.8478 87.3005 59.7316 87.0181C59.6153 86.7358 59.5845 86.4255 59.6429 86.1258C59.7013 85.826 59.8464 85.55 60.0602 85.332L73.835 71.292C74.1246 70.9962 74.5198 70.8275 74.9338 70.8231C75.1388 70.821 75.3422 70.8592 75.5324 70.9356C75.7226 71.012 75.8959 71.1252 76.0424 71.2686C76.1888 71.412 76.3056 71.5828 76.3861 71.7714C76.4665 71.9599 76.5091 72.1625 76.5112 72.3674C76.5134 72.5724 76.4752 72.7758 76.3987 72.966C76.3223 73.1562 76.2092 73.3295 76.0658 73.476L62.2832 87.516C62.1359 87.6662 61.9598 87.7851 61.7655 87.8655C61.5711 87.946 61.3625 87.9863 61.1522 87.984Z" fill="#EE722E"/>
<path d="M72.3842 90.792C72.0836 90.7914 71.7895 90.704 71.5374 90.5403C71.2853 90.3766 71.0859 90.1435 70.9631 89.8691C70.8403 89.5948 70.7994 89.2907 70.8453 88.9937C70.8913 88.6966 71.0221 88.4191 71.222 88.1946L86.1746 71.3466C86.3108 71.1929 86.476 71.0676 86.6606 70.9778C86.8453 70.888 87.0458 70.8354 87.2508 70.8231C87.4558 70.8108 87.6612 70.839 87.8553 70.9061C88.0493 70.9731 88.2283 71.0778 88.382 71.214C88.5356 71.3502 88.6609 71.5154 88.7507 71.7001C88.8405 71.8847 88.8931 72.0853 88.9054 72.2902C88.9177 72.4952 88.8896 72.7006 88.8225 72.8947C88.7554 73.0888 88.6508 73.2677 88.5146 73.4214L73.5542 90.2694C73.4073 90.4344 73.227 90.5663 73.0253 90.6564C72.8236 90.7465 72.6051 90.7927 72.3842 90.792Z" fill="#EE722E"/>
<path d="M85.0202 90.792C84.639 90.7891 84.2714 90.6509 83.9828 90.402C83.8287 90.266 83.703 90.101 83.6129 89.9163C83.5228 89.7316 83.4701 89.531 83.4578 89.3258C83.4454 89.1207 83.4738 88.9152 83.5411 88.7211C83.6084 88.5269 83.7135 88.348 83.8502 88.1946L92.2742 78.663C92.4099 78.5093 92.5745 78.3839 92.7587 78.2939C92.9429 78.2039 93.143 78.1511 93.3476 78.1384C93.5522 78.1257 93.7574 78.1535 93.9512 78.2201C94.1451 78.2866 94.324 78.3908 94.4777 78.5265C94.6313 78.6622 94.7567 78.8269 94.8467 79.0111C94.9367 79.1952 94.9896 79.3954 95.0023 79.6C95.0149 79.8046 94.9872 80.0097 94.9206 80.2036C94.854 80.3975 94.7499 80.5763 94.6142 80.73L86.1902 90.2616C86.044 90.428 85.864 90.5614 85.6623 90.6528C85.4605 90.7443 85.2417 90.7917 85.0202 90.792Z" fill="#EE722E"/>
<path d="M65.3642 73.944C64.9504 73.944 64.5536 73.7796 64.2611 73.4871C63.9685 73.1945 63.8042 72.7977 63.8042 72.384V63.96C63.8042 63.5463 63.9685 63.1495 64.2611 62.8569C64.5536 62.5644 64.9504 62.4 65.3642 62.4C65.7779 62.4 66.1747 62.5644 66.4672 62.8569C66.7598 63.1495 66.9242 63.5463 66.9242 63.96V72.384C66.9242 72.7977 66.7598 73.1945 66.4672 73.4871C66.1747 73.7796 65.7779 73.944 65.3642 73.944Z" fill="#EE722E"/>
<path d="M89.2322 73.944C88.8184 73.944 88.4216 73.7796 88.1291 73.4871C87.8365 73.1945 87.6722 72.7977 87.6722 72.384V63.96C87.6722 63.5463 87.8365 63.1495 88.1291 62.8569C88.4216 62.5644 88.8184 62.4 89.2322 62.4C89.6459 62.4 90.0427 62.5644 90.3352 62.8569C90.6278 63.1495 90.7922 63.5463 90.7922 63.96V72.384C90.7922 72.7977 90.6278 73.1945 90.3352 73.4871C90.0427 73.7796 89.6459 73.944 89.2322 73.944Z" fill="#EE722E"/>
<path d="M62.5562 57.096C62.2485 57.0975 61.9473 57.0079 61.6904 56.8386C61.5195 56.7247 61.3728 56.5781 61.2587 56.4073C61.1446 56.2366 61.0654 56.045 61.0255 55.8435C60.9857 55.642 60.986 55.4347 61.0265 55.2333C61.0669 55.032 61.1468 54.8406 61.2614 54.6702L75.3014 33.6102C75.4093 33.4276 75.5534 33.2689 75.7248 33.1439C75.8962 33.0188 76.0912 32.93 76.2981 32.883C76.505 32.8359 76.7192 32.8315 76.9279 32.8701C77.1365 32.9087 77.335 32.9894 77.5114 33.1073C77.6877 33.2252 77.8382 33.3779 77.9535 33.5559C78.0689 33.734 78.1467 33.9337 78.1822 34.1428C78.2177 34.352 78.2102 34.5662 78.1602 34.7723C78.1101 34.9785 78.0185 35.1723 77.891 35.3418L63.851 56.4018C63.7087 56.6149 63.5162 56.7898 63.2904 56.9109C63.0646 57.0319 62.8124 57.0955 62.5562 57.096Z" fill="#EE722E"/>
<path d="M121.516 48.672C121.26 48.6715 121.008 48.6079 120.782 48.4869C120.556 48.3658 120.364 48.1909 120.222 47.9778L111.798 35.3496C111.568 35.0052 111.485 34.5836 111.566 34.1777C111.647 33.7718 111.886 33.4147 112.23 33.1851C112.575 32.9555 112.996 32.8721 113.402 32.9533C113.808 33.0344 114.165 33.2736 114.395 33.618L122.819 46.254C123.047 46.5985 123.129 47.0196 123.048 47.4247C122.966 47.8297 122.726 48.1858 122.382 48.4146C122.125 48.5839 121.824 48.6735 121.516 48.672Z" fill="#EE722E"/>
<path d="M93.4442 57.096C93.1866 57.0968 92.9329 57.0338 92.7056 56.9127C92.4783 56.7916 92.2845 56.616 92.1416 56.4018L78.1016 35.3418C77.974 35.1723 77.8824 34.9785 77.8324 34.7723C77.7823 34.5662 77.7748 34.352 77.8103 34.1428C77.8458 33.9337 77.9236 33.734 78.039 33.5559C78.1543 33.3779 78.3048 33.2252 78.4811 33.1073C78.6575 32.9894 78.856 32.9087 79.0647 32.8701C79.2733 32.8315 79.4876 32.8359 79.6944 32.883C79.9013 32.93 80.0964 33.0188 80.2677 33.1439C80.4391 33.2689 80.5832 33.4276 80.6912 33.6102L94.7312 54.6702C94.8458 54.8406 94.9256 55.032 94.9661 55.2333C95.0065 55.4347 95.0068 55.642 94.967 55.8435C94.9271 56.045 94.8479 56.2366 94.7338 56.4073C94.6197 56.5781 94.473 56.7247 94.3022 56.8386C94.0475 57.0064 93.7492 57.0959 93.4442 57.096Z" fill="#EE722E"/>
<path d="M96.2522 57.096C95.9445 57.0975 95.6433 57.0079 95.3864 56.8386C95.2149 56.7253 95.0675 56.5792 94.9526 56.4087C94.8378 56.2382 94.7578 56.0467 94.7172 55.8452C94.6766 55.6437 94.6762 55.4362 94.7161 55.2345C94.756 55.0329 94.8353 54.8411 94.9496 54.6702L108.99 33.6102C109.219 33.2658 109.576 33.0266 109.982 32.9455C110.388 32.8643 110.81 32.9477 111.154 33.1773C111.498 33.4069 111.738 33.764 111.819 34.1699C111.9 34.5758 111.817 34.9974 111.587 35.3418L97.547 56.4018C97.4047 56.6149 97.2122 56.7898 96.9864 56.9109C96.7606 57.0319 96.5084 57.0955 96.2522 57.096Z" fill="#EE722E"/>
<path d="M59.7482 57.096C59.4919 57.0955 59.2397 57.0319 59.0139 56.9109C58.7881 56.7898 58.5956 56.6149 58.4534 56.4018L44.4134 35.3418C44.1837 34.9974 44.1003 34.5758 44.1815 34.1699C44.2627 33.764 44.5018 33.4069 44.8463 33.1773C45.1907 32.9477 45.6122 32.8643 46.0182 32.9455C46.4241 33.0266 46.7811 33.2658 47.0108 33.6102L61.0508 54.6702C61.165 54.8411 61.2443 55.0329 61.2842 55.2345C61.3241 55.4362 61.3237 55.6437 61.2831 55.8452C61.2425 56.0467 61.1625 56.2382 61.0477 56.4087C60.9328 56.5792 60.7854 56.7253 60.614 56.8386C60.3571 57.0079 60.0558 57.0975 59.7482 57.096Z" fill="#EE722E"/>
<path d="M34.484 48.672C34.1763 48.6735 33.8751 48.5839 33.6182 48.4146C33.274 48.1858 33.0347 47.8297 32.9528 47.4247C32.8709 47.0196 32.9531 46.5985 33.1814 46.254L41.6054 33.618C41.7191 33.4474 41.8652 33.301 42.0355 33.1869C42.2058 33.0729 42.397 32.9935 42.598 32.9533C42.7989 32.9131 43.0059 32.9128 43.207 32.9526C43.408 32.9924 43.5993 33.0714 43.7699 33.1851C43.9404 33.2988 44.0869 33.445 44.2009 33.6153C44.315 33.7856 44.3944 33.9767 44.4346 34.1777C44.4748 34.3787 44.475 34.5856 44.4352 34.7867C44.3954 34.9878 44.3165 35.179 44.2028 35.3496L35.7788 47.9778C35.6365 48.1909 35.444 48.3658 35.2182 48.4869C34.9924 48.6079 34.7402 48.6715 34.484 48.672Z" fill="#EE722E"/>
<path d="M121.516 36.0438H34.484C34.0702 36.0438 33.6734 35.8794 33.3809 35.5869C33.0883 35.2943 32.924 34.8975 32.924 34.4838C32.924 34.0701 33.0883 33.6733 33.3809 33.3807C33.6734 33.0882 34.0702 32.9238 34.484 32.9238H121.516C121.93 32.9238 122.327 33.0882 122.619 33.3807C122.912 33.6733 123.076 34.0701 123.076 34.4838C123.076 34.8975 122.912 35.2943 122.619 35.5869C122.327 35.8794 121.93 36.0438 121.516 36.0438Z" fill="#EE722E"/>
<path d="M121.516 57.096H34.484C34.0702 57.096 33.6734 56.9316 33.3809 56.6391C33.0883 56.3465 32.924 55.9497 32.924 55.536C32.924 55.1223 33.0883 54.7255 33.3809 54.4329C33.6734 54.1404 34.0702 53.976 34.484 53.976H121.516C121.93 53.976 122.327 54.1404 122.619 54.4329C122.912 54.7255 123.076 55.1223 123.076 55.536C123.076 55.9497 122.912 56.3465 122.619 56.6391C122.327 56.9316 121.93 57.096 121.516 57.096Z" fill="#EE722E"/>
<path d="M85.106 100.62H69.506C68.8666 100.623 68.2344 100.484 67.6546 100.215C67.0749 99.9451 66.5618 99.5508 66.152 99.06L59.9744 91.65C59.739 91.3704 59.6092 91.0171 59.6078 90.6516V72.384C59.6078 71.9703 59.7721 71.5735 60.0647 71.2809C60.3572 70.9884 60.754 70.824 61.1678 70.824H93.4598C93.8735 70.824 94.2703 70.9884 94.5628 71.2809C94.8554 71.5735 95.0198 71.9703 95.0198 72.384V90.636C95.0183 91.0015 94.8885 91.3548 94.6532 91.6344L88.4756 99.0444C88.0656 99.5401 87.5506 99.9386 86.9679 100.211C86.3852 100.484 85.7492 100.623 85.106 100.62ZM62.7122 90.0666L68.531 97.0866C68.6471 97.2287 68.7935 97.343 68.9595 97.4213C69.1255 97.4996 69.3068 97.5398 69.4904 97.539H85.0904C85.2739 97.5398 85.4552 97.4996 85.6212 97.4213C85.7872 97.343 85.9336 97.2287 86.0498 97.0866L91.8686 90.0666V73.944H62.7122V90.0666Z" stroke="#EE722E"/>
<path d="M75.2078 123.084C73.3811 123.073 71.5789 122.663 69.9272 121.883C68.0464 120.937 66.4727 119.477 65.3888 117.673C64.305 115.868 63.7555 113.793 63.8042 111.688C63.6882 111.247 63.5422 110.815 63.3674 110.393C62.7668 108.787 62.0804 106.977 63.0242 105.612C63.2894 105.246 63.6433 104.954 64.0527 104.763C64.4622 104.572 64.9135 104.488 65.3642 104.52C66.1276 104.497 66.8877 104.631 67.5977 104.913C68.3077 105.194 68.9527 105.618 69.4931 106.157C70.0336 106.697 70.4581 107.342 70.7406 108.051C71.0231 108.761 71.1577 109.521 71.1362 110.284C71.1371 110.672 71.2228 111.055 71.3873 111.406C71.5518 111.757 71.791 112.068 72.0882 112.317C72.3854 112.566 72.7334 112.747 73.1079 112.847C73.4824 112.947 73.8743 112.964 74.2562 112.897C74.7859 112.797 75.2731 112.539 75.6543 112.158C76.0355 111.777 76.2931 111.29 76.3934 110.76C76.4868 110.28 76.4444 109.783 76.2707 109.325C76.0971 108.868 75.7992 108.468 75.4106 108.17C74.4096 107.374 73.603 106.361 73.0516 105.207C72.5003 104.053 72.2187 102.788 72.2282 101.509V99.06C72.2282 98.6463 72.3925 98.2495 72.6851 97.9569C72.9776 97.6644 73.3744 97.5 73.7882 97.5C74.2019 97.5 74.5987 97.6644 74.8912 97.9569C75.1838 98.2495 75.3482 98.6463 75.3482 99.06V101.533C75.3367 102.335 75.5085 103.129 75.8505 103.855C76.1925 104.581 76.6956 105.219 77.3216 105.721C78.0966 106.321 78.7061 107.109 79.0926 108.01C79.479 108.91 79.6297 109.895 79.5305 110.87C79.4312 111.845 79.0853 112.779 78.5252 113.583C77.9652 114.388 77.2095 115.036 76.3294 115.468C75.4494 115.899 74.4739 116.1 73.495 116.05C72.516 116 71.5659 115.702 70.7342 115.183C69.9024 114.665 69.2165 113.943 68.7409 113.086C68.2654 112.228 68.016 111.264 68.0162 110.284C68.0593 109.633 67.8447 108.99 67.4187 108.496C66.9926 108.001 66.3892 107.694 65.7386 107.64C65.89 108.196 66.0723 108.743 66.2846 109.278C66.633 110.034 66.8493 110.844 66.9242 111.673C66.8752 113.182 67.2543 114.674 68.0175 115.977C68.7808 117.28 69.8971 118.34 71.2376 119.036C72.5546 119.694 74.0181 120.003 75.4887 119.935C76.9592 119.867 78.3878 119.423 79.6382 118.646C80.6804 117.982 81.5605 117.093 82.2135 116.044C82.8665 114.995 83.2758 113.812 83.4113 112.584C83.5468 111.356 83.405 110.113 82.9963 108.947C82.5876 107.781 81.9225 106.721 81.05 105.846C80.4888 105.304 80.0407 104.656 79.7314 103.94C79.4222 103.224 79.2579 102.453 79.2482 101.673V99.06C79.2482 98.6463 79.4125 98.2495 79.7051 97.9569C79.9976 97.6644 80.3944 97.5 80.8082 97.5C81.2219 97.5 81.6187 97.6644 81.9112 97.9569C82.2038 98.2495 82.3682 98.6463 82.3682 99.06V101.689C82.3793 102.06 82.4636 102.425 82.6162 102.764C82.7687 103.103 82.9866 103.408 83.2574 103.662C84.8435 105.255 85.9225 107.283 86.3583 109.488C86.7942 111.694 86.5674 113.979 85.7066 116.056C84.8458 118.133 83.3894 119.909 81.5211 121.16C79.6528 122.41 77.456 123.08 75.2078 123.084Z" stroke="#EE722E"/>
<path d="M107.476 65.52H48.524C48.3187 65.5212 48.1151 65.4818 47.9251 65.4042C47.735 65.3266 47.5621 65.2122 47.4164 65.0676L43.2044 60.84C43.0598 60.6942 42.9454 60.5214 42.8678 60.3313C42.7901 60.1412 42.7508 59.9377 42.752 59.7324V55.536C42.752 55.1223 42.9163 54.7255 43.2089 54.4329C43.5014 54.1404 43.8982 53.976 44.312 53.976C44.7257 53.976 45.1225 54.1404 45.415 54.4329C45.7076 54.7255 45.872 55.1223 45.872 55.536V59.1006L49.1402 62.4H106.86L110.152 59.1006V55.536C110.152 55.1223 110.316 54.7255 110.609 54.4329C110.901 54.1404 111.298 53.976 111.712 53.976C112.125 53.976 112.522 54.1404 112.815 54.4329C113.107 54.7255 113.272 55.1223 113.272 55.536V59.748C113.273 59.9533 113.234 60.1568 113.156 60.3469C113.078 60.537 112.964 60.7098 112.819 60.8556L108.607 65.0676C108.459 65.215 108.282 65.331 108.088 65.4087C107.894 65.4865 107.686 65.5243 107.476 65.52Z" stroke="#EE722E"/>
<path d="M61.1522 87.984C60.8468 87.9797 60.5495 87.8859 60.2969 87.7142C60.0444 87.5425 59.8478 87.3005 59.7316 87.0181C59.6153 86.7358 59.5845 86.4255 59.6429 86.1258C59.7013 85.826 59.8464 85.55 60.0602 85.332L73.835 71.292C74.1246 70.9962 74.5198 70.8275 74.9338 70.8231C75.1388 70.821 75.3422 70.8592 75.5324 70.9356C75.7226 71.012 75.8959 71.1252 76.0424 71.2686C76.1888 71.412 76.3056 71.5828 76.3861 71.7714C76.4665 71.9599 76.5091 72.1625 76.5112 72.3674C76.5134 72.5724 76.4752 72.7758 76.3987 72.966C76.3223 73.1562 76.2092 73.3295 76.0658 73.476L62.2832 87.516C62.1359 87.6662 61.9598 87.7851 61.7655 87.8655C61.5711 87.946 61.3625 87.9863 61.1522 87.984Z" stroke="#EE722E"/>
<path d="M72.3842 90.792C72.0836 90.7914 71.7895 90.704 71.5374 90.5403C71.2853 90.3766 71.0859 90.1435 70.9631 89.8691C70.8403 89.5948 70.7994 89.2907 70.8453 88.9937C70.8913 88.6966 71.0221 88.4191 71.222 88.1946L86.1746 71.3466C86.3108 71.1929 86.476 71.0676 86.6606 70.9778C86.8453 70.888 87.0458 70.8354 87.2508 70.8231C87.4558 70.8108 87.6612 70.839 87.8553 70.9061C88.0493 70.9731 88.2283 71.0778 88.382 71.214C88.5356 71.3502 88.6609 71.5154 88.7507 71.7001C88.8405 71.8847 88.8931 72.0853 88.9054 72.2902C88.9177 72.4952 88.8896 72.7006 88.8225 72.8947C88.7554 73.0888 88.6508 73.2677 88.5146 73.4214L73.5542 90.2694C73.4073 90.4344 73.227 90.5663 73.0253 90.6564C72.8236 90.7465 72.6051 90.7927 72.3842 90.792Z" stroke="#EE722E"/>
<path d="M85.0202 90.792C84.639 90.7891 84.2714 90.6509 83.9828 90.402C83.8287 90.266 83.703 90.101 83.6129 89.9163C83.5228 89.7316 83.4701 89.531 83.4578 89.3258C83.4454 89.1207 83.4738 88.9152 83.5411 88.7211C83.6084 88.5269 83.7135 88.348 83.8502 88.1946L92.2742 78.663C92.4099 78.5093 92.5745 78.3839 92.7587 78.2939C92.9429 78.2039 93.143 78.1511 93.3476 78.1384C93.5522 78.1257 93.7574 78.1535 93.9512 78.2201C94.1451 78.2866 94.324 78.3908 94.4777 78.5265C94.6313 78.6622 94.7567 78.8269 94.8467 79.0111C94.9367 79.1952 94.9896 79.3954 95.0023 79.6C95.0149 79.8046 94.9872 80.0097 94.9206 80.2036C94.854 80.3975 94.7499 80.5763 94.6142 80.73L86.1902 90.2616C86.044 90.428 85.864 90.5614 85.6623 90.6528C85.4605 90.7443 85.2417 90.7917 85.0202 90.792Z" stroke="#EE722E"/>
<path d="M65.3642 73.944C64.9504 73.944 64.5536 73.7796 64.2611 73.4871C63.9685 73.1945 63.8042 72.7977 63.8042 72.384V63.96C63.8042 63.5463 63.9685 63.1495 64.2611 62.8569C64.5536 62.5644 64.9504 62.4 65.3642 62.4C65.7779 62.4 66.1747 62.5644 66.4672 62.8569C66.7598 63.1495 66.9242 63.5463 66.9242 63.96V72.384C66.9242 72.7977 66.7598 73.1945 66.4672 73.4871C66.1747 73.7796 65.7779 73.944 65.3642 73.944Z" stroke="#EE722E"/>
<path d="M89.2322 73.944C88.8184 73.944 88.4216 73.7796 88.1291 73.4871C87.8365 73.1945 87.6722 72.7977 87.6722 72.384V63.96C87.6722 63.5463 87.8365 63.1495 88.1291 62.8569C88.4216 62.5644 88.8184 62.4 89.2322 62.4C89.6459 62.4 90.0427 62.5644 90.3352 62.8569C90.6278 63.1495 90.7922 63.5463 90.7922 63.96V72.384C90.7922 72.7977 90.6278 73.1945 90.3352 73.4871C90.0427 73.7796 89.6459 73.944 89.2322 73.944Z" stroke="#EE722E"/>
<path d="M62.5562 57.096C62.2485 57.0975 61.9473 57.0079 61.6904 56.8386C61.5195 56.7247 61.3728 56.5781 61.2587 56.4073C61.1446 56.2366 61.0654 56.045 61.0255 55.8435C60.9857 55.642 60.986 55.4347 61.0265 55.2333C61.0669 55.032 61.1468 54.8406 61.2614 54.6702L75.3014 33.6102C75.4093 33.4276 75.5534 33.2689 75.7248 33.1439C75.8962 33.0188 76.0912 32.93 76.2981 32.883C76.505 32.8359 76.7192 32.8315 76.9279 32.8701C77.1365 32.9087 77.335 32.9894 77.5114 33.1073C77.6877 33.2252 77.8382 33.3779 77.9535 33.5559C78.0689 33.734 78.1467 33.9337 78.1822 34.1428C78.2177 34.352 78.2102 34.5662 78.1602 34.7723C78.1101 34.9785 78.0185 35.1723 77.891 35.3418L63.851 56.4018C63.7087 56.6149 63.5162 56.7898 63.2904 56.9109C63.0646 57.0319 62.8124 57.0955 62.5562 57.096Z" stroke="#EE722E"/>
<path d="M121.516 48.672C121.26 48.6715 121.008 48.6079 120.782 48.4869C120.556 48.3658 120.364 48.1909 120.222 47.9778L111.798 35.3496C111.568 35.0052 111.485 34.5836 111.566 34.1777C111.647 33.7718 111.886 33.4147 112.23 33.1851C112.575 32.9555 112.996 32.8721 113.402 32.9533C113.808 33.0344 114.165 33.2736 114.395 33.618L122.819 46.254C123.047 46.5985 123.129 47.0196 123.048 47.4247C122.966 47.8297 122.726 48.1858 122.382 48.4146C122.125 48.5839 121.824 48.6735 121.516 48.672Z" stroke="#EE722E"/>
<path d="M93.4442 57.096C93.1866 57.0968 92.9329 57.0338 92.7056 56.9127C92.4783 56.7916 92.2845 56.616 92.1416 56.4018L78.1016 35.3418C77.974 35.1723 77.8824 34.9785 77.8324 34.7723C77.7823 34.5662 77.7748 34.352 77.8103 34.1428C77.8458 33.9337 77.9236 33.734 78.039 33.5559C78.1543 33.3779 78.3048 33.2252 78.4811 33.1073C78.6575 32.9894 78.856 32.9087 79.0647 32.8701C79.2733 32.8315 79.4876 32.8359 79.6944 32.883C79.9013 32.93 80.0964 33.0188 80.2677 33.1439C80.4391 33.2689 80.5832 33.4276 80.6912 33.6102L94.7312 54.6702C94.8458 54.8406 94.9256 55.032 94.9661 55.2333C95.0065 55.4347 95.0068 55.642 94.967 55.8435C94.9271 56.045 94.8479 56.2366 94.7338 56.4073C94.6197 56.5781 94.473 56.7247 94.3022 56.8386C94.0475 57.0064 93.7492 57.0959 93.4442 57.096Z" stroke="#EE722E"/>
<path d="M96.2522 57.096C95.9445 57.0975 95.6433 57.0079 95.3864 56.8386C95.2149 56.7253 95.0675 56.5792 94.9526 56.4087C94.8378 56.2382 94.7578 56.0467 94.7172 55.8452C94.6766 55.6437 94.6762 55.4362 94.7161 55.2345C94.756 55.0329 94.8353 54.8411 94.9496 54.6702L108.99 33.6102C109.219 33.2658 109.576 33.0266 109.982 32.9455C110.388 32.8643 110.81 32.9477 111.154 33.1773C111.498 33.4069 111.738 33.764 111.819 34.1699C111.9 34.5758 111.817 34.9974 111.587 35.3418L97.547 56.4018C97.4047 56.6149 97.2122 56.7898 96.9864 56.9109C96.7606 57.0319 96.5084 57.0955 96.2522 57.096Z" stroke="#EE722E"/>
<path d="M59.7482 57.096C59.4919 57.0955 59.2397 57.0319 59.0139 56.9109C58.7881 56.7898 58.5956 56.6149 58.4534 56.4018L44.4134 35.3418C44.1837 34.9974 44.1003 34.5758 44.1815 34.1699C44.2627 33.764 44.5018 33.4069 44.8463 33.1773C45.1907 32.9477 45.6122 32.8643 46.0182 32.9455C46.4241 33.0266 46.7811 33.2658 47.0108 33.6102L61.0508 54.6702C61.165 54.8411 61.2443 55.0329 61.2842 55.2345C61.3241 55.4362 61.3237 55.6437 61.2831 55.8452C61.2425 56.0467 61.1625 56.2382 61.0477 56.4087C60.9328 56.5792 60.7854 56.7253 60.614 56.8386C60.3571 57.0079 60.0558 57.0975 59.7482 57.096Z" stroke="#EE722E"/>
<path d="M34.484 48.672C34.1763 48.6735 33.8751 48.5839 33.6182 48.4146C33.274 48.1858 33.0347 47.8297 32.9528 47.4247C32.8709 47.0196 32.9531 46.5985 33.1814 46.254L41.6054 33.618C41.7191 33.4474 41.8652 33.301 42.0355 33.1869C42.2058 33.0729 42.397 32.9935 42.598 32.9533C42.7989 32.9131 43.0059 32.9128 43.207 32.9526C43.408 32.9924 43.5993 33.0714 43.7699 33.1851C43.9404 33.2988 44.0869 33.445 44.2009 33.6153C44.315 33.7856 44.3944 33.9767 44.4346 34.1777C44.4748 34.3787 44.475 34.5856 44.4352 34.7867C44.3954 34.9878 44.3165 35.179 44.2028 35.3496L35.7788 47.9778C35.6365 48.1909 35.444 48.3658 35.2182 48.4869C34.9924 48.6079 34.7402 48.6715 34.484 48.672Z" stroke="#EE722E"/>
<path d="M121.516 36.0438H34.484C34.0702 36.0438 33.6734 35.8794 33.3809 35.5869C33.0883 35.2943 32.924 34.8975 32.924 34.4838C32.924 34.0701 33.0883 33.6733 33.3809 33.3807C33.6734 33.0882 34.0702 32.9238 34.484 32.9238H121.516C121.93 32.9238 122.327 33.0882 122.619 33.3807C122.912 33.6733 123.076 34.0701 123.076 34.4838C123.076 34.8975 122.912 35.2943 122.619 35.5869C122.327 35.8794 121.93 36.0438 121.516 36.0438Z" stroke="#EE722E"/>
<path d="M121.516 57.096H34.484C34.0702 57.096 33.6734 56.9316 33.3809 56.6391C33.0883 56.3465 32.924 55.9497 32.924 55.536C32.924 55.1223 33.0883 54.7255 33.3809 54.4329C33.6734 54.1404 34.0702 53.976 34.484 53.976H121.516C121.93 53.976 122.327 54.1404 122.619 54.4329C122.912 54.7255 123.076 55.1223 123.076 55.536C123.076 55.9497 122.912 56.3465 122.619 56.6391C122.327 56.9316 121.93 57.096 121.516 57.096Z" stroke="#EE722E"/>
</svg>
