<svg width="156" height="156" viewBox="0 0 156 156" fill="none" xmlns="http://www.w3.org/2000/svg">
<path d="M90.0898 116.735C81.9552 116.747 73.9996 114.347 67.229 109.838C60.4585 105.329 55.1771 98.9133 52.0527 91.4026C48.9283 83.8919 48.1013 75.6234 49.6762 67.6427C51.2511 59.662 55.1571 52.3275 60.9005 46.5667C66.6438 40.806 73.9664 36.8777 81.9423 35.2786C89.9182 33.6795 98.1891 34.4814 105.709 37.583C113.229 40.6846 119.661 45.9465 124.191 52.7033C128.72 59.4601 131.144 67.4084 131.157 75.543C131.161 86.4474 126.84 96.9082 119.141 104.631C111.442 112.353 100.994 116.706 90.0898 116.735ZM90.0898 37.8066C82.6067 37.7943 75.2883 40.0029 69.0613 44.1527C62.8343 48.3025 57.9789 54.207 55.1099 61.1182C52.2409 68.0295 51.4874 75.6367 52.9448 82.9764C54.4022 90.3162 58.005 97.0584 63.2969 102.349C68.5888 107.64 75.3317 111.241 82.6718 112.697C90.0119 114.153 97.6189 113.398 104.53 110.528C111.44 107.657 117.344 102.801 121.492 96.5728C125.641 90.345 127.848 83.0261 127.834 75.543C127.822 65.5371 123.841 55.9447 116.765 48.8703C109.689 41.7958 100.096 37.8169 90.0898 37.8066Z" fill="#EE722E"/>
<path d="M90.0898 103.818C84.4975 103.818 79.0308 102.16 74.381 99.0528C69.7312 95.9459 66.1071 91.53 63.9671 86.3634C61.827 81.1968 61.2671 75.5116 62.3581 70.0268C63.4491 64.542 66.142 59.5039 70.0963 55.5496C74.0507 51.5952 79.0888 48.9023 84.5736 47.8113C90.0584 46.7203 95.7436 47.2802 100.91 49.4203C106.077 51.5604 110.493 55.1845 113.6 59.8343C116.706 64.4841 118.365 69.9507 118.365 75.543C118.357 83.0395 115.375 90.2265 110.074 95.5273C104.773 100.828 97.5862 103.81 90.0898 103.818ZM90.0898 50.5986C85.1531 50.5986 80.3274 52.0625 76.2227 54.8051C72.1181 57.5478 68.9189 61.446 67.0297 66.0068C65.1406 70.5677 64.6463 75.5863 65.6094 80.4281C66.5725 85.2698 68.9497 89.7173 72.4404 93.208C75.9311 96.6987 80.3786 99.0759 85.2203 100.039C90.0621 101.002 95.0807 100.508 99.6415 98.6186C104.202 96.7295 108.101 93.5303 110.843 89.4256C113.586 85.321 115.05 80.4952 115.05 75.5586C115.05 68.9388 112.42 62.5901 107.739 57.9092C103.058 53.2283 96.7096 50.5986 90.0898 50.5986Z" fill="#EE722E"/>
<path d="M90.0898 89.7C87.296 89.7 84.5649 88.8715 82.2419 87.3194C79.9189 85.7672 78.1084 83.5611 77.0392 80.9799C75.9701 78.3988 75.6903 75.5585 76.2354 72.8184C76.7804 70.0783 78.1258 67.5613 80.1013 65.5858C82.0769 63.6102 84.5938 62.2649 87.334 61.7198C90.0741 61.1748 92.9143 61.4545 95.4955 62.5237C98.0766 63.5928 100.283 65.4034 101.835 67.7263C103.387 70.0493 104.216 72.7804 104.216 75.5742C104.211 79.3193 102.722 82.9099 100.074 85.5581C97.4255 88.2063 93.8349 89.6959 90.0898 89.7ZM90.0898 64.779C87.9525 64.7775 85.8628 65.4099 84.085 66.5964C82.3073 67.7828 80.9214 69.47 80.1028 71.4443C79.2842 73.4186 79.0696 75.5913 79.4862 77.6876C79.9028 79.784 80.9318 81.7096 82.4431 83.2209C83.9544 84.7322 85.88 85.7612 87.9763 86.1778C90.0726 86.5944 92.2454 86.3798 94.2197 85.5612C96.194 84.7426 97.8811 83.3567 99.0676 81.579C100.254 79.8012 100.887 77.7115 100.885 75.5742C100.888 74.1539 100.611 72.7468 100.07 71.4335C99.5293 70.1202 98.7349 68.9263 97.7324 67.9202C96.7298 66.914 95.5389 66.1153 94.2275 65.5696C92.9162 65.024 91.5101 64.7421 90.0898 64.74V64.779Z" fill="#EE722E"/>
<path d="M90.004 116.641H49.5532C49.1132 116.639 48.6918 116.463 48.3807 116.152C48.0695 115.841 47.8938 115.42 47.8918 114.98V103.896C47.8918 103.455 48.0668 103.033 48.3784 102.721C48.69 102.41 49.1125 102.235 49.5532 102.235H62.743C62.9612 102.235 63.1772 102.278 63.3788 102.361C63.5803 102.445 63.7635 102.567 63.9178 102.721C64.072 102.875 64.1944 103.059 64.2779 103.26C64.3614 103.462 64.4044 103.678 64.4044 103.896C64.4044 104.114 64.3614 104.33 64.2779 104.532C64.1944 104.733 64.072 104.917 63.9178 105.071C63.7635 105.225 63.5803 105.347 63.3788 105.431C63.1772 105.514 62.9612 105.557 62.743 105.557H51.2146V113.311H90.004C90.4259 113.339 90.8212 113.528 91.1099 113.837C91.3986 114.146 91.5591 114.553 91.5591 114.976C91.5591 115.399 91.3986 115.806 91.1099 116.115C90.8212 116.424 90.4259 116.612 90.004 116.641Z" fill="#EE722E"/>
<path d="M49.5064 121.516H43.7578C43.3212 121.51 42.9046 121.332 42.5981 121.021C42.2916 120.71 42.1197 120.291 42.1198 119.855V99.3174C42.1198 98.8768 42.2948 98.4542 42.6064 98.1426C42.918 97.831 43.3405 97.656 43.7812 97.656H49.5298C49.9704 97.656 50.393 97.831 50.7046 98.1426C51.0161 98.4542 51.1912 98.8768 51.1912 99.3174V119.855C51.1912 120.075 51.1475 120.293 51.0625 120.496C50.9776 120.699 50.8531 120.883 50.6963 121.038C50.5396 121.193 50.3536 121.314 50.1494 121.397C49.9451 121.479 49.7265 121.519 49.5064 121.516ZM45.4192 118.193H47.845V100.979H45.4192V118.193Z" fill="#EE722E"/>
<path d="M43.7578 116.914C43.6593 116.926 43.5598 116.926 43.4614 116.914L26.2234 113.833C25.8398 113.764 25.493 113.562 25.2434 113.262C24.9939 112.963 24.8576 112.585 24.8584 112.195V107.039C24.8576 106.65 24.9939 106.272 25.2434 105.973C25.493 105.673 25.8398 105.471 26.2234 105.401L43.4614 102.281C43.7013 102.236 43.9483 102.244 44.1845 102.306C44.4207 102.368 44.64 102.482 44.8264 102.64C45.0119 102.796 45.1611 102.991 45.2635 103.21C45.3659 103.43 45.4191 103.669 45.4192 103.912V115.245C45.4191 115.487 45.3659 115.727 45.2635 115.946C45.1611 116.166 45.0119 116.361 44.8264 116.516C44.5266 116.768 44.1491 116.909 43.7578 116.914ZM28.1578 110.776L42.1198 113.264V105.908L28.1812 108.42L28.1578 110.776Z" fill="#EE722E"/>
<path d="M26.5198 117.858C26.0811 117.86 25.6592 117.689 25.3453 117.383C25.0315 117.076 24.851 116.659 24.8428 116.22V102.898C24.8428 102.457 25.0178 102.034 25.3294 101.723C25.641 101.411 26.0635 101.236 26.5042 101.236C26.9448 101.236 27.3674 101.411 27.679 101.723C27.9905 102.034 28.1656 102.457 28.1656 102.898V116.22C28.1595 116.654 27.9839 117.068 27.6763 117.374C27.3688 117.68 26.9537 117.854 26.5198 117.858Z" fill="#EE722E"/>
<path d="M90.0898 116.735C81.9552 116.747 73.9996 114.347 67.229 109.838C60.4585 105.329 55.1771 98.9133 52.0527 91.4026C48.9283 83.8919 48.1013 75.6234 49.6762 67.6427C51.2511 59.662 55.1571 52.3275 60.9005 46.5667C66.6438 40.806 73.9664 36.8777 81.9423 35.2786C89.9182 33.6795 98.1891 34.4814 105.709 37.583C113.229 40.6846 119.661 45.9465 124.191 52.7033C128.72 59.4601 131.144 67.4084 131.157 75.543C131.161 86.4474 126.84 96.9082 119.141 104.631C111.442 112.353 100.994 116.706 90.0898 116.735ZM90.0898 37.8066C82.6067 37.7943 75.2883 40.0029 69.0613 44.1527C62.8343 48.3025 57.9789 54.207 55.1099 61.1182C52.2409 68.0295 51.4874 75.6367 52.9448 82.9764C54.4022 90.3162 58.005 97.0584 63.2969 102.349C68.5888 107.64 75.3317 111.241 82.6718 112.697C90.0119 114.153 97.6189 113.398 104.53 110.528C111.44 107.657 117.344 102.801 121.492 96.5728C125.641 90.345 127.848 83.0261 127.834 75.543C127.822 65.5371 123.841 55.9447 116.765 48.8703C109.689 41.7958 100.096 37.8169 90.0898 37.8066Z" stroke="#EE722E"/>
<path d="M90.0898 103.818C84.4975 103.818 79.0308 102.16 74.381 99.0528C69.7312 95.9459 66.1071 91.53 63.9671 86.3634C61.827 81.1968 61.2671 75.5116 62.3581 70.0268C63.4491 64.542 66.142 59.5039 70.0963 55.5496C74.0507 51.5952 79.0888 48.9023 84.5736 47.8113C90.0584 46.7203 95.7436 47.2802 100.91 49.4203C106.077 51.5604 110.493 55.1845 113.6 59.8343C116.706 64.4841 118.365 69.9507 118.365 75.543C118.357 83.0395 115.375 90.2265 110.074 95.5273C104.773 100.828 97.5862 103.81 90.0898 103.818ZM90.0898 50.5986C85.1531 50.5986 80.3274 52.0625 76.2227 54.8051C72.1181 57.5478 68.9189 61.446 67.0297 66.0068C65.1406 70.5677 64.6463 75.5863 65.6094 80.4281C66.5725 85.2698 68.9497 89.7173 72.4404 93.208C75.9311 96.6987 80.3786 99.0759 85.2203 100.039C90.0621 101.002 95.0807 100.508 99.6415 98.6186C104.202 96.7295 108.101 93.5303 110.843 89.4256C113.586 85.321 115.05 80.4952 115.05 75.5586C115.05 68.9388 112.42 62.5901 107.739 57.9092C103.058 53.2283 96.7096 50.5986 90.0898 50.5986Z" stroke="#EE722E"/>
<path d="M90.0898 89.7C87.296 89.7 84.5649 88.8715 82.2419 87.3194C79.9189 85.7672 78.1084 83.5611 77.0392 80.9799C75.9701 78.3988 75.6903 75.5585 76.2354 72.8184C76.7804 70.0783 78.1258 67.5613 80.1013 65.5858C82.0769 63.6102 84.5938 62.2649 87.334 61.7198C90.0741 61.1748 92.9143 61.4545 95.4955 62.5237C98.0766 63.5928 100.283 65.4034 101.835 67.7263C103.387 70.0493 104.216 72.7804 104.216 75.5742C104.211 79.3193 102.722 82.9099 100.074 85.5581C97.4255 88.2063 93.8349 89.6959 90.0898 89.7ZM90.0898 64.779C87.9525 64.7775 85.8628 65.4099 84.085 66.5964C82.3073 67.7828 80.9214 69.47 80.1028 71.4443C79.2842 73.4186 79.0696 75.5913 79.4862 77.6876C79.9028 79.784 80.9318 81.7096 82.4431 83.2209C83.9544 84.7322 85.88 85.7612 87.9763 86.1778C90.0726 86.5944 92.2454 86.3798 94.2197 85.5612C96.194 84.7426 97.8811 83.3567 99.0676 81.579C100.254 79.8012 100.887 77.7115 100.885 75.5742C100.888 74.1539 100.611 72.7468 100.07 71.4335C99.5293 70.1202 98.7349 68.9263 97.7324 67.9202C96.7298 66.914 95.5389 66.1153 94.2275 65.5696C92.9162 65.024 91.5101 64.7421 90.0898 64.74V64.779Z" stroke="#EE722E"/>
<path d="M90.004 116.641H49.5532C49.1132 116.639 48.6918 116.463 48.3807 116.152C48.0695 115.841 47.8938 115.42 47.8918 114.98V103.896C47.8918 103.455 48.0668 103.033 48.3784 102.721C48.69 102.41 49.1125 102.235 49.5532 102.235H62.743C62.9612 102.235 63.1772 102.278 63.3788 102.361C63.5803 102.445 63.7635 102.567 63.9178 102.721C64.072 102.875 64.1944 103.059 64.2779 103.26C64.3614 103.462 64.4044 103.678 64.4044 103.896C64.4044 104.114 64.3614 104.33 64.2779 104.532C64.1944 104.733 64.072 104.917 63.9178 105.071C63.7635 105.225 63.5803 105.347 63.3788 105.431C63.1772 105.514 62.9612 105.557 62.743 105.557H51.2146V113.311H90.004C90.4259 113.339 90.8212 113.528 91.1099 113.837C91.3986 114.146 91.5591 114.553 91.5591 114.976C91.5591 115.399 91.3986 115.806 91.1099 116.115C90.8212 116.424 90.4259 116.612 90.004 116.641Z" stroke="#EE722E"/>
<path d="M49.5064 121.516H43.7578C43.3212 121.51 42.9046 121.332 42.5981 121.021C42.2916 120.71 42.1197 120.291 42.1198 119.855V99.3174C42.1198 98.8768 42.2948 98.4542 42.6064 98.1426C42.918 97.831 43.3405 97.656 43.7812 97.656H49.5298C49.9704 97.656 50.393 97.831 50.7046 98.1426C51.0161 98.4542 51.1912 98.8768 51.1912 99.3174V119.855C51.1912 120.075 51.1475 120.293 51.0625 120.496C50.9776 120.699 50.8531 120.883 50.6963 121.038C50.5396 121.193 50.3536 121.314 50.1494 121.397C49.9451 121.479 49.7265 121.519 49.5064 121.516ZM45.4192 118.193H47.845V100.979H45.4192V118.193Z" stroke="#EE722E"/>
<path d="M43.7578 116.914C43.6593 116.926 43.5598 116.926 43.4614 116.914L26.2234 113.833C25.8398 113.764 25.493 113.562 25.2434 113.262C24.9939 112.963 24.8576 112.585 24.8584 112.195V107.039C24.8576 106.65 24.9939 106.272 25.2434 105.973C25.493 105.673 25.8398 105.471 26.2234 105.401L43.4614 102.281C43.7013 102.236 43.9483 102.244 44.1845 102.306C44.4207 102.368 44.64 102.482 44.8264 102.64C45.0119 102.796 45.1611 102.991 45.2635 103.21C45.3659 103.43 45.4191 103.669 45.4192 103.912V115.245C45.4191 115.487 45.3659 115.727 45.2635 115.946C45.1611 116.166 45.0119 116.361 44.8264 116.516C44.5266 116.768 44.1491 116.909 43.7578 116.914ZM28.1578 110.776L42.1198 113.264V105.908L28.1812 108.42L28.1578 110.776Z" stroke="#EE722E"/>
<path d="M26.5198 117.858C26.0811 117.86 25.6592 117.689 25.3453 117.383C25.0315 117.076 24.851 116.659 24.8428 116.22V102.898C24.8428 102.457 25.0178 102.034 25.3294 101.723C25.641 101.411 26.0635 101.236 26.5042 101.236C26.9448 101.236 27.3674 101.411 27.679 101.723C27.9905 102.034 28.1656 102.457 28.1656 102.898V116.22C28.1595 116.654 27.9839 117.068 27.6763 117.374C27.3688 117.68 26.9537 117.854 26.5198 117.858Z" stroke="#EE722E"/>
</svg>
