<svg width="156" height="156" viewBox="0 0 156 156" fill="none" xmlns="http://www.w3.org/2000/svg">
<path d="M104.146 128.466H51.8855C49.6806 128.48 47.4978 128.026 45.4811 127.135C43.4644 126.243 41.6595 124.934 40.1855 123.295C38.6984 121.664 37.5686 119.741 36.8687 117.648C36.1689 115.555 35.9144 113.339 36.1217 111.142C36.3351 109.058 36.9693 107.038 37.9859 105.206L58.8509 66.9864C59.6651 65.4469 60.0807 63.728 60.0599 61.9866V47.7984C58.4358 46.8336 57.0898 45.4641 56.1533 43.8235C55.2168 42.1829 54.7219 40.3274 54.7169 38.4384C54.7169 35.5422 55.8674 32.7647 57.9153 30.7168C59.9632 28.6689 62.7408 27.5184 65.637 27.5184H90.3474C92.7288 27.5338 95.0399 28.3273 96.9286 29.778C98.8172 31.2287 100.18 33.257 100.809 35.554C101.438 37.8509 101.299 40.2905 100.413 42.501C99.5267 44.7115 97.9423 46.5718 95.9009 47.7984V61.9788C95.9002 63.718 96.3375 65.4294 97.1724 66.9552L118.03 105.175C119.047 107.013 119.683 109.037 119.902 111.127C120.108 113.324 119.853 115.539 119.153 117.632C118.453 119.725 117.324 121.648 115.838 123.279C114.366 124.921 112.563 126.232 110.548 127.126C108.532 128.02 106.35 128.477 104.146 128.466ZM65.6448 30.654C63.8851 30.6695 62.1824 31.2796 60.8133 32.3851C59.4442 33.4906 58.4891 35.0265 58.1033 36.7434C57.7174 38.4603 57.9235 40.2572 58.6879 41.8422C59.4524 43.4272 60.7303 44.7071 62.3141 45.474C62.5729 45.6026 62.7908 45.8004 62.9437 46.0456C63.0966 46.2907 63.1783 46.5735 63.1799 46.8624V61.9866C63.177 64.2453 62.6114 66.4676 61.5341 68.4528L40.6691 106.673C39.8572 108.14 39.348 109.755 39.1715 111.423C39.0073 113.186 39.2131 114.964 39.7759 116.643C40.3387 118.322 41.246 119.865 42.4397 121.173C43.62 122.484 45.0638 123.532 46.6767 124.247C48.2897 124.962 50.0354 125.329 51.7998 125.323H104.06C105.824 125.329 107.57 124.962 109.183 124.247C110.796 123.532 112.24 122.484 113.42 121.173C115.212 119.251 116.348 116.81 116.664 114.202C116.981 111.594 116.462 108.952 115.183 106.657L94.3254 68.4372C93.2411 66.4516 92.6725 64.2256 92.6717 61.9632V46.8702C92.6711 46.5748 92.7543 46.2854 92.9117 46.0354C93.0692 45.7855 93.2943 45.5854 93.5609 45.4584C95.1442 44.6918 96.4218 43.4126 97.1864 41.8284C97.951 40.2442 98.1577 38.448 97.7728 36.7316C97.388 35.0151 96.4342 33.4791 95.0664 32.373C93.6987 31.2669 91.9971 30.6556 90.2382 30.6384L65.6448 30.654Z" fill="#EE722E"/>
<path d="M104.146 119.535H51.8855C50.928 119.541 49.9799 119.345 49.1034 118.959C48.227 118.574 47.442 118.007 46.7999 117.296C46.1512 116.587 45.6574 115.751 45.3499 114.84C45.0423 113.93 44.9278 112.965 45.0137 112.008C45.1155 111.113 45.3967 110.249 45.8406 109.465L55.1225 92.4456C55.2631 92.1869 55.4741 91.9733 55.7309 91.8294C59.1107 89.9079 62.9518 88.9477 66.8382 89.0526C73.7334 89.0526 77.3526 91.3926 80.5428 93.4206C83.733 95.4486 86.3459 97.149 92.0555 97.149C95.0352 97.2468 97.9884 96.561 100.62 95.16C100.983 94.9659 101.409 94.9234 101.803 95.0418C102.198 95.1602 102.529 95.4298 102.726 95.7918L110.175 109.442C110.619 110.228 110.9 111.095 111.002 111.992C111.088 112.95 110.973 113.914 110.666 114.825C110.358 115.735 109.864 116.572 109.216 117.281C108.577 117.992 107.795 118.561 106.921 118.949C106.047 119.338 105.102 119.537 104.146 119.535ZM57.6108 94.38L48.5472 110.994C48.3064 111.409 48.15 111.868 48.087 112.343C48.0425 112.868 48.1076 113.396 48.2781 113.894C48.4487 114.393 48.7209 114.85 49.0775 115.237C49.429 115.624 49.858 115.932 50.3364 116.141C50.8148 116.351 51.332 116.457 51.8544 116.454H104.114C104.637 116.457 105.154 116.351 105.632 116.141C106.111 115.932 106.54 115.624 106.891 115.237C107.248 114.85 107.52 114.393 107.691 113.894C107.861 113.396 107.926 112.868 107.882 112.343C107.818 111.864 107.659 111.403 107.414 110.986L100.682 98.6388C97.9505 99.7915 95.004 100.347 92.0399 100.269C85.4099 100.269 82.0715 98.124 78.8424 96.0492C75.7224 94.0524 72.8051 92.1492 66.8225 92.1492C63.6087 92.0649 60.43 92.8347 57.6108 94.38Z" fill="#EE722E"/>
<path d="M88.92 89.7C87.6716 89.7 86.4513 89.3297 85.4134 88.636C84.3755 87.9423 83.5667 86.9563 83.0893 85.8028C82.612 84.6493 82.4875 83.3801 82.7316 82.1559C82.9757 80.9316 83.5775 79.8072 84.4607 78.9251C85.344 78.0429 86.4691 77.4425 87.6937 77.1999C88.9183 76.9573 90.1873 77.0834 91.3402 77.5622C92.4931 78.041 93.4781 78.851 94.1705 79.8897C94.8629 80.9285 95.2317 82.1492 95.2301 83.3976C95.2281 85.0698 94.5624 86.6728 93.3792 87.8545C92.196 89.0363 90.5922 89.7 88.92 89.7ZM88.92 80.2074C88.289 80.2074 87.6722 80.3945 87.1476 80.745C86.6229 81.0956 86.2141 81.5938 85.9726 82.1768C85.7311 82.7597 85.668 83.4011 85.791 84.02C85.9141 84.6388 86.218 85.2073 86.6641 85.6534C87.1103 86.0996 87.6787 86.4034 88.2976 86.5265C88.9164 86.6496 89.5579 86.5864 90.1408 86.345C90.7237 86.1035 91.222 85.6946 91.5725 85.17C91.923 84.6454 92.1101 84.0286 92.1101 83.3976C92.1122 82.9773 92.0312 82.5608 91.8718 82.172C91.7124 81.7831 91.4777 81.4296 91.1813 81.1317C90.8849 80.8338 90.5325 80.5974 90.1444 80.4361C89.7563 80.2748 89.3402 80.1918 88.92 80.1918V80.2074Z" fill="#EE722E"/>
<path d="M81.627 73.8582C80.6057 73.8582 79.6074 73.5554 78.7582 72.988C77.9091 72.4206 77.2472 71.6142 76.8564 70.6706C76.4656 69.7271 76.3633 68.6889 76.5626 67.6872C76.7618 66.6856 77.2536 65.7655 77.9757 65.0434C78.6979 64.3212 79.6179 63.8295 80.6196 63.6302C81.6212 63.431 82.6595 63.5332 83.603 63.9241C84.5465 64.3149 85.3529 64.9767 85.9203 65.8259C86.4877 66.675 86.7906 67.6733 86.7906 68.6946C86.7885 70.0634 86.2438 71.3756 85.2759 72.3435C84.308 73.3115 82.9958 73.8561 81.627 73.8582ZM81.627 66.6588C81.2224 66.6588 80.827 66.7789 80.4908 67.0038C80.1545 67.2287 79.8926 67.5483 79.7382 67.9222C79.5837 68.296 79.5437 68.7073 79.6232 69.104C79.7027 69.5006 79.8981 69.8647 80.1847 70.1502C80.4713 70.4357 80.8361 70.6297 81.2331 70.7077C81.63 70.7857 82.0411 70.7441 82.4144 70.5882C82.7877 70.4323 83.1063 70.1692 83.3299 69.8321C83.5536 69.495 83.6721 69.0991 83.6706 68.6946C83.6685 68.154 83.4523 67.6362 83.0692 67.2546C82.6862 66.873 82.1676 66.6588 81.627 66.6588Z" fill="#EE722E"/>
<path d="M71.019 83.3976C69.8094 83.3993 68.6366 82.9819 67.7 82.2166C66.7635 81.4512 66.1209 80.3851 65.8815 79.1995C65.6422 78.0138 65.8209 76.7819 66.3872 75.7132C66.9536 74.6444 67.8726 73.8048 68.9881 73.3371C70.1035 72.8694 71.3465 72.8025 72.5057 73.1478C73.665 73.493 74.6688 74.2291 75.3466 75.2309C76.0244 76.2326 76.3344 77.4382 76.2237 78.6427C76.113 79.8472 75.5886 80.9761 74.7395 81.8376C74.2532 82.3305 73.674 82.7221 73.0354 82.9899C72.3967 83.2577 71.7114 83.3962 71.019 83.3976ZM71.019 76.0188C70.4542 76.0188 69.9126 76.2432 69.5132 76.6425C69.1139 77.0418 68.8895 77.5835 68.8895 78.1482C68.8882 78.4292 68.9426 78.7076 69.0497 78.9674C69.1569 79.2272 69.3145 79.4631 69.5135 79.6614C69.9152 80.0591 70.4576 80.2823 71.0229 80.2823C71.5881 80.2823 72.1305 80.0591 72.5321 79.6614C72.7312 79.4631 72.8888 79.2272 72.9959 78.9674C73.1031 78.7076 73.1575 78.4292 73.1562 78.1482C73.1562 77.8679 73.1008 77.5904 72.9933 77.3315C72.8858 77.0727 72.7283 76.8376 72.5297 76.6397C72.3312 76.4419 72.0955 76.2852 71.8362 76.1787C71.577 76.0721 71.2992 76.0178 71.019 76.0188Z" fill="#EE722E"/>
<path d="M104.146 128.466H51.8855C49.6806 128.48 47.4978 128.026 45.4811 127.135C43.4644 126.243 41.6595 124.934 40.1855 123.295C38.6984 121.664 37.5686 119.741 36.8687 117.648C36.1689 115.555 35.9144 113.339 36.1217 111.142C36.3351 109.058 36.9693 107.038 37.9859 105.206L58.8509 66.9864C59.6651 65.4469 60.0807 63.728 60.0599 61.9866V47.7984C58.4358 46.8336 57.0898 45.4641 56.1533 43.8235C55.2168 42.1829 54.7219 40.3274 54.7169 38.4384C54.7169 35.5422 55.8674 32.7647 57.9153 30.7168C59.9632 28.6689 62.7408 27.5184 65.637 27.5184H90.3474C92.7288 27.5338 95.0399 28.3273 96.9286 29.778C98.8172 31.2287 100.18 33.257 100.809 35.554C101.438 37.8509 101.299 40.2905 100.413 42.501C99.5267 44.7115 97.9423 46.5718 95.9009 47.7984V61.9788C95.9002 63.718 96.3375 65.4294 97.1724 66.9552L118.03 105.175C119.047 107.013 119.683 109.037 119.902 111.127C120.108 113.324 119.853 115.539 119.153 117.632C118.453 119.725 117.324 121.648 115.838 123.279C114.366 124.921 112.563 126.232 110.548 127.126C108.532 128.02 106.35 128.477 104.146 128.466ZM65.6448 30.654C63.8851 30.6695 62.1824 31.2796 60.8133 32.3851C59.4442 33.4906 58.4891 35.0265 58.1033 36.7434C57.7174 38.4603 57.9235 40.2572 58.6879 41.8422C59.4524 43.4272 60.7303 44.7071 62.3141 45.474C62.5729 45.6026 62.7908 45.8004 62.9437 46.0456C63.0966 46.2907 63.1783 46.5735 63.1799 46.8624V61.9866C63.177 64.2453 62.6114 66.4676 61.5341 68.4528L40.6691 106.673C39.8572 108.14 39.348 109.755 39.1715 111.423C39.0073 113.186 39.2131 114.964 39.7759 116.643C40.3387 118.322 41.246 119.865 42.4397 121.173C43.62 122.484 45.0638 123.532 46.6767 124.247C48.2897 124.962 50.0354 125.329 51.7998 125.323H104.06C105.824 125.329 107.57 124.962 109.183 124.247C110.796 123.532 112.24 122.484 113.42 121.173C115.212 119.251 116.348 116.81 116.664 114.202C116.981 111.594 116.462 108.952 115.183 106.657L94.3254 68.4372C93.2411 66.4516 92.6725 64.2256 92.6717 61.9632V46.8702C92.6711 46.5748 92.7543 46.2854 92.9117 46.0354C93.0692 45.7855 93.2943 45.5854 93.5609 45.4584C95.1442 44.6918 96.4218 43.4126 97.1864 41.8284C97.951 40.2442 98.1577 38.448 97.7728 36.7316C97.388 35.0151 96.4342 33.4791 95.0664 32.373C93.6987 31.2669 91.9971 30.6556 90.2382 30.6384L65.6448 30.654Z" stroke="#EE722E"/>
<path d="M104.146 119.535H51.8855C50.928 119.541 49.9799 119.345 49.1034 118.959C48.227 118.574 47.442 118.007 46.7999 117.296C46.1512 116.587 45.6574 115.751 45.3499 114.84C45.0423 113.93 44.9278 112.965 45.0137 112.008C45.1155 111.113 45.3967 110.249 45.8406 109.465L55.1225 92.4456C55.2631 92.1869 55.4741 91.9733 55.7309 91.8294C59.1107 89.9079 62.9518 88.9477 66.8382 89.0526C73.7334 89.0526 77.3526 91.3926 80.5428 93.4206C83.733 95.4486 86.3459 97.149 92.0555 97.149C95.0352 97.2468 97.9884 96.561 100.62 95.16C100.983 94.9659 101.409 94.9234 101.803 95.0418C102.198 95.1602 102.529 95.4298 102.726 95.7918L110.175 109.442C110.619 110.228 110.9 111.095 111.002 111.992C111.088 112.95 110.973 113.914 110.666 114.825C110.358 115.735 109.864 116.572 109.216 117.281C108.577 117.992 107.795 118.561 106.921 118.949C106.047 119.338 105.102 119.537 104.146 119.535ZM57.6108 94.38L48.5472 110.994C48.3064 111.409 48.15 111.868 48.087 112.343C48.0425 112.868 48.1076 113.396 48.2781 113.894C48.4487 114.393 48.7209 114.85 49.0775 115.237C49.429 115.624 49.858 115.932 50.3364 116.141C50.8148 116.351 51.332 116.457 51.8544 116.454H104.114C104.637 116.457 105.154 116.351 105.632 116.141C106.111 115.932 106.54 115.624 106.891 115.237C107.248 114.85 107.52 114.393 107.691 113.894C107.861 113.396 107.926 112.868 107.882 112.343C107.818 111.864 107.659 111.403 107.414 110.986L100.682 98.6388C97.9505 99.7915 95.004 100.347 92.0399 100.269C85.4099 100.269 82.0715 98.124 78.8424 96.0492C75.7224 94.0524 72.8051 92.1492 66.8225 92.1492C63.6087 92.0649 60.43 92.8347 57.6108 94.38Z" stroke="#EE722E"/>
<path d="M88.92 89.7C87.6716 89.7 86.4513 89.3297 85.4134 88.636C84.3755 87.9423 83.5667 86.9563 83.0893 85.8028C82.612 84.6493 82.4875 83.3801 82.7316 82.1559C82.9757 80.9316 83.5775 79.8072 84.4607 78.9251C85.344 78.0429 86.4691 77.4425 87.6937 77.1999C88.9183 76.9573 90.1873 77.0834 91.3402 77.5622C92.4931 78.041 93.4781 78.851 94.1705 79.8897C94.8629 80.9285 95.2317 82.1492 95.2301 83.3976C95.2281 85.0698 94.5624 86.6728 93.3792 87.8545C92.196 89.0363 90.5922 89.7 88.92 89.7ZM88.92 80.2074C88.289 80.2074 87.6722 80.3945 87.1476 80.745C86.6229 81.0956 86.2141 81.5938 85.9726 82.1768C85.7311 82.7597 85.668 83.4011 85.791 84.02C85.9141 84.6388 86.218 85.2073 86.6641 85.6534C87.1103 86.0996 87.6787 86.4034 88.2976 86.5265C88.9164 86.6496 89.5579 86.5864 90.1408 86.345C90.7237 86.1035 91.222 85.6946 91.5725 85.17C91.923 84.6454 92.1101 84.0286 92.1101 83.3976C92.1122 82.9773 92.0312 82.5608 91.8718 82.172C91.7124 81.7831 91.4777 81.4296 91.1813 81.1317C90.8849 80.8338 90.5325 80.5974 90.1444 80.4361C89.7563 80.2748 89.3402 80.1918 88.92 80.1918V80.2074Z" stroke="#EE722E"/>
<path d="M81.627 73.8582C80.6057 73.8582 79.6074 73.5554 78.7582 72.988C77.9091 72.4206 77.2472 71.6142 76.8564 70.6706C76.4656 69.7271 76.3633 68.6889 76.5626 67.6872C76.7618 66.6856 77.2536 65.7655 77.9757 65.0434C78.6979 64.3212 79.6179 63.8295 80.6196 63.6302C81.6212 63.431 82.6595 63.5332 83.603 63.9241C84.5465 64.3149 85.3529 64.9767 85.9203 65.8259C86.4877 66.675 86.7906 67.6733 86.7906 68.6946C86.7885 70.0634 86.2438 71.3756 85.2759 72.3435C84.308 73.3115 82.9958 73.8561 81.627 73.8582ZM81.627 66.6588C81.2224 66.6588 80.827 66.7789 80.4908 67.0038C80.1545 67.2287 79.8926 67.5483 79.7382 67.9222C79.5837 68.296 79.5437 68.7073 79.6232 69.104C79.7027 69.5006 79.8981 69.8647 80.1847 70.1502C80.4713 70.4357 80.8361 70.6297 81.2331 70.7077C81.63 70.7857 82.0411 70.7441 82.4144 70.5882C82.7877 70.4323 83.1063 70.1692 83.3299 69.8321C83.5536 69.495 83.6721 69.0991 83.6706 68.6946C83.6685 68.154 83.4523 67.6362 83.0692 67.2546C82.6862 66.873 82.1676 66.6588 81.627 66.6588Z" stroke="#EE722E"/>
<path d="M71.019 83.3976C69.8094 83.3993 68.6366 82.9819 67.7 82.2166C66.7635 81.4512 66.1209 80.3851 65.8815 79.1995C65.6422 78.0138 65.8209 76.7819 66.3872 75.7132C66.9536 74.6444 67.8726 73.8048 68.9881 73.3371C70.1035 72.8694 71.3465 72.8025 72.5057 73.1478C73.665 73.493 74.6688 74.2291 75.3466 75.2309C76.0244 76.2326 76.3344 77.4382 76.2237 78.6427C76.113 79.8472 75.5886 80.9761 74.7395 81.8376C74.2532 82.3305 73.674 82.7221 73.0354 82.9899C72.3967 83.2577 71.7114 83.3962 71.019 83.3976ZM71.019 76.0188C70.4542 76.0188 69.9126 76.2432 69.5132 76.6425C69.1139 77.0418 68.8895 77.5835 68.8895 78.1482C68.8882 78.4292 68.9426 78.7076 69.0497 78.9674C69.1569 79.2272 69.3145 79.4631 69.5135 79.6614C69.9152 80.0591 70.4576 80.2823 71.0229 80.2823C71.5881 80.2823 72.1305 80.0591 72.5321 79.6614C72.7312 79.4631 72.8888 79.2272 72.9959 78.9674C73.1031 78.7076 73.1575 78.4292 73.1562 78.1482C73.1562 77.8679 73.1008 77.5904 72.9933 77.3315C72.8858 77.0727 72.7283 76.8376 72.5297 76.6397C72.3312 76.4419 72.0955 76.2852 71.8362 76.1787C71.577 76.0721 71.2992 76.0178 71.019 76.0188Z" stroke="#EE722E"/>
</svg>
