<svg width="156" height="156" viewBox="0 0 156 156" fill="none" xmlns="http://www.w3.org/2000/svg">
<path d="M128.107 107.913L98.2799 78.078L119.051 57.3066C120.377 55.9806 121.428 54.4066 122.145 52.6743C122.862 50.942 123.231 49.0855 123.231 47.2106C123.231 45.3358 122.861 43.4794 122.143 41.7474C121.425 40.0154 120.373 38.4418 119.047 37.1163C117.721 35.7908 116.147 34.7395 114.415 34.0224C112.683 33.3053 110.826 32.9363 108.951 32.9367C107.077 32.9371 105.22 33.3067 103.488 34.0245C101.756 34.7423 100.183 35.7942 98.8571 37.1202L91.5329 44.46L78.0779 57.8838L48.2351 28.08C48.1009 27.9444 47.9411 27.8368 47.7651 27.7633C47.589 27.6898 47.4001 27.652 47.2094 27.652C47.0186 27.652 46.8297 27.6898 46.6537 27.7633C46.4776 27.8368 46.3179 27.9444 46.1837 28.08L28.0799 46.1838C27.9443 46.318 27.8366 46.4777 27.7632 46.6538C27.6897 46.8298 27.6519 47.0187 27.6519 47.2095C27.6519 47.4003 27.6897 47.5892 27.7632 47.7652C27.8366 47.9413 27.9443 48.101 28.0799 48.2352L51.8621 72.0486L57.8837 78.0702L42.6737 93.2802C42.5899 93.3676 42.5166 93.4645 42.4553 93.5688C42.451 93.5972 42.451 93.6262 42.4553 93.6546C42.4076 93.7407 42.3709 93.8324 42.3461 93.9276C42.3427 93.943 42.3427 93.959 42.3461 93.9744L36.7847 117.671C36.7354 117.883 36.7347 118.104 36.7827 118.317C36.8306 118.53 36.926 118.73 37.0617 118.9C37.1974 119.071 37.3699 119.209 37.5664 119.304C37.7629 119.4 37.9782 119.449 38.1965 119.449C38.3095 119.452 38.4224 119.439 38.5319 119.41L62.1737 113.88H62.2205C62.3145 113.852 62.4059 113.815 62.4935 113.771L62.5793 113.724C62.684 113.663 62.781 113.59 62.8679 113.506L78.0779 98.28L83.3975 103.6L91.2599 111.47L99.1613 119.34L107.905 128.092C108.178 128.362 108.547 128.513 108.931 128.513C109.315 128.513 109.683 128.362 109.956 128.092L128.107 109.98C128.377 109.707 128.529 109.338 128.529 108.954C128.529 108.57 128.377 108.202 128.107 107.929V107.913ZM77.0483 95.16L61.8383 110.37L57.7199 106.306L104.52 59.5062L108.607 63.5934L77.0483 95.16ZM48.1883 114.137L41.9483 107.897L44.4755 97.1334L58.9679 111.634L48.1883 114.137ZM60.9413 79.0842L92.5235 47.4942L96.6185 51.5814L49.8185 98.3814L45.7313 94.2864L60.9413 79.0842ZM99.8399 40.1934L115.923 56.2848L110.666 61.542L94.6061 45.4584L99.8399 40.1934ZM51.8699 100.456L98.6699 53.6562L102.468 57.4548L55.6685 104.255L51.8699 100.456ZM117 39.1716C118.947 41.1299 120.117 43.7286 120.292 46.4846C120.467 49.2407 119.635 51.9665 117.951 54.1554L101.993 38.22C104.183 36.5281 106.914 35.6915 109.676 35.8666C112.438 36.0418 115.041 37.2166 117 39.1716ZM54.9431 71.0268L64.4435 61.5186C64.6874 61.2422 64.8169 60.8833 64.8058 60.5148C64.7946 60.1463 64.6436 59.7959 64.3835 59.5348C64.1233 59.2736 63.7735 59.1213 63.405 59.1087C63.0366 59.0962 62.6772 59.2243 62.3999 59.4672L52.8917 68.9754L47.0573 63.18L53.5391 56.6982C53.6768 56.563 53.7866 56.402 53.8622 56.2243C53.9377 56.0467 53.9775 55.8559 53.9793 55.6629C53.9811 55.4699 53.9449 55.2784 53.8727 55.0993C53.8005 54.9203 53.6938 54.7573 53.5586 54.6195C53.4234 54.4817 53.2623 54.3719 53.0847 54.2964C52.9071 54.2209 52.7163 54.1811 52.5233 54.1792C52.3302 54.1774 52.1387 54.2137 51.9597 54.2858C51.7807 54.358 51.6176 54.4648 51.4799 54.6L45.0059 61.0896L39.1715 55.2552L48.6797 45.7548C48.9548 45.4828 49.1106 45.1126 49.1128 44.7257C49.115 44.3388 48.9634 43.9668 48.6914 43.6917C48.4193 43.4166 48.0492 43.2608 47.6622 43.2586C47.2753 43.2564 46.9034 43.408 46.6283 43.68L37.1201 53.2038L31.1297 47.2134L47.2133 31.1298L76.0265 59.9352L59.9351 76.0266L54.9431 71.0268ZM41.2151 111.275L44.8811 114.941L40.0919 116.064L41.2151 111.275ZM108.942 125.026L102.242 118.334L111.75 108.826C112.014 108.552 112.16 108.186 112.157 107.805C112.153 107.425 112.001 107.062 111.732 106.793C111.463 106.524 111.099 106.371 110.719 106.368C110.339 106.364 109.973 106.51 109.699 106.774L100.191 116.275L94.3799 110.448L100.862 103.966C101.134 103.693 101.286 103.323 101.285 102.938C101.285 102.552 101.131 102.183 100.858 101.911C100.585 101.639 100.215 101.486 99.8293 101.487C99.4439 101.488 99.0745 101.642 98.8025 101.915L92.3051 108.42L86.4785 102.586L95.9789 93.0774C96.2428 92.8037 96.3887 92.4374 96.3852 92.0572C96.3817 91.677 96.2292 91.3134 95.9603 91.0445C95.6915 90.7757 95.3279 90.6231 94.9477 90.6197C94.5675 90.6162 94.2012 90.7621 93.9275 91.026L84.4271 100.534L80.1293 96.2364L96.2129 80.1528L125.026 108.966L108.942 125.026Z" fill="#EE722E" stroke="#EE722E"/>
</svg>
