<svg width="162" height="162" viewBox="0 0 162 162" fill="none" xmlns="http://www.w3.org/2000/svg">
<path d="M81.0002 63.8847C78.9176 63.8847 76.8817 63.2671 75.1501 62.1101C73.4184 60.953 72.0688 59.3085 71.2718 57.3844C70.4748 55.4603 70.2662 53.343 70.6726 51.3004C71.0789 49.2578 72.0817 47.3815 73.5544 45.9089C75.027 44.4362 76.9033 43.4333 78.9459 43.027C80.9885 42.6207 83.1058 42.8293 85.0299 43.6263C86.954 44.4233 88.5985 45.7729 89.7556 47.5046C90.9126 49.2362 91.5302 51.2721 91.5302 53.3547C91.5302 54.7375 91.2579 56.1068 90.7287 57.3844C90.1995 58.6619 89.4239 59.8227 88.4461 60.8005C87.4683 61.7783 86.3074 62.554 85.0299 63.0832C83.7523 63.6123 82.383 63.8847 81.0002 63.8847ZM81.0002 46.008C79.5584 46.008 78.1489 46.4356 76.9501 47.2366C75.7513 48.0376 74.8169 49.1762 74.2651 50.5083C73.7134 51.8403 73.569 53.3061 73.8503 54.7202C74.1316 56.1343 74.8259 57.4333 75.8454 58.4528C76.8649 59.4723 78.1639 60.1667 79.578 60.4479C80.9921 60.7292 82.4579 60.5849 83.79 60.0331C85.1221 59.4813 86.2606 58.547 87.0616 57.3481C87.8627 56.1493 88.2902 54.7398 88.2902 53.298C88.2902 52.3407 88.1017 51.3927 87.7353 50.5083C87.3689 49.6238 86.832 48.8201 86.155 48.1432C85.4781 47.4663 84.6744 46.9293 83.79 46.5629C82.9055 46.1966 81.9576 46.008 81.0002 46.008Z" fill="#EE722E"/>
<path d="M119.516 128.79H42.4846C41.3806 128.788 40.2922 128.529 39.305 128.035C38.3178 127.541 37.4588 126.824 36.7954 125.942C36.132 125.06 35.6824 124.035 35.4819 122.95C35.2815 121.864 35.3356 120.747 35.6401 119.686L50.6413 67.7727C51.0756 66.2869 51.9796 64.9819 53.2179 64.0532C54.4562 63.1244 55.9622 62.622 57.5101 62.6211H63.1801C62.9776 62.2323 62.7913 61.8111 62.6131 61.4385C61.2632 58.3758 60.6986 55.0246 60.9705 51.6887C61.2425 48.3527 62.3423 45.1373 64.1705 42.3336C65.9986 39.5299 68.4973 37.2266 71.4403 35.6323C74.3832 34.038 77.6774 33.203 81.0244 33.203C84.3714 33.203 87.6656 34.038 90.6085 35.6323C93.5515 37.2266 96.0502 39.5299 97.8783 42.3336C99.7065 45.1373 100.806 48.3527 101.078 51.6887C101.35 55.0246 100.786 58.3758 99.4357 61.4385C99.2575 61.8354 99.0712 62.2485 98.8687 62.6211H104.539C106.084 62.6255 107.586 63.1295 108.821 64.058C110.056 64.9865 110.958 66.2896 111.391 67.7727L126.36 119.686C126.666 120.747 126.722 121.865 126.522 122.951C126.322 124.037 125.873 125.062 125.209 125.945C124.545 126.828 123.686 127.545 122.697 128.038C121.709 128.532 120.62 128.789 119.516 128.79ZM57.5101 65.8611C56.6667 65.8636 55.8467 66.1386 55.1724 66.6451C54.498 67.1517 54.0054 67.8625 53.7679 68.6718L38.7505 120.585C38.5836 121.164 38.5534 121.773 38.6625 122.366C38.7716 122.958 39.0168 123.517 39.3789 123.999C39.741 124.48 40.2101 124.871 40.749 125.14C41.288 125.409 41.8822 125.55 42.4846 125.55H119.516C120.119 125.55 120.714 125.41 121.254 125.14C121.794 124.87 122.263 124.479 122.625 123.996C122.988 123.514 123.233 122.954 123.341 122.36C123.449 121.767 123.418 121.156 123.25 120.577L108.249 68.6718C108.01 67.8599 107.515 67.1471 106.838 66.6403C106.16 66.1335 105.336 65.8601 104.49 65.8611H95.9365C95.637 65.8619 95.3432 65.7796 95.0876 65.6234C94.832 65.4673 94.6248 65.2433 94.4888 64.9764C94.3529 64.7096 94.2936 64.4103 94.3175 64.1117C94.3414 63.8132 94.4476 63.5271 94.6243 63.2853C95.3445 62.3 95.9582 61.2411 96.4549 60.1263C97.5836 57.557 98.054 54.7468 97.8234 51.9499C97.5929 49.1531 96.6687 46.4579 95.1344 44.1081C93.6002 41.7583 91.5043 39.8281 89.0364 38.4921C86.5685 37.1561 83.8064 36.4564 81.0001 36.4564C78.1938 36.4564 75.4317 37.1561 72.9638 38.4921C70.4959 39.8281 68.4001 41.7583 66.8658 44.1081C65.3315 46.4579 64.4073 49.1531 64.1768 51.9499C63.9462 54.7468 64.4166 57.557 65.5453 60.1263C66.0421 61.2411 66.6557 62.3 67.3759 63.2853C67.5526 63.5271 67.6588 63.8132 67.6827 64.1117C67.7067 64.4103 67.6474 64.7096 67.5114 64.9764C67.3754 65.2433 67.1682 65.4673 66.9126 65.6234C66.6571 65.7796 66.3632 65.8619 66.0637 65.8611H57.5101Z" fill="#EE722E"/>
<path d="M81.0002 63.8847C78.9176 63.8847 76.8817 63.2671 75.1501 62.1101C73.4184 60.953 72.0688 59.3085 71.2718 57.3844C70.4748 55.4603 70.2662 53.343 70.6726 51.3004C71.0789 49.2578 72.0817 47.3815 73.5544 45.9089C75.027 44.4362 76.9033 43.4333 78.9459 43.027C80.9885 42.6207 83.1058 42.8293 85.0299 43.6263C86.954 44.4233 88.5985 45.7729 89.7556 47.5046C90.9126 49.2362 91.5302 51.2721 91.5302 53.3547C91.5302 54.7375 91.2579 56.1068 90.7287 57.3844C90.1995 58.6619 89.4239 59.8227 88.4461 60.8005C87.4683 61.7783 86.3074 62.554 85.0299 63.0832C83.7523 63.6123 82.383 63.8847 81.0002 63.8847ZM81.0002 46.008C79.5584 46.008 78.1489 46.4356 76.9501 47.2366C75.7513 48.0376 74.8169 49.1762 74.2651 50.5083C73.7134 51.8403 73.569 53.3061 73.8503 54.7202C74.1316 56.1343 74.8259 57.4333 75.8454 58.4528C76.8649 59.4723 78.1639 60.1667 79.578 60.4479C80.9921 60.7292 82.4579 60.5849 83.79 60.0331C85.1221 59.4813 86.2606 58.547 87.0616 57.3481C87.8627 56.1493 88.2902 54.7398 88.2902 53.298C88.2902 52.3407 88.1017 51.3927 87.7353 50.5083C87.3689 49.6238 86.832 48.8201 86.155 48.1432C85.4781 47.4663 84.6744 46.9293 83.79 46.5629C82.9055 46.1966 81.9576 46.008 81.0002 46.008Z" fill="#EE722E"/>
</svg>
