<svg width="170" height="170" viewBox="0 0 170 170" fill="none" xmlns="http://www.w3.org/2000/svg">
<path d="M139.953 126.803H67.4646C45.3646 126.803 28.0161 116.731 28.0161 103.853V66.113C28.0161 53.2525 45.3391 43.163 67.4646 43.163C87.0741 43.163 106.922 49.419 106.922 61.3785C106.922 71.3065 90.4571 77.2395 74.5451 77.2395C55.1906 77.2395 44.5316 73.2785 44.5316 66.096C44.5316 59.126 55.7516 54.961 74.5451 54.961H76.2451V70.8305H72.8451V58.3865C56.4826 58.633 47.9316 62.3985 47.9316 66.113C47.9316 70.8135 58.3781 73.8565 74.5451 73.8565C89.9811 73.8565 103.522 68.034 103.522 61.3955C103.522 52.9465 88.0176 46.58 67.4646 46.58C47.6001 46.58 31.4501 55.3435 31.4501 66.113C31.4501 76.8825 47.6001 85.663 67.4986 85.663H139.987L139.953 126.803ZM31.4501 75.5905V103.87C31.4501 114.64 47.6001 123.42 67.4986 123.42H136.587V89.046H67.4646C51.1871 89.046 37.5106 83.5975 31.4501 75.5905Z" fill="#EE722E"/>
<path d="M47.9316 66.113H44.5316V77.911H47.9316V66.113Z" fill="#EE722E"/>
<path d="M106.922 61.3955H103.522V82.6285H106.922V61.3955Z" fill="#EE722E"/>
<path d="M121.074 108.588H117.674V125.103H121.074V108.588Z" fill="#EE722E"/>
<path d="M102.196 108.588H98.7956V125.103H102.196V108.588Z" fill="#EE722E"/>
<path d="M83.3256 108.588H79.9256V125.103H83.3256V108.588Z" fill="#EE722E"/>
<path d="M64.4471 106.225H61.0471V125.103H64.4471V106.225Z" fill="#EE722E"/>
<path d="M45.5686 101.507H42.1686V118.023H45.5686V101.507Z" fill="#EE722E"/>
</svg>
