<svg width="144" height="144" viewBox="0 0 144 144" fill="none" xmlns="http://www.w3.org/2000/svg">
<path d="M35.2798 28.1808H77.2342C77.4599 28.1802 77.6823 28.2346 77.8822 28.3392C78.061 28.4294 78.2163 28.5601 78.3358 28.7208L93.0238 43.4088C93.148 43.5338 93.2462 43.6822 93.313 43.8452C93.3797 44.0083 93.4136 44.183 93.4126 44.3592V59.4792L90.7198 62.1504V46.1592H79.7758C78.7434 46.1573 77.7537 45.7463 77.0236 45.0162C76.2935 44.2861 75.8825 43.2965 75.8806 42.264V30.852H35.2798C34.9552 30.852 34.6439 30.9809 34.4143 31.2105C34.1848 31.44 34.0558 31.7514 34.0558 32.076V111.924C34.0558 112.249 34.1848 112.56 34.4143 112.789C34.6439 113.019 34.9552 113.148 35.2798 113.148H89.5174C89.8415 113.146 90.1517 113.017 90.3809 112.787C90.61 112.558 90.7396 112.248 90.7414 111.924V91.44L93.4198 88.7616V111.917C93.416 112.95 93.0034 113.94 92.2722 114.669C91.541 115.399 90.5506 115.81 89.5174 115.812H35.2798C34.2461 115.812 33.2546 115.402 32.523 114.672C31.7913 113.941 31.3793 112.951 31.3774 111.917V32.076C31.3793 31.0423 31.7913 30.0515 32.523 29.3212C33.2546 28.5909 34.2461 28.1808 35.2798 28.1808ZM78.5734 32.7456V42.264C78.5753 42.5874 78.7051 42.8969 78.9345 43.1248C79.1638 43.3528 79.4741 43.4808 79.7974 43.4808H89.2798L78.5734 32.7456Z" fill="#EE722E"/>
<path d="M107.021 55.9872L111.55 60.516C112.234 61.2052 112.618 62.1369 112.618 63.108C112.618 64.0791 112.234 65.0108 111.55 65.7L80.2513 96.9912C80.076 97.1731 79.8504 97.2985 79.6033 97.3512L68.6737 100.519C68.4425 100.586 68.1975 100.59 67.9645 100.529C67.7315 100.469 67.5191 100.347 67.3496 100.176C67.1801 100.005 67.0598 99.7914 67.0014 99.5579C66.943 99.3244 66.9487 99.0794 67.0177 98.8488L70.2073 87.84C70.2677 87.6238 70.3845 87.4275 70.5457 87.2712L101.837 55.9728C102.177 55.6323 102.581 55.3622 103.026 55.1779C103.471 54.9937 103.948 54.8988 104.429 54.8988C104.91 54.8988 105.387 54.9937 105.832 55.1779C106.277 55.3622 106.681 55.6323 107.021 55.9728V55.9872ZM101.671 59.94L107.597 65.8656L109.656 63.8064C109.84 63.6204 109.943 63.3695 109.943 63.108C109.943 62.8465 109.84 62.5956 109.656 62.4096L105.12 57.8808C105.029 57.7881 104.92 57.7144 104.8 57.6641C104.68 57.6138 104.552 57.5879 104.422 57.5879C104.292 57.5879 104.163 57.6138 104.043 57.6641C103.923 57.7144 103.814 57.7881 103.723 57.8808L101.664 59.94H101.671ZM105.703 67.7592L99.7777 61.8264L73.3825 88.2288L79.3081 94.1544L105.703 67.7592ZM76.7593 95.3928L72.1441 90.7776L70.2577 97.2576L76.7377 95.3712L76.7593 95.3928Z" fill="#EE722E"/>
<path d="M45.5184 64.3752C45.1632 64.3752 44.8226 64.2341 44.5714 63.9829C44.3203 63.7318 44.1792 63.3912 44.1792 63.036C44.1792 62.6808 44.3203 62.3402 44.5714 62.089C44.8226 61.8379 45.1632 61.6968 45.5184 61.6968H66.7008C67.056 61.6968 67.3966 61.8379 67.6478 62.089C67.8989 62.3402 68.04 62.6808 68.04 63.036C68.04 63.3912 67.8989 63.7318 67.6478 63.9829C67.3966 64.2341 67.056 64.3752 66.7008 64.3752H45.5184Z" fill="#EE722E"/>
<path d="M45.5184 72.9864C45.3347 72.9999 45.1503 72.9754 44.9766 72.9143C44.8028 72.8533 44.6435 72.7572 44.5087 72.6318C44.3738 72.5065 44.2662 72.3547 44.1926 72.1859C44.119 72.0171 44.0811 71.8349 44.0811 71.6508C44.0811 71.4666 44.119 71.2845 44.1926 71.1157C44.2662 70.9469 44.3738 70.7951 44.5087 70.6697C44.6435 70.5444 44.8028 70.4482 44.9766 70.3872C45.1503 70.3262 45.3347 70.3017 45.5184 70.3152H79.272C79.4556 70.3017 79.6401 70.3262 79.8138 70.3872C79.9875 70.4482 80.1468 70.5444 80.2817 70.6697C80.4166 70.7951 80.5242 70.9469 80.5978 71.1157C80.6713 71.2845 80.7093 71.4666 80.7093 71.6508C80.7093 71.8349 80.6713 72.0171 80.5978 72.1859C80.5242 72.3547 80.4166 72.5065 80.2817 72.6318C80.1468 72.7572 79.9875 72.8533 79.8138 72.9143C79.6401 72.9754 79.4556 72.9999 79.272 72.9864H45.5184Z" fill="#EE722E"/>
<path d="M45.5184 81.6048C45.3425 81.6048 45.1684 81.5702 45.0059 81.5029C44.8434 81.4355 44.6958 81.3369 44.5714 81.2125C44.4471 81.0882 44.3484 80.9406 44.2811 80.7781C44.2138 80.6156 44.1792 80.4415 44.1792 80.2656C44.1792 80.0897 44.2138 79.9156 44.2811 79.7531C44.3484 79.5906 44.4471 79.443 44.5714 79.3186C44.6958 79.1943 44.8434 79.0956 45.0059 79.0283C45.1684 78.961 45.3425 78.9264 45.5184 78.9264H71.28C71.6352 78.9264 71.9758 79.0675 72.227 79.3186C72.4781 79.5698 72.6192 79.9104 72.6192 80.2656C72.6192 80.6208 72.4781 80.9614 72.227 81.2125C71.9758 81.4637 71.6352 81.6048 71.28 81.6048H45.5184Z" fill="#EE722E"/>
<path d="M45.5184 90.216C45.1632 90.216 44.8226 90.0749 44.5714 89.8238C44.3203 89.5726 44.1792 89.232 44.1792 88.8768C44.1792 88.5216 44.3203 88.181 44.5714 87.9298C44.8226 87.6787 45.1632 87.5376 45.5184 87.5376H65.5992C65.9544 87.5376 66.295 87.6787 66.5462 87.9298C66.7973 88.181 66.9384 88.5216 66.9384 88.8768C66.9384 89.232 66.7973 89.5726 66.5462 89.8238C66.295 90.0749 65.9544 90.216 65.5992 90.216H45.5184Z" fill="#EE722E"/>
<path d="M45.5184 98.8272C45.1632 98.8272 44.8226 98.6861 44.5714 98.435C44.3203 98.1838 44.1792 97.8432 44.1792 97.488C44.1792 97.1328 44.3203 96.7922 44.5714 96.541C44.8226 96.2899 45.1632 96.1488 45.5184 96.1488H62.3304C62.6856 96.1488 63.0262 96.2899 63.2774 96.541C63.5285 96.7922 63.6696 97.1328 63.6696 97.488C63.6696 97.8432 63.5285 98.1838 63.2774 98.435C63.0262 98.6861 62.6856 98.8272 62.3304 98.8272H45.5184Z" fill="#EE722E"/>
</svg>
