<svg width="148" height="148" viewBox="0 0 148 148" fill="none" xmlns="http://www.w3.org/2000/svg">
<path fill-rule="evenodd" clip-rule="evenodd" d="M33.0705 52.096L36.0305 53.6648C38.4263 49.1998 41.59 45.1919 45.3767 41.8248C48.5844 44.3493 52.113 46.4371 55.8699 48.0334L54.6341 52.5104L57.8309 53.28L58.9483 49.21C68.7081 52.545 79.299 52.545 89.0589 49.21L90.1763 53.28L93.4027 52.4956L92.1669 48.0186C95.9224 46.4239 99.4486 44.336 102.653 41.81C106.444 45.1749 109.61 49.1832 112.006 53.65L114.966 52.0812C111.004 44.6685 105.104 38.4708 97.8948 34.1496C90.6856 29.8284 82.4382 27.546 74.0332 27.546C65.6281 27.546 57.3808 29.8284 50.1716 34.1496C42.9625 38.4708 37.062 44.6685 33.1001 52.0812L33.0705 52.096ZM51.8961 37C50.547 37.8069 49.2427 38.6863 47.9889 39.6344C50.7433 41.7155 53.74 43.4549 56.9133 44.8144C58.2197 41.1513 60.0412 37.6928 62.3227 34.5432C63.0143 33.6082 63.7736 32.7253 64.5945 31.9014C60.1165 32.9115 55.8293 34.6329 51.8961 37ZM96.1037 37C92.1685 34.6453 87.8813 32.9364 83.4053 31.9384C84.2286 32.7621 84.9904 33.6451 85.6845 34.5802C87.9632 37.7316 89.7844 41.1896 91.0939 44.8514C94.2657 43.4935 97.2601 41.754 100.011 39.6714C98.7592 38.709 97.4548 37.8171 96.1037 37ZM114.937 95.904L111.977 94.3352C109.579 98.8012 106.413 102.809 102.623 106.175C99.4152 103.657 95.8896 101.572 92.1373 99.974L93.3731 95.497L90.1763 94.72L89.0589 98.79C79.3006 95.4455 68.7065 95.4455 58.9483 98.79L57.8309 94.72L54.6045 95.5044L55.8403 99.9814C52.0856 101.579 48.5576 103.664 45.3471 106.183C41.5617 102.814 38.3981 98.8067 36.0009 94.3426L33.0409 95.9114C37.0028 103.324 42.9032 109.522 50.1124 113.843C57.3216 118.164 65.5689 120.447 73.974 120.447C82.379 120.447 90.6264 118.164 97.8355 113.843C105.045 109.522 110.945 103.324 114.907 95.9114L114.937 95.904ZM96.1037 111C97.4556 110.195 98.7602 109.313 100.011 108.358C97.2549 106.283 94.2615 104.544 91.0939 103.178C89.7844 106.84 87.9632 110.298 85.6845 113.449C84.9904 114.385 84.2286 115.268 83.4053 116.091C87.8831 115.084 92.1703 113.365 96.1037 111ZM51.8961 111C55.8316 113.354 60.1187 115.063 64.5945 116.062C63.7736 115.238 63.0143 114.355 62.3227 113.42C60.0412 110.27 58.2197 106.812 56.9133 103.149C53.7433 104.515 50.7474 106.254 47.9889 108.329C49.2401 109.292 50.5446 110.184 51.8961 111ZM73.9999 99.6262C69.2418 99.6255 64.5162 100.411 60.0139 101.95C61.2141 105.329 62.8884 108.521 64.9867 111.429C67.6803 115.018 70.7809 117.09 73.9999 117.09C77.2189 117.09 80.3269 115.018 83.0205 111.429C85.1163 108.521 86.7881 105.329 87.9859 101.95C83.4838 100.41 78.7581 99.6249 73.9999 99.6262ZM73.9999 48.3664C78.7578 48.3721 83.4838 47.5894 87.9859 46.0502C86.7881 42.6712 85.1163 39.4795 83.0205 36.5708C80.3269 32.9818 77.2263 30.9098 73.9999 30.9098C70.7735 30.9098 67.6803 32.9818 64.9867 36.5708C62.8884 39.4791 61.2141 42.6708 60.0139 46.0502C64.5163 47.5882 69.2421 48.3708 73.9999 48.3664Z" fill="#EE722E"/>
<path fill-rule="evenodd" clip-rule="evenodd" d="M39.7157 91.8192V56.129H28.9043V91.8192H39.7157Z" fill="#EE722E"/>
<path fill-rule="evenodd" clip-rule="evenodd" d="M61.1831 92.5C70.7661 92.5 76.5973 87.949 76.5973 80.0828C76.5973 66.8072 56.7357 69.7228 56.7357 66.3262C56.7357 65.4234 57.3277 64.7278 59.4663 64.7278C63.2475 64.7756 66.9181 66.0104 69.9595 68.2576L75.7389 60.606C71.6763 57.2834 66.4297 55.6258 60.5911 55.6258C50.8009 55.6258 45.7911 61.4052 45.7911 67.4658C45.7911 81.5258 65.6971 78.0552 65.6971 81.4814C65.6971 82.8726 63.7731 83.4128 61.7381 83.4128C57.4517 83.416 53.3296 81.7645 50.2311 78.8026L44.6145 86.839C48.3959 90.2208 53.5833 92.5 61.1831 92.5Z" fill="#EE722E"/>
<path fill-rule="evenodd" clip-rule="evenodd" d="M99.5669 55.537C88.5409 55.537 80.0309 63.0258 80.0309 74.037C80.0309 85.0482 88.5409 92.537 99.5669 92.537C110.593 92.537 119.095 85.0482 119.095 74.037C119.095 63.0258 110.585 55.537 99.5669 55.537ZM99.5669 82.917C94.3869 82.917 90.9977 78.9654 90.9977 73.9852C90.9977 69.005 94.3721 65.0534 99.5669 65.0534C104.762 65.0534 108.129 69.005 108.129 73.9852C108.129 78.9654 104.754 82.9318 99.5669 82.9318V82.917Z" fill="#EE722E"/>
</svg>
