<svg width="130" height="74" viewBox="0 0 130 74" fill="none" xmlns="http://www.w3.org/2000/svg">
<path d="M130 15.2405C128.88 15.2405 127.75 15.2405 126.63 15.2405H2.68187C1.85261 15.2405 1.02335 15.2405 0.194084 15.2405V0H130V15.2405Z" fill="#EE722E"/>
<path d="M130 55.0243H114.756C118.99 52.6545 121.443 49.0602 122.545 44.2502L113.291 41.4664C112.894 42.5324 112.603 43.4838 112.189 44.3824C110.883 47.2279 108.66 48.3819 105.396 48.0119C102.634 47.7036 100.852 46.1002 100.226 43.1843C99.5159 40.1179 99.5159 36.9302 100.226 33.8638C101.382 29.089 106.86 27.0012 110.512 29.97C111.518 30.7893 112.162 32.0579 113.159 33.3793L122.237 31.3795C121.211 27.822 118.95 24.7457 115.858 22.7021H129.974L130 55.0243Z" fill="#EE722E"/>
<path d="M0.194084 22.7021H15.6501C9.20128 26.7017 7.65744 32.6569 7.86034 39.361C8.08089 46.25 10.798 51.6943 17.5645 55.0243H0.194084V22.7021Z" fill="#EE722E"/>
<path d="M41.0749 31.3883C39.8575 27.7588 38.049 24.8781 34.7231 22.7462H50.135V54.9362H33.1793C37.8637 52.6369 40.2368 49.0426 41.3925 44.2679L32.1383 41.4664C31.7501 42.4971 31.459 43.4398 31.0532 44.3383C29.7564 47.2014 27.5774 48.3731 24.278 48.0207C21.4373 47.7124 19.6817 46.0914 19.0466 43.0521C18.407 40.091 18.407 37.0276 19.0466 34.0664C19.7347 30.9479 21.8519 28.9921 24.6749 28.7279C27.9038 28.4195 29.9681 29.6088 31.4061 32.7802C31.4767 32.93 31.5737 33.0798 31.7678 33.4233L41.0749 31.3883Z" fill="#EE722E"/>
<path d="M98.6557 55.0155H83.9583C82.7144 52.6105 81.4529 50.2143 80.209 47.8093C78.6652 44.8229 77.1302 41.8276 73.5573 40.4445C82.8556 37.881 83.5261 27.3536 77.3507 22.7198H96.8119C90.3807 26.6488 88.8192 32.5776 89.0045 39.2993C89.2162 46.1971 91.9334 51.5886 98.6557 55.0155Z" fill="#EE722E"/>
<path d="M71.8282 54.9714H61.0831V41.7571C62.8474 41.5369 64.4354 41.9245 65.3176 43.431C67.5319 47.1398 69.5962 50.9807 71.8282 54.9714Z" fill="#EE722E"/>
<path d="M61.1007 28.3755C63.3591 28.3755 65.4235 28.2698 67.479 28.3755C69.5345 28.4812 70.5049 29.6088 70.5931 31.3443C70.6396 31.7584 70.5997 32.1776 70.4757 32.5755C70.3517 32.9733 70.1464 33.3412 69.8728 33.6558C69.5992 33.9704 69.2633 34.2249 68.8861 34.4033C68.509 34.5816 68.099 34.6799 67.6819 34.6919C65.547 34.9914 63.3768 35.0443 61.1007 35.2029V28.3755Z" fill="#EE722E"/>
<path d="M61.8594 74C61.533 73.9471 61.2066 73.9031 60.889 73.8414C60.016 73.6849 59.2088 73.2742 58.5688 72.6609C57.9463 72.0243 57.5604 71.1945 57.4749 70.3088C57.3616 69.2241 57.4819 68.1278 57.8278 67.0933C58.3825 65.0767 59.6321 63.3203 61.3565 62.1336C62.6266 61.2633 64.1072 60.7491 65.644 60.6448C66.5328 60.5694 67.428 60.6469 68.2906 60.8738C69.1478 61.087 69.9124 61.5726 70.4693 62.2574C71.0262 62.9422 71.3452 63.7892 71.3783 64.6707C71.4478 65.9046 71.2304 67.1378 70.7431 68.2738C69.9861 70.2688 68.5366 71.9258 66.6585 72.9429C65.6337 73.5253 64.4974 73.8856 63.3238 74H61.8594ZM67.2055 65.7719C67.2055 65.6133 67.2055 65.4812 67.2055 65.349C67.2002 65.0517 67.1157 64.7611 66.9607 64.5071C66.8056 64.2532 66.5856 64.0451 66.3233 63.9043C65.9198 63.7333 65.4741 63.6872 65.0441 63.7721C64.62 63.8519 64.2174 64.0192 63.8619 64.2635C63.5064 64.5077 63.2059 64.8235 62.9798 65.1905C62.4049 66.0044 62.0137 66.9331 61.8329 67.9126C61.7009 68.4516 61.6739 69.0109 61.7535 69.56C61.7907 69.9268 61.9628 70.2669 62.2366 70.5142C62.5104 70.7616 62.8664 70.8987 63.2356 70.899C63.854 70.9682 64.4772 70.8219 65 70.485C65.5705 70.123 66.0335 69.615 66.3409 69.0138C66.8806 68.0257 67.1769 66.9235 67.2055 65.7983V65.7719Z" fill="#EE722E"/>
<path d="M121.019 74C120.763 73.9559 120.508 73.9207 120.261 73.8679C119.494 73.7459 118.775 73.4203 118.179 72.9252C117.74 72.5582 117.416 72.0742 117.242 71.5299C117.069 70.9855 117.054 70.4032 117.199 69.8507C117.199 69.745 117.288 69.745 117.358 69.745H121.055C121.196 69.745 121.257 69.745 121.249 69.9212C121.236 70.1191 121.286 70.316 121.39 70.4848C121.494 70.6535 121.648 70.786 121.831 70.8638C122.361 71.0978 122.957 71.1413 123.516 70.9871C123.922 70.9427 124.297 70.7478 124.566 70.441C124.642 70.3712 124.699 70.2834 124.733 70.1858C124.766 70.0881 124.774 69.9836 124.757 69.8819C124.739 69.7803 124.696 69.6846 124.632 69.6037C124.568 69.5228 124.484 69.4594 124.389 69.4191C124.047 69.2457 123.69 69.1042 123.322 68.9962C122.581 68.776 121.822 68.591 121.081 68.3619C120.569 68.2076 120.091 67.9597 119.67 67.6307C119.331 67.3782 119.07 67.0371 118.914 66.6452C118.759 66.2533 118.715 65.826 118.787 65.4107C118.877 64.6598 119.139 63.9395 119.552 63.3056C119.965 62.6717 120.518 62.1411 121.169 61.7548C122.277 61.0841 123.536 60.7052 124.83 60.6536C125.584 60.5861 126.343 60.6157 127.089 60.7417C127.769 60.8437 128.413 61.1165 128.959 61.5345C129.481 61.9478 129.827 62.5424 129.929 63.1995L129.982 63.4374V64.3624C129.979 64.3798 129.979 64.3978 129.982 64.4152C129.982 64.6443 129.982 64.6443 129.691 64.6443H125.986C125.986 64.6002 125.986 64.5826 125.986 64.5562C126.015 64.3597 125.969 64.1594 125.856 63.9959C125.743 63.8323 125.572 63.7177 125.377 63.6752C124.9 63.5215 124.389 63.5063 123.904 63.6312C123.636 63.6738 123.394 63.8153 123.225 64.0276C123.168 64.0901 123.125 64.1642 123.099 64.2449C123.074 64.3256 123.066 64.4108 123.077 64.4947C123.088 64.5786 123.117 64.659 123.163 64.7305C123.208 64.802 123.268 64.8628 123.339 64.9086C123.48 65.019 123.638 65.1053 123.807 65.164C124.31 65.3314 124.822 65.49 125.342 65.631C126.144 65.8152 126.922 66.09 127.662 66.4502C128.171 66.6731 128.584 67.0689 128.828 67.5674C129.072 68.0659 129.131 68.6346 128.994 69.1724C128.766 70.4713 128.05 71.6341 126.992 72.4231C125.888 73.2332 124.587 73.7349 123.225 73.8767L122.493 73.9736L121.019 74Z" fill="#EE722E"/>
<path d="M0 73.5771C0.0970413 73.2512 0.202905 72.9164 0.299946 72.5817L3.07885 62.8912C3.23765 62.3098 3.40527 61.7371 3.56406 61.1293C3.56406 61.0236 3.63464 60.9883 3.74932 60.9883C5.86659 60.9883 7.98385 60.9883 10.0923 60.9883C10.9537 60.9659 11.8093 61.1344 12.5977 61.4817C13.128 61.6979 13.5707 62.0851 13.8553 62.5816C14.1398 63.078 14.2499 63.6553 14.168 64.2214C14.0659 65.673 13.4388 67.0381 12.4036 68.0624C11.5697 68.8554 10.5147 69.3776 9.37772 69.56C8.79403 69.6568 8.20466 69.7157 7.61333 69.7362C6.94286 69.7362 6.26357 69.7362 5.58428 69.7362C5.55565 69.7298 5.52595 69.7296 5.49724 69.7358C5.46854 69.7419 5.44152 69.7542 5.41803 69.7718C5.39455 69.7894 5.37517 69.8118 5.36122 69.8376C5.34728 69.8634 5.33911 69.8919 5.33727 69.9212C4.99321 71.1281 4.64034 72.3262 4.29628 73.5243C4.29628 73.6564 4.19924 73.6917 4.06691 73.6917H0.0705754L0 73.5771ZM6.17535 66.7586H6.37826C6.93404 66.7586 7.48982 66.7586 8.0456 66.7586C8.51966 66.7817 8.98553 66.6289 9.35359 66.3297C9.72165 66.0304 9.9659 65.6059 10.0394 65.1376C10.0941 64.9541 10.0773 64.7567 9.99215 64.585C9.90704 64.4134 9.76 64.2804 9.58062 64.2126C9.32505 64.0924 9.05035 64.0179 8.769 63.9924C8.23086 63.9924 7.69273 63.9924 7.15459 63.9395C7.02226 63.9395 6.97815 63.9924 6.95168 64.1069L6.60763 65.2874L6.17535 66.7586Z" fill="#EE722E"/>
<path d="M83.9054 66.9524H84.0024C84.4102 67.0788 84.7611 67.3433 84.9946 67.7003C85.2281 68.0573 85.3296 68.4844 85.2816 68.9081C85.249 69.7482 84.9846 70.563 84.5176 71.2625C84.0505 71.9621 83.3991 72.5192 82.635 72.8724C81.6976 73.3322 80.6709 73.5817 79.6268 73.6036C78.6211 73.6036 77.6154 73.6036 76.6097 73.6564H72.331C72.4104 73.3657 72.4898 73.1102 72.5604 72.846L75.8863 61.1733C75.9568 60.9355 75.948 60.9355 76.195 60.9355C78.2858 60.9355 80.3766 60.9355 82.4674 60.9355C83.3036 60.9074 84.1379 61.0328 84.9287 61.3055C85.2459 61.4249 85.5432 61.5912 85.8109 61.7988C86.0656 62.0073 86.2568 62.2828 86.3628 62.5942C86.4688 62.9056 86.4855 63.2404 86.4108 63.5607C86.2869 64.512 85.8157 65.384 85.0875 66.0098C84.7523 66.3093 84.3641 66.556 83.9936 66.829L83.9054 66.9524ZM77.3507 70.6964H79.3445C79.5337 70.6919 79.7223 70.6743 79.9091 70.6436C80.2672 70.6228 80.6063 70.476 80.8663 70.2293C81.1263 69.9825 81.2904 69.6518 81.3294 69.2957C81.365 69.136 81.3383 68.9687 81.2547 68.8279C81.1711 68.6871 81.0369 68.5835 80.8795 68.5381C80.7276 68.477 80.5666 68.4412 80.4031 68.4324C79.6532 68.4324 78.9034 68.3883 78.1623 68.3619C78.1385 68.3568 78.1138 68.3568 78.09 68.3617C78.0661 68.3666 78.0435 68.3764 78.0236 68.3905C78.0037 68.4045 77.9869 68.4226 77.9744 68.4434C77.9618 68.4643 77.9537 68.4875 77.9506 68.5117L77.4477 70.3264C77.4477 70.4762 77.4213 70.5643 77.3507 70.6964ZM78.6828 66.0538C78.8416 66.0538 78.9916 66.0538 79.1327 66.0538C79.662 66.0538 80.1914 66.0538 80.7207 66.0538C81.0284 66.0449 81.326 65.9423 81.5736 65.7596C81.8212 65.5769 82.0068 65.323 82.1057 65.0319C82.3263 64.3976 82.1057 64.054 81.4441 64.01C80.7824 63.966 80.0502 64.01 79.3533 64.01C79.3533 64.01 79.2386 64.0805 79.2298 64.1333C79.0445 64.7412 78.8769 65.3579 78.7005 65.9745C78.7269 65.9481 78.7269 65.9921 78.7181 66.0714L78.6828 66.0538Z" fill="#EE722E"/>
<path d="M98.294 67.71C98.5233 67.8245 98.7527 67.9302 98.9733 68.0536C99.1825 68.1572 99.3591 68.3165 99.4837 68.5139C99.6082 68.7113 99.6758 68.9391 99.679 69.1724C99.688 69.5628 99.6524 69.9529 99.5732 70.3352C99.4144 71.0576 99.2026 71.7624 99.0174 72.476C99.0174 72.5993 98.9644 72.7138 98.9468 72.8371C98.9468 73.1278 98.9468 73.1983 99.2115 73.3129C99.2115 73.4098 99.1585 73.5155 99.1232 73.6124C99.0978 73.6499 99.0605 73.6778 99.0174 73.6917H95.0387C94.8358 73.6917 94.8358 73.6917 94.8534 73.4802C94.946 72.7391 95.1054 72.0079 95.3298 71.2955C95.4563 70.9122 95.513 70.5094 95.4974 70.1062C95.4919 69.9603 95.4427 69.8194 95.3562 69.7016C95.2697 69.5838 95.1499 69.4946 95.0122 69.4455C94.6395 69.3099 94.2442 69.2471 93.8477 69.2605H92.6038C92.4627 69.2605 92.4009 69.2605 92.3568 69.4367C92.0216 70.6612 91.6687 71.8769 91.3246 73.0926C91.2753 73.237 91.2341 73.3841 91.2011 73.5331C91.2011 73.6564 91.1129 73.6917 90.9894 73.6917H86.949L87.0637 73.26C88.0694 69.7362 89.0721 66.2388 90.0719 62.7679C90.2307 62.2217 90.3895 61.6755 90.5395 61.1293C90.5395 61.0148 90.6189 60.9707 90.7424 60.9707C92.8597 60.9707 94.9769 60.9707 97.0854 60.9707C98.0297 60.9454 98.9716 61.0764 99.8731 61.3583C100.23 61.4734 100.56 61.6591 100.844 61.9045C101.066 62.11 101.235 62.3668 101.335 62.6525C101.435 62.9382 101.463 63.244 101.417 63.5431C101.36 64.607 100.954 65.6225 100.261 66.4326C99.7975 66.9876 99.1858 67.4 98.4969 67.6219L98.3469 67.6748L98.294 67.71ZM93.2302 66.4502H93.3537C93.9712 66.4502 94.5799 66.4502 95.1975 66.4502C95.4653 66.4387 95.7313 66.4003 95.9915 66.3357C96.2993 66.2791 96.5818 66.1282 96.7999 65.9041C97.0181 65.68 97.161 65.3936 97.2089 65.0848C97.257 64.9224 97.2512 64.7489 97.1924 64.5901C97.1336 64.4313 97.0248 64.2958 96.8825 64.2038C96.6763 64.077 96.4441 63.9987 96.2032 63.9748C95.4798 63.9748 94.7476 63.9748 94.0242 63.9748C94.0242 63.9748 93.9183 64.054 93.9007 64.0981C93.8036 64.424 93.7154 64.75 93.6272 65.0759C93.486 65.5076 93.3625 65.9745 93.2302 66.4502Z" fill="#EE722E"/>
<path d="M41.5337 73.6917C41.7454 72.9517 41.9483 72.2557 42.1424 71.5509C43.001 68.5675 43.8568 65.5663 44.7096 62.5476L45.133 61.0588C45.1352 61.0402 45.141 61.0223 45.1502 61.006C45.1594 60.9897 45.1718 60.9754 45.1865 60.9639C45.2013 60.9525 45.2182 60.944 45.2363 60.9391C45.2544 60.9343 45.2732 60.933 45.2918 60.9355C47.4708 60.9355 49.6498 60.9355 51.8289 60.9355C52.727 60.92 53.6214 61.054 54.4754 61.3319C54.9866 61.4683 55.4333 61.7802 55.737 62.2129C55.9829 62.6422 56.0703 63.1441 55.984 63.6312C55.8792 64.8121 55.3421 65.913 54.4754 66.7233C54.0405 67.1292 53.5185 67.4305 52.9492 67.6043H52.8257L53.3109 67.8245C53.6562 67.9556 53.9422 68.2073 54.1158 68.5329C54.2894 68.8586 54.3388 69.236 54.2549 69.5952C54.157 70.3123 53.9977 71.0197 53.7785 71.7095C53.6815 72.0795 53.5844 72.4583 53.505 72.846C53.505 73.0133 53.505 73.1983 53.7079 73.26C53.7609 73.3305 53.6285 73.63 53.5403 73.6476H49.4028C49.4094 73.4526 49.43 73.2583 49.4646 73.0662C49.6234 72.3702 49.8086 71.6655 49.9586 70.9607C50.0213 70.6712 50.0538 70.376 50.0556 70.0798C50.0552 69.9373 50.011 69.7983 49.9289 69.6818C49.8469 69.5652 49.731 69.4766 49.5969 69.4279C49.223 69.2845 48.8238 69.2186 48.4236 69.234H47.1179C47.0969 69.2302 47.0752 69.231 47.0545 69.2363C47.0337 69.2415 47.0144 69.2511 46.9977 69.2645C46.9809 69.2778 46.9673 69.2946 46.9576 69.3137C46.9479 69.3327 46.9424 69.3536 46.9415 69.375L45.8035 73.445C45.8035 73.6124 45.6976 73.674 45.5212 73.6652C44.2685 73.6652 43.0157 73.6652 41.763 73.6652L41.5337 73.6917ZM47.7884 66.4502H47.9296C48.5383 66.4502 49.147 66.4502 49.7557 66.4502C50.0533 66.4291 50.3485 66.382 50.6379 66.3093C50.9136 66.2503 51.1665 66.1135 51.3667 65.9151C51.5669 65.7168 51.7058 65.4653 51.7671 65.1905C51.8007 65.0783 51.8116 64.9605 51.7991 64.844C51.7866 64.7276 51.7509 64.6148 51.6943 64.5123C51.6376 64.4097 51.561 64.3195 51.469 64.2469C51.377 64.1743 51.2714 64.1207 51.1584 64.0893C51.0245 64.0423 50.8852 64.0127 50.7438 64.0012H48.6088C48.5647 64.0012 48.4942 64.0717 48.4765 64.1245C48.3265 64.6355 48.1854 65.1464 48.0442 65.6574C47.9472 65.8776 47.8766 66.1507 47.7884 66.4502Z" fill="#EE722E"/>
<path d="M19.2142 70.7052H25.6454C25.6512 70.7668 25.6512 70.8287 25.6454 70.8902C25.3983 71.7712 25.1425 72.6521 24.8955 73.5331C24.8955 73.6476 24.8161 73.6917 24.6926 73.6917H14.1416C14.221 73.4362 14.2827 73.1895 14.3533 72.9517C15.4825 69.0167 16.6088 65.0818 17.7321 61.1469C17.7341 61.1208 17.7416 61.0955 17.7541 61.0726C17.7666 61.0496 17.7839 61.0296 17.8047 61.0137C17.8255 60.9979 17.8495 60.9867 17.875 60.9808C17.9005 60.9749 17.927 60.9745 17.9526 60.9795H28.1773C28.1243 61.1557 28.089 61.3055 28.0449 61.4552C27.8332 62.2305 27.6126 63.0057 27.4009 63.7898C27.4009 63.9219 27.3039 63.9571 27.1716 63.9571H21.3403C21.3078 63.9522 21.2746 63.9537 21.2427 63.9617C21.2109 63.9697 21.1809 63.9839 21.1546 64.0036C21.1283 64.0233 21.1062 64.048 21.0896 64.0764C21.073 64.1047 21.0623 64.136 21.058 64.1686C20.9344 64.6443 20.7933 65.1112 20.6521 65.5869C20.6521 65.6398 20.6521 65.7014 20.6521 65.7719H25.9453C25.8836 65.9745 25.8394 66.1683 25.7865 66.3533L25.1513 68.5733C25.1513 68.7055 25.0631 68.7495 24.9131 68.7495H20.0081C19.8405 68.7495 19.7788 68.8024 19.7435 68.9521C19.5935 69.5071 19.4259 70.0533 19.2671 70.5995C19.2476 70.6338 19.23 70.6691 19.2142 70.7052Z" fill="#EE722E"/>
<path d="M113.344 60.9795C113.668 65.2198 113.988 69.4543 114.306 73.6829H110.318C110.168 73.6829 110.124 73.6388 110.124 73.489C110.124 73.0486 110.124 72.6081 110.124 72.1764C110.124 72.0531 110.124 72.009 109.965 72.009H106.093C106.05 72.0057 106.008 72.0158 105.971 72.038C105.935 72.0601 105.906 72.0931 105.89 72.1324L105.096 73.5507C105.08 73.5932 105.051 73.6292 105.013 73.6532C104.974 73.6771 104.929 73.6875 104.884 73.6829H100.914C100.914 73.63 100.967 73.5859 100.993 73.5419C102.97 70.4821 104.943 67.4252 106.913 64.3712C107.619 63.2788 108.325 62.1776 109.039 61.0852C109.059 61.0583 109.084 61.0357 109.113 61.019C109.141 61.0023 109.174 60.9919 109.207 60.9883H113.353L113.344 60.9795ZM107.531 69.3486H109.992C110.133 69.3486 110.124 69.2693 110.115 69.1812V66.2652C110.115 65.8512 110.115 65.4371 110.115 65.0319C110.115 64.9879 110.115 64.9526 110.115 64.8733L107.531 69.3486Z" fill="#EE722E"/>
<path d="M33.6027 64.3095H29.8534C29.9416 63.9924 30.0299 63.7017 30.1093 63.4286L30.7709 61.1029C30.7709 60.9883 30.8415 60.9531 30.965 60.9531H42.5041C42.4688 61.1058 42.4335 61.2467 42.3982 61.3759C42.1335 62.2569 41.8689 63.2083 41.6131 64.1333C41.6088 64.1624 41.5987 64.1904 41.5835 64.2155C41.5682 64.2406 41.548 64.2625 41.5242 64.2797C41.5004 64.297 41.4733 64.3092 41.4446 64.3159C41.4159 64.3225 41.3862 64.3233 41.3572 64.3183H37.9784C37.8373 64.3183 37.7843 64.3183 37.7402 64.5033C36.858 67.5074 36.0376 70.5026 35.1907 73.5155C35.1875 73.5419 35.179 73.5674 35.1655 73.5904C35.1521 73.6133 35.134 73.6333 35.1125 73.649C35.091 73.6647 35.0664 73.6758 35.0404 73.6816C35.0144 73.6875 34.9875 73.6879 34.9613 73.6829H30.9297L33.6027 64.3095Z" fill="#EE722E"/>
</svg>
