<svg width="34" height="34" viewBox="0 0 34 34" fill="none" xmlns="http://www.w3.org/2000/svg">
<path d="M16.6625 3.00309C21.1142 3.00309 21.6368 3.02293 23.3963 3.10231C25.0235 3.17507 25.9033 3.44628 26.492 3.67779C27.2725 3.98207 27.8282 4.33927 28.4103 4.92136C28.9924 5.50346 29.3562 6.0591 29.6539 6.83963C29.8788 7.42835 30.1566 8.30811 30.2293 9.93533C30.3087 11.6948 30.3286 12.2174 30.3286 16.6691C30.3286 21.1208 30.3087 21.6434 30.2293 23.4029C30.1566 25.0302 29.8854 25.9099 29.6539 26.4986C29.3496 27.2792 28.9924 27.8348 28.4103 28.4169C27.8282 28.999 27.2725 29.3628 26.492 29.6605C25.9033 29.8854 25.0235 30.1632 23.3963 30.2359C21.6368 30.3153 21.1142 30.3352 16.6625 30.3352C12.2108 30.3352 11.6882 30.3153 9.92872 30.2359C8.30149 30.1632 7.42173 29.892 6.83302 29.6605C6.05248 29.3562 5.49684 28.999 4.91475 28.4169C4.33265 27.8348 3.96884 27.2792 3.67118 26.4986C3.44628 25.9099 3.16846 25.0302 3.0957 23.4029C3.01632 21.6434 2.99647 21.1208 2.99647 16.6691C2.99647 12.2174 3.01632 11.6948 3.0957 9.93533C3.16846 8.30811 3.43966 7.42835 3.67118 6.83963C3.97546 6.0591 4.33265 5.50346 4.91475 4.92136C5.49684 4.33927 6.05248 3.97546 6.83302 3.67779C7.42173 3.45289 8.30149 3.17507 9.92872 3.10231C11.6882 3.01632 12.2108 3.00309 16.6625 3.00309ZM16.6625 0C12.138 0 11.5692 0.0198442 9.78981 0.099221C8.01706 0.178598 6.80656 0.463031 5.7482 0.873145C4.65016 1.29649 3.7241 1.87197 2.79803 2.79803C1.87197 3.7241 1.3031 4.65677 0.873145 5.7482C0.463031 6.80656 0.178598 8.01706 0.099221 9.79642C0.0198442 11.5692 0 12.138 0 16.6625C0 21.187 0.0198442 21.7559 0.099221 23.5352C0.178598 25.308 0.463031 26.5185 0.873145 27.5834C1.29649 28.6815 1.87197 29.6075 2.79803 30.5336C3.7241 31.4597 4.65677 32.0285 5.7482 32.4585C6.80656 32.8686 8.01706 33.153 9.79642 33.2324C11.5758 33.3118 12.138 33.3316 16.6691 33.3316C21.2002 33.3316 21.7625 33.3118 23.5418 33.2324C25.3146 33.153 26.5251 32.8686 27.5901 32.4585C28.6881 32.0352 29.6142 31.4597 30.5402 30.5336C31.4663 29.6075 32.0352 28.6749 32.4651 27.5834C32.8752 26.5251 33.1597 25.3146 33.239 23.5352C33.3184 21.7559 33.3383 21.1936 33.3383 16.6625C33.3383 12.1314 33.3184 11.5692 33.239 9.78981C33.1597 8.01706 32.8752 6.80656 32.4651 5.74159C32.0418 4.64354 31.4663 3.71748 30.5402 2.79142C29.6142 1.86535 28.6815 1.29649 27.5901 0.86653C26.5317 0.456417 25.3212 0.171983 23.5418 0.0926063C21.7559 0.0198442 21.187 0 16.6625 0Z" fill="#EE722E"/>
<path d="M16.6625 8.10303C11.9396 8.10303 8.10303 11.933 8.10303 16.6625C8.10303 21.392 11.9396 25.222 16.6625 25.222C21.3854 25.222 25.222 21.3854 25.222 16.6625C25.222 11.9396 21.3854 8.10303 16.6625 8.10303ZM16.6625 22.2189C13.5933 22.2189 11.1061 19.7317 11.1061 16.6625C11.1061 13.5933 13.5933 11.1061 16.6625 11.1061C19.7317 11.1061 22.2189 13.5933 22.2189 16.6625C22.2189 19.7317 19.7317 22.2189 16.6625 22.2189Z" fill="#EE722E"/>
<path d="M25.5606 9.76312C26.6639 9.76312 27.5583 8.86874 27.5583 7.76547C27.5583 6.6622 26.6639 5.76782 25.5606 5.76782C24.4574 5.76782 23.563 6.6622 23.563 7.76547C23.563 8.86874 24.4574 9.76312 25.5606 9.76312Z" fill="#EE722E"/>
</svg>
