<svg width="34" height="34" viewBox="0 0 34 34" fill="none" xmlns="http://www.w3.org/2000/svg">
<g clip-path="url(#clip0_324_859)">
<path d="M31.45 0H2.55C1.13333 0 0 1.13333 0 2.45556V31.5444C0 32.8667 1.13333 34 2.55 34H31.5444C32.9611 34 34.0944 32.8667 34.0944 31.5444V2.45556C34 1.13333 32.8667 0 31.45 0ZM10.1056 28.9944H5.00555V12.75H10.0111V28.9944H10.1056ZM7.55555 10.4833C5.95 10.4833 4.62778 9.16111 4.62778 7.55556C4.62778 5.95 5.95 4.72222 7.55555 4.72222C9.16111 4.72222 10.4833 6.04444 10.4833 7.65C10.4833 9.25556 9.16111 10.4833 7.55555 10.4833ZM28.9944 28.9944H23.9889V21.0611C23.9889 19.1722 23.9889 16.7167 21.3444 16.7167C18.7 16.7167 18.3222 18.7944 18.3222 20.8722V28.9H13.2222V12.75H18.0389V14.9222H18.1333C18.7944 13.6 20.4944 12.2778 22.95 12.2778C28.05 12.2778 28.9944 15.6778 28.9944 20.0222V28.9944Z" fill="#EE722E"/>
</g>
<defs>
<clipPath id="clip0_324_859">
<rect width="34" height="34" fill="white"/>
</clipPath>
</defs>
</svg>
