<svg width="29" height="26" viewBox="0 0 29 26" fill="none" xmlns="http://www.w3.org/2000/svg">
<path fill-rule="evenodd" clip-rule="evenodd" d="M27.5266 18.5073C26.8145 18.1636 23.3086 16.498 22.6512 16.26C21.9939 16.0353 21.5146 15.9163 21.0489 16.6037C20.5696 17.2911 19.2001 18.851 18.7893 19.3005C18.3785 19.7632 17.9539 19.8161 17.2418 19.4724C16.5297 19.1286 14.2289 18.4016 11.5037 16.0485C9.38096 14.2242 7.95669 11.9637 7.53215 11.2762C7.12131 10.5888 7.49107 10.2187 7.84713 9.87498C8.16211 9.57094 8.55927 9.06859 8.91533 8.67201C9.2714 8.27542 9.39465 7.98459 9.62746 7.52191C9.86027 7.05922 9.75072 6.66264 9.57268 6.31893C9.39465 5.97522 7.97039 2.57781 7.36781 1.20298C6.79263 -0.145414 6.20376 0.0396604 5.76552 0.0264408C5.35468 1.80059e-06 4.87536 0 4.39604 0C3.91672 0 3.14981 0.171854 2.49246 0.859269C1.83511 1.54668 0 3.21234 0 6.60976C0 10.0072 2.56093 13.2724 2.917 13.7351C3.27306 14.1978 7.943 21.1512 15.1054 24.1389C16.8036 24.8527 18.1319 25.2757 19.1728 25.593C20.8846 26.1218 22.4321 26.0425 23.6647 25.8706C25.0341 25.6723 27.8827 24.2049 28.4852 22.5922C29.0741 20.9794 29.0741 19.6046 28.8961 19.3137C28.7181 19.0229 28.2524 18.851 27.5266 18.5073Z" fill="#EE722E"/>
</svg>
