<svg width="108" height="108" viewBox="0 0 108 108" fill="none" xmlns="http://www.w3.org/2000/svg">
<path fill-rule="evenodd" clip-rule="evenodd" d="M54 0C83.8 0 108 24.2 108 54C108 83.8 83.8 108 54 108C24.2 108 0 83.8 0 54C0 24.2 24.2 0 54 0ZM77.4 55.6C78.5 54.9 78.5 53 77.4 52.3L42.3 30.9C39.6 29.2 38.8 31.1 38.8 32V75.9C38.8 76.9 39.6 78.7 42.3 77L77.4 55.6ZM54 6.7C27.8 6.7 6.7 27.9 6.7 54C6.7 80.1 27.9 101.3 54 101.3C80.1 101.3 101.3 80.1 101.3 54C101.3 27.9 80.2 6.7 54 6.7Z" fill="#EE722E"/>
</svg>
