<svg width="32" height="32" viewBox="0 0 32 32" fill="none" xmlns="http://www.w3.org/2000/svg">
<path fill-rule="evenodd" clip-rule="evenodd" d="M27.3337 4.65289C24.3246 1.6574 20.3303 0.00760276 16.0687 0C7.28592 0 0.145108 7.11618 0.13747 15.8517C0.13747 18.6496 0.870645 21.3713 2.26062 23.7814L0 32L8.44678 29.7952C10.7761 31.0573 13.3957 31.7263 16.0611 31.7263H16.0687C24.8439 31.7263 31.9924 24.6101 32 15.867C31.9924 11.6322 30.3427 7.64837 27.3337 4.65289ZM16.0687 29.0501C13.6859 29.0501 11.3566 28.4115 9.32506 27.2103L8.84391 26.9214L3.83389 28.229L5.17041 23.3633L4.85728 22.8615C3.5284 20.7631 2.83341 18.3379 2.83341 15.8517C2.83341 8.58351 8.77518 2.67617 16.0764 2.67617C19.6124 2.67617 22.9346 4.05227 25.4396 6.53837C27.937 9.03208 29.3117 12.3393 29.3117 15.8593C29.3041 23.1352 23.3623 29.0501 16.0687 29.0501ZM23.3241 19.1818C22.927 18.9841 20.9718 18.0261 20.6053 17.8893C20.2387 17.76 19.9714 17.6916 19.7117 18.087C19.4444 18.4823 18.6807 19.3794 18.4516 19.6379C18.2224 19.904 17.9857 19.9344 17.5885 19.7368C17.1914 19.5391 15.9084 19.1209 14.3885 17.7676C13.2048 16.7185 12.4105 15.4184 12.1737 15.023C11.9446 14.6277 12.1508 14.4148 12.3494 14.2172C12.5251 14.0423 12.7465 13.7534 12.9451 13.5253C13.1437 13.2972 13.2124 13.13 13.3422 12.8639C13.4721 12.5978 13.411 12.3697 13.3117 12.172C13.2124 11.9743 12.4181 10.0204 12.0821 9.22975C11.7613 8.45427 11.4329 8.56071 11.1885 8.5531C10.9594 8.5379 10.6921 8.5379 10.4248 8.5379C10.1575 8.5379 9.72983 8.63673 9.36325 9.03207C8.99666 9.42742 7.97327 10.3854 7.97327 12.3393C7.97327 14.2932 9.40143 16.1711 9.6 16.4372C9.79857 16.7033 12.4029 20.7023 16.3971 22.4205C17.3442 22.8311 18.085 23.0744 18.6654 23.2568C19.62 23.5609 20.4831 23.5153 21.1704 23.4165C21.9341 23.3024 23.5227 22.4585 23.8587 21.531C24.1871 20.6035 24.1871 19.8128 24.0878 19.6455C23.9885 19.4783 23.7289 19.3794 23.3241 19.1818Z" fill="#EE722E"/>
</svg>
